<?xml version="1.0" encoding="UTF-8" standalone="no"?>
<svg
   xmlns:dc="http://purl.org/dc/elements/1.1/"
   xmlns:cc="http://creativecommons.org/ns#"
   xmlns:rdf="http://www.w3.org/1999/02/22-rdf-syntax-ns#"
   xmlns:svg="http://www.w3.org/2000/svg"
   xmlns="http://www.w3.org/2000/svg"
   viewBox="0 0 666.66669 666.66669"
   height="666.66669"
   width="666.66669"
   xml:space="preserve"
   id="svg2"
   version="1.1"><metadata
     id="metadata8"><rdf:RDF><cc:Work
         rdf:about=""><dc:format>image/svg+xml</dc:format><dc:type
           rdf:resource="http://purl.org/dc/dcmitype/StillImage" /></cc:Work></rdf:RDF></metadata><defs
     id="defs6" /><g
     transform="matrix(1.3333333,0,0,-1.3333333,0,666.66667)"
     id="g10"><g
       transform="scale(0.1)"
       id="g12"><path
         id="path14"
         style="fill:#fff9cf;fill-opacity:1;fill-rule:nonzero;stroke:none"
         d="M 0,0 H 5000 V 5000 H 0 Z" /><path
         id="path16"
         style="fill:#fee9a2;fill-opacity:1;fill-rule:nonzero;stroke:none"
         d="m 3096.68,99.0586 c -71.67,0 -144.27,8.4804 -214.98,19.7034 C 2689.38,149.301 2497.92,199.41 2326.03,291.41 2150.22,385.5 2000,520.461 1831.25,626.641 1615.74,762.25 1372.3,849.512 1158.77,988.18 c -237.332,154.13 -436.301,376.24 -529.278,641.67 -72.992,208.37 -78.554,432.64 -79.984,652.54 -1.684,258.08 3.195,525.05 111.453,758.58 128.715,277.67 394.329,476.6 686.129,575.22 196.85,66.53 405.04,91.42 614.3,91.42 100.92,0 202.12,-5.79 302.36,-15.5 275.34,-26.66 550.13,-82.7 804.69,-192.11 279.96,-120.34 528.52,-301.87 774.33,-481.81 181.54,-132.89 364.22,-265.57 533.82,-413.54 104.45,-91.13 149,-142.82 128.57,-281.87 -28.01,-190.69 -82.9,-381.35 -141.03,-564.54 C 4249.92,1398.34 4092.09,1052.43 3894.35,730.832 3795.68,570.371 3686.16,414.672 3548.14,286.07 3484.6,226.879 3414.26,173.121 3333.45,140.391 3258.46,110.02 3178.17,99.0508 3096.68,99.0586" /><path
         id="path18"
         style="fill:#f8a577;fill-opacity:1;fill-rule:nonzero;stroke:none"
         d="m 2305.5,3347.06 c 98.94,-63.05 232.96,-48.57 334.49,10.22 86.99,50.37 159.07,130.92 256.7,154.84 91.94,22.53 191.2,-11.63 264.2,-71.89 73,-60.26 123.07,-143.82 162.78,-229.74 144.15,-311.95 166.36,-664.57 254.92,-996.6 100.74,-377.7 287.3,-727.33 499.15,-1055.85 49.9,-77.39 103.6,-163.63 89.07,-254.548 -6.65,-41.551 -27.21,-79.39 -47.92,-116.012 C 4077.98,715.141 4034.55,643.051 3975.74,584.332 3864.01,472.789 3707.79,419.699 3555.55,377.859 3383.34,330.52 3208.44,292.961 3031.98,265.422 c -126.57,-19.75 -254.51,-34.383 -382.55,-30.121 -116.53,3.879 -231.92,23.371 -346.9,42.801 -229.77,38.847 -459.54,77.699 -689.32,116.546 -133.14,22.512 -274.35,48.844 -373.61,140.391 -69.04,63.68 -109.43,151.762 -148.08,237.371 -41.78,92.559 -83.96,186.379 -101.141,286.47 -39.391,229.52 56.001,458.14 89.151,688.64 17.07,118.67 17.68,239.74 43.29,356.87 23.09,105.61 66.01,205.69 108.68,305.01 137.35,319.67 274.69,639.34 412.03,959.01 18.83,43.81 38.25,88.56 70.75,123.45 51.11,54.9 126.94,77.85 199.03,98.57 73.81,21.22 268.91,125.02 291.55,13.59 20.86,-102.64 -6.29,-188.92 100.64,-256.96" /><path
         id="path20"
         style="fill:#ffffff;fill-opacity:1;fill-rule:nonzero;stroke:none"
         d="m 1253.06,1798.17 c 9.32,-3.96 20,-1.33 29.76,1.41 85.68,24.07 169.92,53.23 252.14,87.29 28.53,11.82 58.2,25.3 76.34,50.3 15.16,20.89 20.31,47.25 24.05,72.8 13.56,92.62 13.71,187.19 0.45,279.86 -1.09,7.6 -2.42,15.56 -7.13,21.62 -5.51,7.08 -14.58,10.25 -23.26,12.49 -119.1,30.63 -294.17,-57.59 -362.08,-159.28 -42.55,-63.72 -71.11,-332.12 9.73,-366.49" /><path
         id="path22"
         style="fill:#ffffff;fill-opacity:1;fill-rule:nonzero;stroke:none"
         d="m 2999.94,2206.11 c 13.68,-4.03 28.33,-2.16 42.42,0.04 105.57,16.49 208.44,50.18 303.32,99.34 26.77,13.87 54.07,30.07 69.5,55.98 12.15,20.39 15.6,44.64 18.59,68.19 7.84,61.79 14.17,123.78 18.97,185.88 8.94,115.64 -370.52,94.26 -446.52,35.64 -56.06,-43.25 -72.7,-111.9 -75.73,-179.45 -2.76,-61.44 -10.04,-242.24 69.45,-265.62" /><path
         id="path24"
         style="fill:#ffffff;fill-opacity:1;fill-rule:nonzero;stroke:none"
         d="m 1756.31,1554.51 c -4.68,-76.17 15.55,-153.66 56.87,-217.81 30.5,-47.34 79.6,-90.27 135.77,-86.22 33.47,2.41 63.28,21.08 91.52,39.21 74.71,47.95 149.41,95.9 224.12,143.85 47.45,30.46 100.47,70.66 99.86,127.04 -0.23,21.01 -8.29,41.03 -16.22,60.48 -12.88,31.57 -25.76,63.15 -38.65,94.72 -14.78,36.23 -33.32,76.23 -70.06,89.67 -23.48,8.58 -49.71,4.13 -73.51,-3.49 -58.84,-18.85 -110.85,-56.08 -170.6,-71.77 -52.97,-13.9 -117.06,-14.23 -149.19,-58.58" /><path
         id="path26"
         style="fill:#ffffff;fill-opacity:1;fill-rule:nonzero;stroke:none"
         d="m 1978.64,2834.38 c 3.58,-31.48 10.98,-66.27 37.07,-84.23 12,-8.26 26.54,-11.8 40.75,-14.96 104.84,-23.27 212.47,-33.9 319.83,-31.58 28.74,0.62 59.97,3.15 81.25,22.47 22.82,20.73 27.32,54.34 30.41,85.01 4.79,47.66 9.58,95.33 14.37,142.99 1.36,13.44 2.46,28.03 -4.72,39.48 -5.9,9.4 -16.29,14.83 -26.2,19.83 -97.29,49.15 -272.14,186.81 -386.48,155.5 -132.48,-36.29 -117.95,-231.79 -106.28,-334.51" /><path
         id="path28"
         style="fill:#ffffff;fill-opacity:1;fill-rule:nonzero;stroke:none"
         d="m 2910.35,1482.87 c -19.97,-172.63 57.45,-339.99 132.9,-496.538 22.64,-46.973 48.83,-97.523 96.41,-118.852 56.5,-25.339 121.7,-0.531 178.5,24.149 74.03,32.18 148.07,64.359 222.11,96.543 50.06,21.758 103.75,46.768 129.39,94.968 20.93,39.35 18.79,86.58 14.27,130.93 -8.77,86.01 -24.51,171.32 -47,254.8 -12.13,45.01 -29.42,93.64 -69.94,116.68 -22.02,12.52 -48.02,15.58 -73.26,17.66 -147.06,12.07 -296.16,-1.13 -438.81,-38.86" /><path
         id="path30"
         style="fill:#fab34f;fill-opacity:1;fill-rule:nonzero;stroke:none"
         d="m 2067.06,4278.68 c -1.15,-8.41 -1.83,-17.86 3.48,-24.48 8.51,-10.64 25.4,-6.66 37.8,-1.01 62.65,28.59 115.17,75.19 174.4,110.32 114.84,68.12 255.23,91.03 386.25,65.33 131.02,-25.7 251.69,-99.32 336.4,-202.52 20.48,-24.96 49.53,-54.84 79.28,-42.3 8.24,3.46 14.84,9.88 20.87,16.47 84.09,91.89 82.82,249.14 -2.73,339.66 -32.23,34.11 -73.28,58.35 -113.91,81.82 -155.13,89.63 -324.16,180.13 -508,181.33 -65.84,0.43 -122.54,-5.87 -166.34,-56.82 -53.6,-62.34 -103.44,-131.91 -146.08,-202.13 -49.52,-81.55 -88.38,-170.54 -101.42,-265.67" /><path
         id="path32"
         style="fill:#f68b4f;fill-opacity:1;fill-rule:nonzero;stroke:none"
         d="m 2248.84,4514.61 c -7.11,-14.47 -13.42,-29.97 -12.99,-46.09 0.42,-16.11 9.15,-32.97 24.3,-38.49 11.53,-4.2 24.93,-1.08 34.78,6.24 9.85,7.32 16.44,18.37 20.38,29.99 2.9,8.53 4.42,18.17 0.65,26.36 -3.98,8.64 -13.23,13.91 -22.59,15.59 -9.37,1.68 -18.98,0.33 -28.4,-1.03" /><path
         id="path34"
         style="fill:#f68b4f;fill-opacity:1;fill-rule:nonzero;stroke:none"
         d="m 2653.01,4539.35 c 8.17,-20.72 30.41,-34.02 52.67,-34.79 22.26,-0.78 43.96,9.58 60.13,24.9 4.47,4.25 8.85,9.49 8.85,15.65 0.01,11.47 -13.93,17.06 -25.3,18.52 -11.37,1.46 -25.24,3.55 -29.34,14.25 -7.89,20.59 1.67,66.18 -39.96,50.66 -29,-10.82 -36.87,-64.26 -27.05,-89.19" /><path
         id="path36"
         style="fill:#f68b4f;fill-opacity:1;fill-rule:nonzero;stroke:none"
         d="m 2392.58,4640.13 c -7.67,-24.84 -1.65,-55.96 20.66,-69.33 13.38,-8.01 30.33,-8.33 45.29,-3.92 14.96,4.42 28.26,13.12 40.78,22.42 5.2,3.85 10.75,8.63 11.15,15.09 0.49,7.62 -6.4,13.56 -13.04,17.34 -10.87,6.18 -22.89,10.22 -33.5,16.84 -19.15,11.97 -16.24,49.37 -27.02,52.57 -20.44,6.06 -40.42,-38.39 -44.32,-51.01" /><path
         id="path38"
         style="fill:#f68b4f;fill-opacity:1;fill-rule:nonzero;stroke:none"
         d="m 2941.18,4409.25 c -4.98,-20.37 5.51,-42.66 22.72,-54.65 17.21,-11.99 39.81,-14.53 60.32,-10.15 20.51,4.37 39.18,15.07 55.94,27.67 -45.48,-34.17 -116.9,127.25 -138.98,37.13" /><path
         id="path40"
         style="fill:#f68b4f;fill-opacity:1;fill-rule:nonzero;stroke:none"
         d="m 2814.06,4491.49 c -3.61,38.25 3.12,80.52 31.18,106.76 17.39,16.26 41.95,24.56 65.63,22.17 7.54,-0.76 15.23,-2.67 21.16,-7.37 6.92,-5.48 10.61,-13.99 13.61,-22.28 3.75,-10.38 6.89,-21.25 6.24,-32.26 -0.65,-11.01 -5.7,-22.28 -15.14,-27.97 -9.45,-5.69 -23.44,-4.01 -29.49,5.21 -2.65,4.05 -3.6,8.97 -5.74,13.31 -6.57,13.28 -23.94,18.65 -38.25,14.85 -14.32,-3.81 -25.69,-14.89 -33.86,-27.25" /><path
         id="path42"
         style="fill:#bb9585;fill-opacity:1;fill-rule:nonzero;stroke:none"
         d="m 2264.56,4138.49 c -21.93,-35.39 -29.51,-78.48 -26.3,-120 1.42,-18.28 4.94,-36.71 13.38,-52.99 17.83,-34.35 57.27,-55.11 95.96,-54.05 38.68,1.05 75.47,22.29 98.97,53.04 23.51,30.74 34.31,70.12 33.92,108.81 -0.54,54.87 -30.54,107.63 -83.21,128.61 -50.86,20.26 -106.58,-21.24 -132.72,-63.42" /><path
         id="path44"
         style="fill:#bb9585;fill-opacity:1;fill-rule:nonzero;stroke:none"
         d="m 2661.01,4100.54 c -25.36,-27.02 -45.15,-60.21 -51.71,-96.68 -6.57,-36.48 1.2,-76.31 25.01,-104.71 13.08,-15.58 30.42,-27.26 49.13,-35.27 62.89,-26.91 142.16,-8.88 187.22,42.6 55.83,63.78 53.57,171.45 -14.35,225.23 -60.54,47.94 -146.01,21.31 -195.3,-31.17" /><path
         id="path46"
         style="fill:#f8a577;fill-opacity:1;fill-rule:nonzero;stroke:none"
         d="m 2511.47,3888.6 c -21.9,1.6 -46.43,2.36 -62.83,-12.23 7.86,-13.27 22.13,-21.74 36.99,-25.86 14.87,-4.12 30.49,-4.37 45.91,-4.6 21.59,-0.32 43.19,-0.64 64.82,-0.96 25.75,-0.37 42.21,19.52 17.43,35.15 -21.52,13.57 -77.14,6.65 -102.32,8.5" /><path
         id="path48"
         style="fill:#f8a577;fill-opacity:1;fill-rule:nonzero;stroke:none"
         d="m 2582.76,3793.53 c -39.75,12.39 -82.15,16.18 -123.47,11.03 -18.96,-2.37 -41.82,-10.93 -43.53,-29.96 -0.77,-8.61 3.38,-16.9 8.28,-24.02 16.82,-24.47 44.33,-41.3 73.78,-45.14 31.39,-4.09 62.72,5.93 92.8,15.81 6.43,2.12 12.96,4.27 18.61,8 13.69,9.03 20.33,27.48 15.54,43.16" /><path
         id="path50"
         style="fill:#9f7767;fill-opacity:1;fill-rule:nonzero;stroke:none"
         d="m 2142.26,4260.15 c -4.3,-39.44 2.79,-80.05 20.19,-115.7 2.17,-4.46 4.75,-9.1 9.15,-11.39 11.08,-5.77 22.52,6.57 29.64,16.84 17.2,24.82 39.32,47.14 66.94,59.33 19.84,8.77 41.63,11.97 63.15,14.62 105.84,13.03 213.06,14.74 319.26,5.07 7.04,-0.64 14.81,-1.14 20.46,3.12 3.47,2.61 5.55,6.63 7.51,10.51 11.98,23.71 23.96,47.42 35.95,71.13 1.68,-39.61 3.36,-79.23 5.04,-118.84 0.22,-5.12 0.56,-10.6 3.7,-14.64 2.5,-3.2 6.37,-4.97 10.09,-6.62 27.39,-12.17 54.78,-24.33 82.17,-36.49 33.63,-14.94 68.29,-30.12 105.06,-31.56 5.07,-0.2 10.48,-0.05 14.72,2.74 6.32,4.16 7.95,12.56 9.02,20.05 2.97,20.76 5.94,41.52 8.91,62.27 1.83,12.81 3.65,25.96 0.77,38.57 -3.39,14.81 -12.92,27.41 -22.83,38.92 -76.9,89.34 -190.83,142.4 -307.68,157.94 -116.84,15.54 -236.41,-4.31 -347.73,-43.07" /><path
         id="path52"
         style="fill:#040606;fill-opacity:1;fill-rule:nonzero;stroke:none"
         d="m 3982.45,872.109 c -29.82,-43.55 -61.89,-85.578 -96.08,-125.91 l -26.83,38.672 c 46.42,21.25 87.74,51.18 122.91,87.238 z m 19.69,296.761 c -1.28,-5.68 -2.49,-11.38 -3.57,-17.11 -6.16,-32.87 -4.74,-67.23 -12.26,-99.69 -3.9,-16.81 -11.59,-32.99 -27.48,-41.3 -13.67,-7.14 -30.39,-7.7 -41.43,3.2 31.64,49.73 59.94,101.49 84.74,154.9 z m 87.44,-308.62 c -10.19,-62.871 -36.44,-119.77 -77.02,-168.762 -37.21,-44.937 -82.39,-82.449 -127.89,-118.629 -49.16,-39.089 -98.65,-78.25 -152.26,-111.14 -56.68,-34.77 -118.46,-61.578 -184.84,-68.77 1.46,18.77 2.36,37.531 3.61,55.699 3.4,49.524 5.1,99.161 5.1,148.801 0,95.141 -6.27,190.281 -18.72,284.602 -25.01,189.409 -79,372.109 -135.47,554.099 -57.59,185.62 -110.38,371.83 -150.56,562.09 -2.41,11.42 -4.68,22.86 -7.02,34.28 -20.21,141.4 -22.7,284.01 -19.6,426.64 3.15,144.71 9.38,289.67 0.87,434.31 -2.1,35.72 -5.12,71.39 -9.32,106.92 -4.21,35.55 -10.23,71.03 -10.97,106.89 -0.4,18.99 0.72,38.05 4.61,56.68 3.57,17.13 9.47,33.62 14.45,50.36 9.55,32.12 11.55,64.38 8.9,97.58 43.53,-28.07 78.64,-73.14 103.34,-115.18 38.95,-66.32 62.01,-140.69 82.31,-214.43 24.57,-89.22 48.1,-178.7 73.27,-267.75 53.08,-187.8 109.48,-374.66 169.56,-560.33 52.83,-163.26 100.72,-335.38 192.22,-482.18 20.56,-32.99 43.53,-64.55 69.28,-93.71 25.58,-28.97 55,-53.77 82.21,-81.1 29.16,-29.28 55.51,-63.63 57.42,-106.59 2.07,-46.82 -19.27,-95.23 -35.81,-138.16 -31.87,-82.73 -72.36,-161.92 -120.14,-236.57 -1.28,-1.99 -0.56,-4.23 0.76,-5.91 15.69,-20.049 44.72,-16.849 63.46,-2.75 26.71,20.09 27.36,58.25 29.59,88.47 6.19,84.15 34.36,165.1 80.82,235.35 40.22,-112.52 26.35,-238.73 -27.91,-344.162 -8.09,-14.378 -16.42,-28.628 -24.97,-42.738 -17.38,-26.371 -37.47,-50.93 -60.04,-73.012 -34.45,-33.699 -74.49,-60.929 -118.58,-80.386 -2.18,-0.961 -2.98,-4.473 -1.67,-6.364 11.14,-16.066 22.28,-32.136 33.41,-48.207 1.58,-2.281 5.24,-3.402 7.34,-0.953 56.72,66.332 107.63,137.282 152.26,212.094 5.92,9.398 11.5,19.008 16.75,28.809 12.1,21.328 23.7,42.959 34.79,64.879 3.71,-60.2 6.15,-121.079 -3.54,-180.77 z M 3545.22,507.512 c -1.59,-38.524 -4.08,-77.09 -7.82,-115.492 l -1.8,-0.168 c -6.09,-0.43 -6.14,-9.993 0,-9.551 l 0.8,0.07 c -0.68,-6.551 -1.29,-13.101 -2.05,-19.641 -5.28,-45.679 -18.39,-85.8 -59.53,-110.609 -32.28,-19.461 -70.19,-27.199 -106.66,-34.723 -46.88,-9.66 -93.96,-18.308 -141.19,-26.019 -96.07,-15.668 -192.75,-27.43 -289.71,-35.938 -193.1,-16.949 -387.14,-21.089 -580.9,-17.769 -95.17,1.629 -190.35,4.84 -285.42,9.598 -92.83,4.652 -186.04,11.671 -277.01,31.671 -43.34,9.52 -86.07,22.02 -127.29,38.508 -39.97,15.992 -82.86,34.922 -111.57,68.211 -30.45,35.332 -36.22,83.309 -39.37,128.09 -1.92,27.219 -2.75,54.5 -2.82,81.781 5.08,27.75 5.57,56.938 4.98,84.09 -0.19,8.438 -0.21,17.238 -0.97,25.918 13.05,179.27 55.1,355.07 89.44,531.131 62,317.92 101.81,640.17 119.24,963.61 12.5,49.82 21.07,100.49 19.12,152.18 -0.21,5.5 -8.78,5.52 -8.57,0 1.28,-33.93 -2,-67.44 -7.89,-100.58 2.17,46.81 3.9,93.64 5.13,140.48 5.09,193.2 4.17,386.61 -18.22,578.78 -1.94,16.68 -3.88,33.74 -5.64,51.04 -0.5,21.14 -0.79,42.29 -0.74,63.42 0.15,66.1 3.56,132.2 12.06,197.74 17.62,58.77 50.19,111.44 106.71,151.37 4.48,-0.02 8.95,0 13.42,-0.09 4.18,-0.09 4.17,6.38 0,6.48 -1.28,0.03 -2.57,0.02 -3.86,0.05 55.18,35.45 123.69,49.36 184.65,19.36 3.41,-1.67 6.41,3.41 2.99,5.12 -68.08,34.06 -141.16,17.06 -200.1,-24.33 -26.75,0.11 -53.64,-1.13 -80.43,-3.7 2.38,1.88 4.7,3.86 6.93,6.03 11.98,11.68 21.46,26.02 29.59,40.57 33.39,59.72 42.08,129.21 71.28,190.71 13.58,28.6 31.57,55.85 56.77,75.52 14.2,11.09 30.55,18.78 46.02,27.87 14.42,8.47 27.49,18.69 38.74,31.09 49.04,54.01 58.82,128.84 80.55,195.67 11.3,34.73 26.16,68.26 44.26,99.98 9.07,15.89 19.23,31 29.37,46.22 9.2,13.83 18.3,28.48 22.28,44.8 0.7,2.85 1.15,5.74 1.48,8.65 1.34,-3.84 2.25,-7.77 2.85,-11.74 0.25,-2.49 0.5,-4.97 0.78,-7.45 0.97,-19.92 -5.69,-40.64 -13.62,-58.72 -13.67,-31.17 -28.3,-61.81 -40.9,-93.47 -25.43,-63.88 -46.13,-129.64 -61.85,-196.57 -8.87,-37.74 -16.15,-75.85 -21.84,-114.21 l 0.3,-1.98 c -27.76,-7.52 -54.99,-16.97 -81.44,-28.31 -7.4,-3.17 -17.14,-5.95 -22.65,-12.17 -6,-6.77 -3.38,-16.28 -4.99,-24.4 -3.47,-17.45 -16.88,-31.06 -28.05,-44.09 -11.19,-13.04 -21.58,-28.15 -23.49,-45.69 -1.73,-15.83 6.03,-29.89 19.41,-38.13 14.38,-8.84 31.9,-11.43 47.79,-16.39 20.12,-6.28 39.65,-14.29 58.87,-22.93 80.92,-36.39 160.68,-75.61 240.91,-113.51 35.67,-16.85 72.09,-32.71 106.56,-51.96 30.61,-17.1 60.29,-38.07 80.48,-67.26 16.58,-23.96 26.4,-55.59 51.64,-72.38 4.85,-3.23 10,-5.32 15.31,-6.61 0.48,-1.43 1.16,-2.83 2.18,-4.18 3.19,-4.26 8.39,-5.8 12.41,-1.63 1.34,1.39 1.46,3 0.96,4.41 5.69,0.29 11.41,1.3 17.05,2.98 20.91,6.23 41.21,15.47 61.55,23.34 83.58,32.36 167.16,64.72 250.73,97.08 42.18,16.33 84.35,32.66 126.53,48.99 20.7,8.01 41.4,16.03 62.1,24.04 14.21,5.5 28.71,10.69 42.52,17.24 -8.78,-34.49 -1.13,-73.07 2.45,-107.53 4.92,-47.3 9.85,-94.59 14.87,-141.88 40.15,-378.32 85.73,-757.08 170.21,-1128.46 42.69,-187.63 99.72,-370.54 155.83,-554.44 56.06,-183.75 103.49,-369.149 121.07,-560.97 8.78,-95.781 11.19,-192.128 7.22,-288.218 z M 1510.31,633.148 c -6.54,14.153 -18.47,22.942 -32.05,29.852 -5.5,2.809 -11.1,5.441 -16.65,8.16 5.17,21.34 10.32,42.68 14.85,64.11 25.92,122.582 45.01,246.48 62.12,370.56 34.2,247.98 60.17,497.78 117.73,741.83 16.17,68.55 36.11,135.84 55.81,203.43 1.16,3.99 2.32,7.99 3.45,11.99 -11.45,-192.46 -30.78,-384.45 -58.12,-575.3 -27.74,-193.72 -67.63,-384.68 -104.85,-576.678 -17.89,-92.25 -33.62,-185.082 -41.99,-278.731 z m -5.85,-138.328 c -3.48,-18.332 -9.07,-35.968 -18.04,-51.691 4.25,20.07 5.04,40.902 2.8,61.269 -4.38,39.973 -19.53,76.852 -40.9,110.122 3.55,16.089 7.37,32.128 11.24,48.171 15.29,-6.781 32.16,-13.992 40.94,-28.621 4.96,-8.261 7.07,-17.781 8.04,-27.531 -2.74,-37.168 -4.2,-74.437 -4.08,-111.719 z m -27,-52.082 c -1.34,-5.859 -2.91,-12.726 -5.19,-19.406 -4.02,-4.551 -8.53,-8.773 -13.42,-12.742 -29.62,46.531 -28.89,102.832 -20.04,155.73 2.04,12.172 4.43,24.289 6.97,36.371 4.09,-6.73 7.93,-13.632 11.46,-20.73 14.22,-28.57 23.15,-60.231 24.35,-92.191 0.59,-15.77 -0.61,-31.629 -4.13,-47.032 z m -25.5,223.391 c -3.39,-14.09 -6.69,-28.188 -9.83,-42.32 -8.52,12.339 -17.86,24.171 -27.8,35.433 -14.16,16.039 -29.51,30.938 -45.4,45.238 27.68,-12.781 55.35,-25.558 83.03,-38.351 z m -3.54,-270.16 c -7.31,-1.707 -18.68,2.031 -25.98,3.172 -7.48,1.168 -14.95,2.429 -22.39,3.8 -14.89,2.739 -29.71,5.868 -44.43,9.391 -29.45,7.047 -58.52,15.648 -87.08,25.719 -58.33,20.57 -114.43,47.441 -167.04,79.98 -26.06,16.129 -52.46,33.18 -75.61,53.348 -22,19.16 -45.066,44.672 -47.558,75.172 -2.457,30.097 18.356,51.668 33.998,74.801 12.2,18.039 19.16,37.57 18.68,59.488 -0.97,44.371 -24.45,84.269 -34.24,126.769 -5.071,22.02 -5.993,45.61 5.94,65.692 12.33,20.769 34.55,32.609 52.92,47.239 15.94,12.71 29.57,28.31 31.85,49.38 2.86,26.41 -12.42,50.65 -25.55,72.21 -16.1,26.42 -28.78,53.05 -33.89,83.83 -5.22,31.41 -3.51,63.74 1.39,95.08 9.62,61.53 31.21,120.28 48.93,179.75 19.48,65.4 35.37,131.8 50.69,198.27 63.3,274.7 125.86,549.56 188.8,824.33 31.28,136.55 62.56,273.1 93.84,409.65 12.95,56.56 25.51,113.23 38.68,169.74 0.63,-7.09 1.27,-14.11 1.82,-20.98 16.04,-201.01 57.11,-400.02 121.8,-591.01 36.29,-107.16 80.03,-211.7 130.78,-312.8 1.64,-3.28 7.56,-2.72 8.19,1.07 5.56,33.16 9.67,66.36 12.6,99.59 -1.85,-58.43 -4.46,-116.8 -7.64,-175.07 -3.25,-13.29 -6.77,-26.52 -10.47,-39.69 -17.26,-61.5 -35.99,-122.47 -51.21,-184.55 -30.01,-122.35 -51.89,-246.57 -70.56,-371.11 -37.56,-250.59 -61.68,-503.4 -112.81,-751.808 -5.61,-27.274 -12.24,-54.41 -18.81,-81.57 -35.63,17.117 -72.06,32.878 -107.88,49.457 -4.03,1.871 -9.11,-3.309 -5.15,-6.668 36.61,-31.051 72.09,-64.981 98.58,-105.2 -3.45,-16.179 -6.58,-32.41 -9.17,-48.722 -8.73,-55.16 -8.64,-113.52 23.87,-161.34 0.74,-1.09 2.09,-1.887 3.47,-2 -2.71,-2.039 -5.8,-3.578 -9.36,-4.41 z m 266.63,2395.171 c 4.07,-42.08 7.58,-84.22 9.41,-126.61 1.07,-24.76 1.91,-49.53 2.56,-74.32 -3.46,66.96 -8.18,133.96 -11.97,200.93 z m -16.11,159.37 c 0.7,-7.49 1.44,-14.98 2.18,-22.47 3.51,-171.22 23.31,-342.8 21.97,-514.08 -0.57,-73.32 -5.32,-146.59 -16.68,-219.05 -83.41,168.83 -147.53,346.94 -190.33,530.36 -22.28,95.46 -38.88,192.27 -49.48,289.73 -4.12,37.87 -8.5,76.28 -9.95,114.52 0.68,2.84 1.32,5.68 2,8.52 3.7,15.44 7.9,31.68 18.65,43.88 10.74,12.2 26.32,18.26 41.63,22.37 32.96,8.83 67.73,12.82 101.72,14.6 32.26,1.7 64.53,0.53 96.63,-2.95 -1.42,-9.11 -2.72,-18.22 -3.94,-27.33 -23.77,-76.51 -21.71,-159.13 -14.4,-238.1 z m -229.27,272.62 c 10.74,20.72 29.06,35.57 49.21,46.6 36.39,19.9 78.13,32.71 119.27,42.41 3.92,0.46 7.84,0.91 11.77,1.37 19.08,2.25 38.55,3.6 57.43,7.26 8.56,1.66 16.54,4.45 23.94,8.35 27.97,3.38 56.12,5.24 84.32,5.56 -39.14,-29.89 -71.24,-70.45 -90.21,-113.34 -0.62,1.23 -1.78,2.09 -3.49,2.29 -67.43,7.74 -139.19,6.01 -205.1,-11.65 -25.41,-6.81 -46.83,-19.5 -57.5,-44.47 -1.13,-2.64 -2.11,-5.36 -3.12,-8.07 0.4,21.85 3.33,44.1 13.48,63.69 z m 260.29,187.29 c 49.44,40.7 66.84,102.88 83.86,161.98 10.22,35.49 21.57,70.53 38.34,103.54 17.23,33.92 36.8,66.74 55.44,99.9 19.21,34.17 38.41,68.35 57.62,102.52 17.61,31.33 34.79,63.33 59.65,89.65 12.17,12.89 25.56,24.53 38.59,36.51 12.71,11.69 24.96,23.86 36.68,36.54 23.32,25.23 45.04,52.3 63.53,81.3 3.38,5.3 6.61,10.7 9.8,16.12 -1.56,-5.75 -1.97,-11.82 -1.75,-17.97 l -0.76,1.28 c -1.73,2.59 -7.1,1.99 -6.6,-1.79 4.69,-35 -23.1,-64.65 -40.36,-92.17 -18.91,-30.16 -34.8,-62.2 -47.48,-95.46 -25.36,-66.51 -32.28,-141.75 -74.02,-201.2 -9.17,-13.05 -20.03,-25.02 -32.58,-34.88 -13.89,-10.92 -29.93,-18.52 -45.1,-27.43 -27.52,-16.16 -49.04,-39.07 -65.4,-66.35 -34.37,-57.3 -44.04,-124.47 -70.05,-185.27 -6.77,-15.83 -14.69,-31.22 -24.3,-45.53 -9.19,-13.69 -20.2,-26.92 -34.6,-35.35 l -0.47,-0.24 c -32.83,-3.74 -65.46,-9.57 -97.48,-17.6 -4.38,-0.51 -8.75,-1.02 -13.13,-1.53 -7.29,-0.85 -14.57,-1.71 -21.86,-2.57 34.55,43.01 90.54,61.51 132.43,96 z m 438.73,736.53 c -1.25,3.93 -2.53,7.85 -3.7,11.81 5.38,-2.28 10.87,-4.26 16.44,-5.91 -1.76,-1.81 -3.29,-3.86 -4.59,-6.06 -0.85,1.06 -2.68,1.38 -3.66,-0.13 l -0.87,-1.31 c -0.89,1.01 -2.16,1.7 -3.62,1.6 z m -8.24,51.31 c 0.03,-9.3 0.58,-18.57 1.28,-27.84 -10.94,39.79 -17.82,80.66 -19.81,121.92 -2.53,52.44 0.83,105.52 5.49,157.77 1.13,12.72 3.09,25.43 7.88,37.34 l 0.16,0.34 c 9.26,10.68 19.93,20.16 31.28,28.54 51.47,38.04 112.81,60.65 174.98,73.99 64.57,13.86 130.75,18.14 196.61,20.35 75.23,2.53 150.56,1.76 225.71,-2.33 35.48,-1.93 71.08,-4.47 105.93,-11.66 33.21,-6.86 64.89,-18.42 94.43,-35.1 8.4,-4.75 16.57,-9.88 24.56,-15.29 8.77,-8.88 17.43,-17.93 28.08,-24.61 3.27,-2.05 6.77,-3.73 10.4,-5.05 4.71,-4.09 9.36,-8.26 13.9,-12.55 24.27,-22.94 46.26,-48.26 50.24,-82.71 1.95,-16.8 0.64,-33.81 -1.41,-50.53 -2.18,-17.79 -4.8,-35.54 -7.44,-53.27 -5.31,-35.55 -11.63,-71.07 -21.77,-105.6 -10.15,-34.55 -24.62,-67.45 -41.41,-99.27 -7.5,-14.23 -14.97,-28.74 -24.01,-42.07 -4.25,-6.27 -9.04,-12.2 -14.69,-17.26 -4.65,-4.17 -14.65,-12.74 -21.31,-9.68 -5.62,2.58 -8.51,12.9 -10.28,18.29 -1.99,6.05 -3.36,12.31 -4.25,18.61 -0.17,1.23 -0.24,2.46 -0.38,3.69 0.98,15.86 0.99,31.81 -0.3,47.62 1.16,22.74 2.68,46.1 -3.6,68.11 -3.3,11.59 -9.03,22.15 -17.13,31.08 -2.51,2.78 -7.14,-0.14 -6.17,-3.59 0.43,-1.5 0.79,-3.03 1.2,-4.54 -17.71,34.1 -43.14,64.61 -71.47,90.13 -64.22,57.85 -146.91,93.06 -231.04,109.91 -51.95,10.41 -105.67,14.8 -158.4,8.05 -50.44,-6.46 -98.73,-23.09 -144.94,-43.88 -22.25,-10.01 -44.19,-20.85 -65.65,-32.46 -1.67,-0.89 -3.3,-1.85 -4.96,-2.77 l 0.17,2.33 c 0.26,3.98 -5.18,4.87 -7.1,1.92 -2.69,-4.15 -5.18,-8.38 -7.58,-12.65 -12.33,-7.45 -24.27,-15.52 -35.26,-24.86 -15.99,-13.56 -29.93,-29.96 -38.7,-49.14 -10.2,-22.31 -13.31,-46.95 -13.24,-71.28 z m -16.83,-27.04 c -4.58,17.59 -8.97,35.24 -13.04,52.96 -8.23,35.89 -14.97,72.25 -16.5,109.12 -1.46,35.1 1.67,71.08 13.14,104.46 4.09,11.94 9.42,23.54 16.22,34.19 -4.05,-18.77 -4.18,-38.66 -5.41,-57.53 -1.79,-27.31 -3.26,-54.65 -3.39,-82.02 -0.24,-52.75 5.24,-105.66 19.63,-156.53 2.88,-10.21 6.19,-20.29 9.7,-30.3 -10.88,-1.64 -18.31,17.79 -20.35,25.65 z m 833.75,403.32 c -10.43,5.4 -21.14,10.29 -32.13,14.52 -34.05,13.13 -70.21,19.49 -106.39,23.13 -38.15,3.84 -76.6,5.28 -114.91,6.42 -39.42,1.16 -78.87,1.47 -118.3,0.86 -70.75,-1.1 -141.99,-3.86 -211.91,-15.41 -32.53,-5.37 -64.93,-12.88 -96.27,-23.37 2.43,0.92 4.86,1.84 7.29,2.72 58.83,21.3 120.53,34.07 181.68,46.66 72.06,14.84 145.16,27.15 218.95,27.11 63.02,-0.05 126.3,-9.57 184.97,-33.18 28.08,-11.3 54.94,-25.79 79.38,-43.66 2.58,-1.89 5.12,-3.84 7.64,-5.8 z m -761.26,4.58 c 28.37,38.6 58.89,76.05 94.83,107.91 33.63,29.81 72.27,54.9 115.09,69.21 48.04,16.06 99.05,16.39 149.07,12.99 91.37,-6.19 182.74,-25.51 267.01,-61.84 41.79,-18.01 81.79,-40.28 118.62,-67.02 33.7,-24.46 66.76,-54.49 83.32,-93.59 2.97,-7.03 5.24,-14.28 6.95,-21.69 l -2.18,0.79 c -5.6,4.76 -11.28,9.45 -17.11,13.93 -4.9,3.76 -9.91,7.37 -14.98,10.89 -9.16,9.05 -18.38,17.94 -28.44,26.07 -23.72,19.17 -50.01,34.97 -77.81,47.46 -56.47,25.4 -118.4,37.72 -180.09,40.15 -74.09,2.91 -147.97,-7.54 -220.52,-21.61 -63.56,-12.33 -127.78,-25.2 -189.38,-45.41 -52.79,-17.32 -104.34,-41.27 -146.65,-77.74 13.8,20.03 27.87,39.9 42.27,59.5 z m 867.52,-863.37 c 8.85,-27.23 18.99,-54.1 31.43,-79.91 13.97,-29 32.01,-55.48 48.39,-83.12 35.27,-59.52 46.32,-125.89 55.84,-193.41 1.5,-10.64 2.97,-21.36 4.2,-32.12 -29.88,16.41 -69.13,25.86 -100.53,16.56 l 0.24,1.89 c 12.97,16.98 20.75,37.14 23.05,58.53 2.86,26.61 -2.13,53.65 -5.97,79.92 -7.14,48.83 -18.54,97.99 -50.65,136.89 -15.59,18.87 -34.42,34.43 -52.66,50.61 -17.02,15.09 -33.86,31.22 -44.58,51.57 -12.47,23.67 -13.85,51.21 -16.14,77.34 -2.51,28.56 -4.51,57.16 -5.99,85.79 -1.43,27.55 -3.15,55.06 1.72,82.37 3.03,17 7.58,35.15 6.31,52.71 56.44,-92.65 72.13,-203.44 105.34,-305.62 z m -577.69,-629.01 c 0.43,3.41 1,6.8 1.67,10.17 1.35,6.84 3.15,13.59 5.33,20.21 4.46,13.51 10.64,26.38 17.95,38.57 14.9,24.82 34.39,46.61 55.61,66.18 45.91,42.33 99.83,76.37 154.76,105.68 56.94,30.39 116.45,55.01 176.5,78.47 30.03,11.73 60.07,23.77 88.51,39.06 13.39,7.2 26.96,14.88 38.87,24.41 9.83,7.86 19.22,18.29 21,31.22 1.99,14.43 -6.74,26.39 -17.63,34.81 -13.64,10.53 -30.05,18.03 -46.59,22.68 -17.6,4.95 -35.96,4.69 -53.65,8.96 -14,3.38 -28.19,11.31 -33.02,25.29 63.17,17.38 128.6,-21.02 161.62,-74.28 18.8,-30.34 29.26,-65.1 34.42,-100.24 2.63,-17.92 4.01,-36.18 4.05,-54.3 0.01,-8.37 -0.82,-16.4 -2.97,-23.92 -15.03,-7.07 -27.44,-19.45 -34.95,-38.66 -6.45,-3.46 -13.17,-6.43 -19.83,-9.14 -18.72,-7.64 -37.71,-14.68 -56.57,-21.99 -39.88,-15.45 -79.75,-30.89 -119.62,-46.34 -79.74,-30.89 -159.48,-61.78 -239.22,-92.67 -19.94,-7.72 -39.87,-15.44 -59.81,-23.17 -19.37,-7.5 -38.95,-16.98 -59.17,-21.92 -6.07,-1.48 -11.95,-1.88 -17.57,-1.24 z m -314.72,926.79 c 5.89,-14.52 13.77,-27.95 24.1,-39.76 1.97,-2.25 5.63,-0.91 6.42,1.69 0.44,1.47 0.8,2.96 1.22,4.43 -3.11,-40.78 -5.65,-81.85 -0.38,-122.48 3.12,-23.99 9.08,-47.49 19.09,-69.56 9.6,-21.17 22.66,-40.52 36.91,-58.81 2.49,-3.21 5.07,-6.34 7.64,-9.49 7.83,-27.56 15.4,-57.15 13.21,-85.77 -76.38,12.56 -154.77,10.71 -230.48,-5.48 -8.4,-1.8 -16.75,-3.81 -25.06,-5.96 10.29,68.73 25.67,136.68 46.08,203.11 10.25,33.36 21.74,66.33 34.47,98.82 12.87,32.87 27.71,64.74 42.12,96.94 5.02,11.22 9.64,23.39 12.58,35.8 2.68,-14.85 6.4,-29.48 12.08,-43.48 z m 16.05,186.04 c -1.5,-13.16 -2.7,-26.34 -3.85,-39.53 l -0.54,0.22 c -4.78,0.89 -9.35,0.19 -13.42,-1.65 -6.68,1.68 -13.26,3.78 -19.67,6.44 -1.96,23.46 -2.97,47.4 1.38,70.65 4.14,22.11 13.55,42.41 28.3,59.43 11.88,13.73 26.04,25.09 41.22,35.14 -19.69,-40.65 -28.3,-85.88 -33.42,-130.7 z m 18.92,-61.96 c -3.15,-7.15 -5.66,-14.58 -7.3,-22.21 -3.31,-15.51 -2.8,-36.16 -14.43,-48.4 -5.26,15.77 -7.19,32.5 -5.26,49.08 0.96,8.19 2.43,17.35 6.42,24.69 1.49,2.73 3.71,5.1 6.21,6.41 2.75,-0.23 5.51,-0.4 8.28,-0.48 l 1.59,-1.29 c 2.05,-2.16 3.46,-4.89 4.49,-7.8 z m 14.47,32.42 c -1.04,-0.04 -2.1,-0.72 -2.23,-2.04 -0.32,-3.32 -0.61,-6.64 -0.91,-9.96 -0.74,-1.08 -1.44,-2.18 -2.14,-3.28 -4.54,-0.34 -9.08,-0.47 -13.61,-0.39 -3.53,1.62 -7.4,1.74 -10.97,0.59 l -0.59,0.04 c 4.53,52.97 9.61,107.08 29.85,156.75 3.7,9.07 8.05,17.81 12.9,26.28 l 0.45,0.26 c -4.65,-56.05 -8.65,-112.16 -12.75,-168.25 z m 709.78,-5.12 c 1.38,-10.43 2.37,-20.9 2.99,-31.4 0.47,-7.91 1.27,-16.27 -1.13,-23.96 -2.74,-8.76 -10.29,-11.93 -18.52,-7.36 -7.66,4.25 -13.39,11.97 -18.54,18.85 -9.45,12.6 -18.56,25.88 -33.19,32.9 -24.22,11.63 -52.06,6.77 -78.14,6.26 -7.49,1.86 -15.15,3.27 -22.92,4.19 -4.75,0.57 -9.55,0.9 -14.36,1.13 -2.76,1.18 -5.44,2.58 -7.96,4.32 -13.98,9.68 -19.13,26.33 -20.21,42.58 -1.4,21.13 1.58,42.69 3.11,63.74 1.81,24.79 3.54,49.59 5.56,74.37 0.33,4.04 -5.23,4.06 -6.52,0.88 -21.09,-52.26 -32.41,-108.13 -34.13,-164.43 -84.5,21.22 -171.43,36.88 -258.33,43.52 -41.79,3.19 -84.9,2.76 -125.11,-10.43 -28.16,-9.24 -54.61,-25.47 -74.34,-47.75 4.44,56.88 9,113.77 12.84,170.7 15.06,8.49 30.61,16.12 45.75,23.56 44.91,22.05 91.64,41.21 140.75,51.5 51.02,10.69 103.7,10.19 155.11,2.56 84.87,-12.6 169.35,-42.67 237.63,-95.61 33.86,-26.25 63.58,-58.32 85.39,-95.3 9.96,-16.87 17.31,-34.62 22.47,-52.93 0.64,-3.96 1.27,-7.92 1.8,-11.89 z m 4.71,17.52 c -1.43,8.36 -3.07,16.69 -4.98,24.96 4.54,-10.53 6.59,-22.03 7.38,-33.72 -0.74,2.94 -1.54,5.85 -2.4,8.76 z m 5.47,-134.92 c 0.81,-12.52 0.97,-25.06 0.32,-37.59 -0.53,-10.38 -1.92,-20.66 -2.76,-30.99 -1.47,-6.09 -3.08,-12.09 -4.86,-17.85 -11.09,-35.95 -30.1,-69.49 -55.13,-97.57 -11.76,-13.2 -24.88,-25.11 -39.07,-35.63 6.92,14.92 21.69,25.56 33.27,36.91 16.08,15.79 27.6,35.28 36.21,55.98 8.78,21.11 14.63,43.3 20.02,65.48 4.91,20.23 9.01,40.66 12,61.26 z m -223.03,-673.28 c 5.67,7.48 7.64,16.68 7.59,25.94 -0.04,5.07 -0.46,10.07 -1.14,15.02 38.12,59.64 81.56,115.71 129.87,167.44 1.65,1.78 1.44,4.79 -0.78,6.03 -18.67,10.51 -37.81,20.14 -57.33,28.91 19.7,-6.59 39.19,-13.8 58.44,-21.67 6.53,-2.68 13.05,-5.4 19.51,-8.25 5.84,-2.57 12.27,-5.3 15.81,-10.92 6.01,-9.53 0.87,-21.53 -4.4,-30.13 -6.69,-10.94 -16.12,-19.86 -24.87,-29.12 -9.88,-10.46 -19.77,-20.93 -29.66,-31.4 -19.23,-20.35 -38.42,-40.75 -57.7,-61.07 -17.77,-18.72 -35.93,-37.35 -56.61,-52.91 l -1.86,-1.34 c 1.09,1.12 2.18,2.22 3.13,3.47 z m -4.52,266.21 c 45.82,-14.13 90.02,-32.89 131.99,-56.12 -45.44,-49.09 -86.6,-102.02 -123.03,-158.1 -1.92,8.55 -4.61,16.95 -7.76,25.24 -11.75,62.64 -19.31,127.44 -1.2,188.98 z m -7.44,2.24 c -15.48,-52.57 -12.64,-107.5 -4.26,-161.51 -6.57,13.99 -13.36,27.82 -18.73,41.72 -13.97,36.18 -20.55,81.7 9.11,112.31 l 1.28,1.17 c 3.41,2.29 6.81,4.6 10.09,7.07 z m -121.67,220.89 c 1.05,2.61 1.78,5.36 3.14,7.92 3.33,6.27 11.46,8.16 17.52,5.19 -2.78,-8.38 -11.96,-14.28 -20.66,-13.11 z m -49.81,-8.1 c 3.29,1.57 7.08,2.14 11.39,1.44 4.01,-0.65 7.9,-1.76 11.81,-2.61 -4.92,0.03 -9.84,0.14 -14.76,0.45 -2.81,0.17 -5.63,0.45 -8.44,0.72 z m -84.78,-86.45 c 6.4,4.82 12.22,10.4 18.82,14.96 6.18,4.28 12.96,7.37 20.23,9.27 31.14,8.16 62.76,-4.74 89.24,-20.38 8.07,-4.76 15.94,-9.85 23.83,-14.91 -49.48,11.52 -101.55,7.85 -152.12,11.06 z m -44.67,5.33 c 15.82,5.33 31.64,10.67 47.45,16.03 9.75,3.31 19.52,7.28 29.61,9.42 1.64,0.35 3.32,0.59 5,0.76 -10.68,-2.9 -20.31,-8.07 -29.22,-15.27 -5.82,-4.71 -12.85,-11.06 -20.44,-15.31 -10.87,0.97 -21.69,2.34 -32.4,4.37 z m 33.12,-12.26 c 45.77,-3.86 92.22,-0.73 137.84,-7.11 9.43,-1.32 18.79,-3.14 28.01,-5.45 -21.67,-17.81 -48.93,-28.74 -76.91,-30.8 -27.81,-2.05 -55.68,4.8 -79.6,19.07 -9.57,5.71 -18.33,12.58 -26.22,20.39 5.73,-0.1 11.49,1.44 16.88,3.9 z m -224.04,267.65 c 7.79,-23.99 21.85,-45.91 40.33,-63.05 24.65,-22.85 56.7,-36.21 90.2,-38.36 l 1.41,-0.03 c 1.7,-0.21 3.41,-0.41 5.12,-0.55 27.11,-2.19 53.76,5.04 76.15,19.76 6.18,3.35 12.25,6.92 18.1,10.78 14.3,9.45 28.22,20.03 38.85,33.61 10.8,13.8 16.94,30.02 19.1,47.34 1.07,8.56 1.18,17.2 0.63,25.8 1.18,3.27 2.38,6.54 3.53,9.82 2.9,-27.3 2.56,-55.12 -1.21,-82.22 -2.26,-16.25 -5.74,-32.35 -10.46,-48.06 -3.87,-12.9 -9.28,-26.57 -21.97,-33.05 -11.5,-5.86 -26.16,-6.61 -34.39,-17.68 -6.11,-8.23 -8.3,-22.11 1.99,-28.15 12.83,-7.53 24.27,6.28 36.98,5.7 2.23,-0.1 4.59,-0.71 5.98,-2.59 2.04,-2.77 1.98,-6.52 4.3,-9.25 4.4,-5.19 12.32,-6.05 18.57,-7.29 3.93,-0.78 7.88,-1.43 11.83,-2.03 -6.39,-11.65 -5.44,-26.85 -8.05,-39.88 -0.3,-1.5 -0.55,-3.68 -1.4,-5.04 -1.38,-2.18 -3.7,-0.81 -5.63,-0.04 -4.74,1.9 -9.39,3.01 -14.54,2.86 -10.39,-0.3 -20.37,-4.25 -30.12,-7.48 -23.43,-7.75 -46.87,-15.48 -70.27,-23.33 -3.53,-1.19 -3.99,-6.66 0,-7.63 5.73,-1.41 11.49,-2.54 17.26,-3.56 -0.36,-1.19 -0.2,-2.57 0.76,-3.73 18.59,-22.2 44,-38.45 71.86,-46.31 28.73,-8.1 59.71,-6.69 87.72,3.58 16.06,5.88 30.89,14.5 43.96,25.52 l 1.18,2.19 c 5.22,-1.5 10.39,-3.13 15.49,-5.03 4.13,-1.53 6.67,4.9 2.96,7.02 -28.6,16.32 -54.93,37.78 -86.62,48.06 -8.71,2.82 -17.86,4.77 -27.07,5.52 2.16,4.73 2.45,11.13 2.87,15.4 0.92,9.33 1.03,19.17 5.58,27.63 0.62,1.16 1.3,2.21 2.02,3.2 12.03,-1.47 24.15,-2.21 36.26,-2.01 6.59,0.11 16.87,-0.76 20.74,6.06 0.55,0.98 0.81,2.1 0.91,3.25 12.7,-0.74 25.39,8.43 27.09,21.76 0.15,1.19 -0.76,2.24 -1.65,2.87 -5.84,4.13 -13.65,4.39 -20.03,1.36 -3.01,-1.42 -5.64,-3.63 -7.49,-6.41 -2.14,-3.2 -2.69,-7.16 -4.5,-10.49 l -1.11,0.06 c -2.24,-0.25 -3.9,-2.57 -3.47,-4.53 -5.51,-2.64 -13.29,-0.63 -18.65,0.83 -9.1,2.47 -18.73,4.24 -26.99,-1.56 -1.61,-1.13 -2.98,-2.37 -4.25,-3.67 -1.67,0.23 -3.35,0.4 -5.01,0.67 -6.9,1.1 -14.41,1.98 -20.99,4.41 -3.13,1.17 -4.32,2.93 -5.33,6.04 -0.87,2.7 -1.96,5.23 -4.09,7.18 -3.78,3.46 -9.21,4.11 -14.1,3.5 -5.95,-0.73 -10.92,-3.51 -16.46,-5.57 -4.74,-1.76 -12.2,-3.7 -15.18,1.95 -1.99,3.78 -0.56,8.79 1.37,12.29 2.75,5 7.16,7.8 12.32,9.98 5.92,2.5 12.17,4.11 18.04,6.76 5.8,2.61 10.85,6.39 14.84,11.35 7.87,9.82 11.5,22.28 14.68,34.24 3.82,14.32 6.6,28.89 8.47,43.58 3.87,30.45 3.19,61.07 -1.76,91.29 1.71,4.44 4.11,8.65 8.39,10.32 3.94,1.55 8.88,0.76 13.02,0.56 5.29,-0.26 10.59,-0.61 15.88,-1.04 16.03,-1.29 31.99,-3.31 47.85,-6.02 -11.47,-22.11 -16.76,-47.45 -13.17,-72.24 0.97,-6.76 2.66,-13.3 4.87,-19.63 2.02,-13.79 5.37,-27.37 10.13,-40.46 5.58,-15.33 13.26,-30.13 25.19,-41.49 11.1,-10.56 24.74,-17.74 38.8,-23.52 15.26,-6.27 31.16,-11.55 47,-16.14 16.91,-4.89 34.56,-8.13 52.18,-5.93 16.12,2.01 31.37,7.78 45.67,15.34 14.65,7.74 28.28,17.23 41.8,26.78 9.58,6.77 19.34,13.8 27.14,22.62 -15.05,-37.7 -33.55,-73.96 -53.22,-109.44 -11.78,-21.25 -23.98,-42.26 -36.19,-63.26 -11.69,-20.13 -23.48,-40.27 -37.09,-59.18 -12.77,-17.74 -27.4,-34.18 -44.39,-47.99 -0.94,-0.47 -1.9,-0.9 -2.81,-1.41 -2.47,0.53 -4.22,-1.04 -4.74,-2.92 -3.6,-2.42 -6.82,-5.3 -9.88,-8.35 -12.04,-7.9 -24.8,-14.73 -37.98,-20.49 -39.63,-17.32 -82.82,-25.63 -125.51,-31.05 -22.1,-2.8 -44.47,-5.62 -66.76,-5.74 -24.09,-0.13 -47.59,4.19 -67.77,17.97 -20.07,13.7 -36.98,32.65 -53.42,50.36 -17.06,18.38 -33.68,37.19 -50.07,56.16 -5.09,5.89 -10.08,11.86 -14.94,17.91 l -0.52,1.7 c -0.4,1.29 -1.39,1.9 -2.43,2 -23.06,29.27 -42.51,60.82 -51.84,97.64 -11.9,46.95 -9.46,96.14 -6.07,144.01 1.33,18.78 2.63,37.55 3.95,56.33 z m 1.49,103.79 c -0.41,1.97 -0.91,3.91 -1.53,5.77 0.77,1.63 1.62,3.25 2.5,4.85 -0.33,-3.54 -0.65,-7.08 -0.97,-10.62 z m 72.15,-181.47 c -22.77,12.17 -41.69,30.72 -54.69,52.99 8.53,-10.54 18.01,-20.34 27.44,-29.54 8.56,-8.35 17.57,-16.38 27.25,-23.45 z m 207.36,89.76 c -1.86,-16.85 -7.4,-32.99 -18.84,-46.71 -4.14,-4.97 -8.82,-9.44 -13.69,-13.68 11.76,15.65 21.06,33.25 28.79,51.12 1.32,3.06 2.48,6.18 3.74,9.27 z m -53.05,78.61 c 3.19,-3 6.12,-6.28 8.46,-10.15 3.81,-6.32 6.24,-13.74 6.37,-21.15 -3.34,11.17 -7.83,22.2 -14.83,31.3 z m -65.89,-20.48 c -3.13,5.6 -3.42,12.87 -1.28,19.14 1.49,-0.43 3.19,0.37 4.01,1.61 2.73,4.1 6.53,7.4 10.85,9.81 7.06,-0.3 14.1,-1.03 21.04,-2.2 4.36,-0.74 8.69,-1.63 12.97,-2.7 1.25,-0.31 2.51,-0.64 3.78,-0.96 2.88,-3.88 4.73,-8.59 5.07,-13.85 0.79,-12.35 -5.67,-23.89 -18.22,-26.76 -14.03,-3.2 -31.06,3.08 -38.22,15.91 z m -35.41,36.82 c 16.56,5.43 34.58,6.2 51.86,3.8 l 2.1,-0.35 -2.42,-0.81 -1.48,-0.05 -0.33,0.05 -2.49,-0.13 c -1.03,-0.05 -2.06,-0.1 -3.08,-0.17 -14.72,-0.79 -29.44,-1.57 -44.16,-2.34 z m 7.9,-9.66 c 6.93,0.23 13.89,-1.31 20.13,-4.51 -2.25,-5.3 -3.04,-11.27 -2.01,-17.04 1.91,-10.63 9.43,-18.77 18.76,-23.75 -11.36,3.51 -24.31,8.09 -34.49,15.32 -1.79,1.32 -3.53,2.7 -5.22,4.16 -6.27,5.72 -10.73,12.9 -12.03,22 1.43,0.44 2.87,0.88 4.31,1.28 3.48,0.97 7.01,1.79 10.55,2.54 z m -72.09,54.86 c 29.07,18.42 63.96,25.84 98.1,24.45 16.81,-0.69 35.83,-2.35 50.7,-10.89 12.07,-6.93 19.64,-19.4 21.17,-33.17 0.75,-6.7 0.09,-13.52 -2.11,-19.91 -1.06,-3.07 -2.51,-6.06 -4.35,-8.75 l -1.53,-1.74 -1.91,1.29 c -10.69,6.67 -23.01,10.53 -35.32,12.88 -12.83,2.44 -26.04,3.41 -39.07,2.18 -14.8,-1.39 -29.18,-5.49 -42.04,-13.03 -1.73,-1.01 -2.02,-3.2 -1.24,-4.78 -2.97,-0.83 -1.59,-5.45 1.57,-4.89 1.19,0.21 2.4,0.36 3.59,0.56 -5.79,-6.13 2.06,-14.49 6.01,-19.23 3.38,-4.05 7.21,-7.66 11.21,-11.08 1.43,-1.36 2.91,-2.67 4.47,-3.88 1.68,-1.3 3.42,-2.49 5.19,-3.62 10.97,-7.29 23.42,-12.33 36.37,-14.68 3.58,-0.64 5.48,3.23 3.89,5.56 4.54,-1.69 9.3,-2.7 13.93,-2.91 9.11,-0.41 18.72,2.03 25.31,8.61 5.09,5.08 7.98,11.96 8.88,19.03 0.37,2.9 0.29,5.77 -0.02,8.59 1.87,-2.96 3.58,-6.04 5.04,-9.2 4.41,-9.51 7.2,-19.72 9.69,-29.87 0.64,-2.6 5,-3.55 6.17,-0.81 8.67,20.33 -0.6,41.91 -16.51,55.37 3.04,3.31 5.05,7.91 6.5,11.85 4.75,12.88 3.58,27.58 -2.14,39.93 -6.75,14.6 -19.95,23.56 -35.07,28.03 -16.85,4.98 -35.31,6.21 -52.8,5.68 -2.57,-0.08 -5.14,-0.32 -7.72,-0.5 3.46,0.43 6.92,0.85 10.39,1.14 17.98,1.54 36.9,2.78 54.2,-3.3 14.23,-5.01 26.51,-14.62 36.33,-25.91 11.27,-12.95 19.15,-28.63 25.02,-44.66 5.94,-16.21 10.47,-33.11 13.77,-50.05 1.8,-9.27 3.06,-18.82 3.47,-28.35 -1.49,-4.18 -3.02,-8.34 -4.63,-12.47 -5.47,-14.06 -11.65,-27.87 -19.03,-41.05 -10.24,-18.27 -23.1,-35.3 -39.27,-48.5 -13.31,-8.16 -27.45,-15.03 -42.55,-19.18 -18.29,-5.03 -37.64,-6.06 -56.47,-3.46 -5.73,1.39 -11.36,3.2 -16.8,5.48 -16.15,6.79 -30.27,17.59 -43.12,29.33 -12.25,11.19 -24.01,23.12 -34.52,35.96 -8.11,9.91 -15.4,20.78 -20.81,32.34 -0.79,3.1 -1.41,6.23 -1.96,9.39 1.38,14.27 2.05,28.6 1.83,42.94 0.38,5.42 0.76,10.84 1.14,16.26 0.43,1.42 0.79,2.85 1.27,4.26 9.75,28.52 30.48,52.74 55.78,68.76 z m 393.95,-286.25 c -2.79,1.09 -5.58,2.18 -8.33,3.35 -13.02,5.55 -25.66,12.59 -35.64,22.77 -10.74,10.95 -17.45,25.09 -22.37,39.45 -0.56,1.64 -1.04,3.32 -1.56,4.98 7.41,-11.44 16.17,-22.1 25.23,-32.05 12.81,-14.08 26.89,-27.61 42.67,-38.5 z m 96.28,159.57 c 5.03,-2.14 9.87,-4.8 14.47,-8.02 -4.86,2.12 -9.58,4.73 -14.24,7.46 z m -61.33,0.51 c 2.4,2.59 6.68,3.8 9.9,4.96 1.8,0.65 3.63,1.23 5.47,1.76 10.2,-0.6 20.28,-2.99 29.55,-7.44 3.69,-1.78 7.28,-3.78 10.86,-5.81 1.26,-9.21 -7.23,-17.91 -15.76,-21.6 -10.35,-4.47 -22.4,-2.93 -31.2,4.15 -4.76,3.82 -8.77,9.19 -10.22,15.18 -0.72,2.95 -0.79,6.45 1.4,8.8 z m 29.52,-37.58 c 13.59,0.75 27.76,9.05 32.38,22.36 0.55,1.58 0.86,3.13 1.02,4.66 8.83,-4.9 17.86,-9.24 28.28,-10.12 l 0.68,0.06 c -9.27,-6.87 -19.35,-12.69 -30.01,-17.08 -11.77,-4.86 -24.5,-8.54 -37.35,-7.93 -11.56,0.54 -22.74,5.25 -29.32,15.1 -4.52,6.77 -6.4,15.16 -3.68,22.65 0.51,-4.02 2.18,-7.99 4.18,-11.32 6.95,-11.59 20.23,-19.13 33.82,-18.38 z m 75.81,123.96 -0.52,0.15 c -17.17,4.81 -34.78,8.05 -52.53,9.7 -28.22,2.63 -65.38,4.37 -84.87,-20.5 -4.99,-6.36 -8.34,-13.69 -11.44,-21.11 -3.52,-8.42 -6.67,-17 -9.45,-25.7 -3.38,-10.58 -11.95,-33.94 5.97,-36.65 7.42,-1.12 15.34,2.64 22.25,4.82 4.72,1.5 9.44,2.99 14.16,4.48 -4.04,-5.37 -6.34,-11.91 -5.71,-19.04 1.1,-12.55 9.46,-24.22 20.56,-30.01 15.43,-8.03 34.03,-5.95 50.02,-0.86 17.28,5.51 33.25,14.41 47.38,25.72 3.62,2.9 -1.51,7.96 -5.1,5.09 l -1.44,-1.07 c 0.67,1.49 0.55,3.43 -0.61,4.68 -9.85,10.67 -22.51,18.12 -36.16,22.82 2.15,1.39 3,4.74 0.08,6.09 l -0.87,0.35 v 0.02 l -0.07,0.01 c -16.27,7.2 -34.48,7.04 -51.86,5.08 -15.74,-1.77 -33.5,-3.62 -45.07,-15.7 -1.28,-1.34 -1.3,-3.16 -0.56,-4.56 -2.48,-0.68 -5.14,-1.12 -7.39,-0.13 -6,2.62 -2.7,12.36 -1.42,16.9 2.35,8.37 5.06,16.64 8.1,24.78 5.2,13.96 10.81,29.66 23.83,38.21 11.25,7.38 25.19,9.48 38.39,9.83 32.94,0.87 66.48,-5.2 97.56,-15.89 4.09,-1.4 8.29,-2.89 12.44,-4.57 14.24,-12.42 25.68,-28.03 33.8,-45.15 l 0.09,-0.21 c 0.15,-4.18 0.1,-8.37 0.03,-12.4 -1.14,-58.82 -14.45,-122.97 -62.89,-161.45 -21.25,-16.88 -48.21,-27.38 -75.59,-25.4 -28.74,2.08 -54.39,17.93 -75.45,36.64 -10.91,9.69 -21.03,20.33 -30.47,31.45 -9.79,11.53 -18.7,23.92 -25.37,37.53 -2.34,4.78 -4.17,9.69 -5.74,14.64 -2.09,16.06 -2.1,32.36 0.89,48.22 2.62,13.87 7.45,27.12 14.77,39.2 1.17,1.94 0.19,4.94 -2.08,5.61 9.11,14.37 21.13,26.91 35.16,36.54 23.86,16.37 52.42,25.02 81.17,26.86 7.56,0.48 15.25,0.54 22.96,0.17 5.58,-2 11.47,-3.28 17.47,-3.95 5.31,-0.6 10.65,-0.78 15.99,-0.76 10.24,-2.48 20.21,-5.89 29.59,-10.48 z m 121.63,-60.23 c -14.12,-16.86 -22.13,-37.28 -28.26,-58.16 -3.69,-12.55 -7.05,-25.15 -10.65,-37.69 0.09,1.44 0.19,2.88 0.26,4.31 0.89,17.63 -0.17,35.36 -3.49,52.71 -2.51,13.11 -6.58,25.93 -12.05,38.11 -0.13,1.95 -0.17,3.91 -0.39,5.84 -0.88,7.84 -2.81,15.64 -7.08,22.37 -3.89,6.11 -9.33,11.01 -15.37,14.94 -4.5,2.92 -9.35,5.39 -14.36,7.58 -10.9,9.29 -23.11,16.34 -36.14,21.58 2.35,0.11 4.69,0.22 7.03,0.3 15.2,0.52 31.4,0.52 45.56,-5.81 16.59,-7.42 25.52,-23.39 36.44,-36.98 8.83,-11 26.87,-27.52 40.46,-13.3 0.87,0.91 1.61,1.91 2.29,2.94 0.11,-5.69 0.44,-11.35 1.08,-16.98 l -0.11,-1.69 c -1.47,1.25 -3.89,1.52 -5.22,-0.07 z m -60.5,-140.72 c -9.16,-11.46 -21.8,-19.69 -33.7,-28 -16.86,-11.78 -34.9,-23.85 -54.5,-30.99 1.02,0.45 2.05,0.81 3.05,1.28 26.83,12.72 48.86,34.65 63.32,60.41 16.13,28.73 23.66,61.35 26.7,93.93 0.64,6.87 1.2,13.93 1.56,20.99 7.2,-23.64 9.09,-48.86 7.36,-73.43 -1.11,-15.68 -3.71,-31.58 -13.79,-44.19 z m 29.06,42.49 c 6.3,21.55 10.82,43.83 19.82,64.49 3.69,8.45 8.2,16.53 13.7,23.92 0.7,-1.44 1.34,-2.91 1.97,-4.38 -1.79,-17.31 -4.6,-34.52 -8.09,-51.56 -4.64,-22.69 -10.09,-45.37 -17.07,-67.46 -6.65,-21.05 -15.17,-41.74 -27.91,-59.88 -6.2,-8.83 -13.51,-16.6 -21.43,-23.89 -6.51,-6 -13.23,-11.88 -19.1,-18.53 11.81,22.31 22.97,44.96 32.93,68.17 9.69,22.54 18.28,45.57 25.18,69.12 z M 2731.26,4217 c 0.44,-16.84 4.03,-34.33 16.02,-46.91 1.57,-1.64 3.25,-3.09 4.98,-4.46 -51.36,-1.38 -102.65,-22.78 -130.95,-67.41 -0.59,-0.92 -1.08,-1.9 -1.65,-2.84 -16.32,2.85 -32.77,5.03 -49.29,6.26 -9.18,0.69 -18.95,1.97 -28.15,1.13 -6.22,-0.57 -10.95,-3.54 -14.32,-8.22 -1.28,0.54 -3.23,-0.55 -2.93,-2.41 l 0.3,-2.15 c -1.31,-2.81 -2.39,-5.73 -3.38,-8.7 -0.47,3.17 -0.98,6.34 -1.57,9.48 -3.28,17.52 -7.93,35.03 -14.05,51.78 -11.48,31.45 -31.21,61.88 -63.29,75.11 -17.45,7.2 -36.46,6.66 -54.94,5.27 -18.25,-1.36 -36.63,-4.06 -54.07,-9.77 -34.03,-11.15 -62.15,-34.65 -83.96,-62.61 -3.13,-4.01 -6.09,-8.17 -8.88,-12.44 0.18,3.14 0.39,6.28 0.55,9.43 l 1.51,0.14 c 2.22,0.28 3.71,1.56 3.89,3.88 0.25,3.28 0.51,6.55 0.76,9.82 16.67,21.16 39.62,37.47 64.3,47.76 38.11,15.88 80.53,17.99 121.26,15.84 43.38,-2.3 86.75,-8.34 129.6,-15.27 49.1,-7.94 97.69,-18.26 145.87,-30.57 2.26,-0.57 4.41,1.09 4.46,3.4 1.14,49.06 9.9,97.57 25.41,144.02 -1.19,-15.81 -2.41,-31.62 -3.64,-47.42 -1.59,-20.59 -4.37,-41.47 -3.84,-62.14 z m -295.41,-943.14 c -1.24,0.19 -2.48,0.37 -3.72,0.66 -23.87,5.56 -43.53,24.41 -62.64,38.7 -21.39,15.98 -43.05,31.6 -64.97,46.84 -43.21,30.05 -87.45,58.63 -132.6,85.68 -22.9,13.72 -46.04,27.05 -69.41,39.96 -22.21,12.27 -45.1,23.39 -67.19,35.84 -10.51,5.93 -21.62,14.25 -22.58,27.33 -1.01,13.76 12.47,18.52 22.99,22.79 24,9.74 48.78,17.49 73.9,23.75 51.28,12.77 103.82,19.33 156.31,24.62 10.73,1.09 21.47,2.1 32.2,3.12 -1.49,-8.84 -3.99,-17.56 -7.92,-26.04 -7.88,-17 -20.51,-30.44 -37.65,-38.19 -16.71,-7.57 -35.35,-11.92 -47.23,-27.04 -20.97,-26.72 -12.77,-65.67 6.74,-90.56 24.65,-31.43 63.63,-49.35 96.94,-69.84 18.42,-11.33 36.59,-23.11 53.86,-36.16 17.09,-12.91 32.32,-27.4 47.3,-42.65 7.87,-8.02 16.24,-14.53 25.67,-18.81 z m 277.51,82.92 c -28.99,-17.25 -61.05,-29.26 -93.24,-39.72 12.09,4.72 24.13,9.55 36.1,14.55 19.15,8 38.51,15.97 57.14,25.17 z m -19.03,-0.28 c -42.32,-19.08 -85.45,-36.34 -129.24,-51.74 -21.42,-7.54 -43,-14.71 -64.74,-21.28 l -0.21,-0.06 c -8.58,-2.02 -17.15,-4.08 -25.76,-5.93 -1.55,-0.34 -3.1,-0.67 -4.66,-1 -11.47,-1.26 -22.95,-0.41 -33.43,4.95 -9.16,4.68 -16.46,12.14 -23.53,19.46 -7.09,7.35 -14.28,14.54 -21.93,21.31 -15.59,13.8 -32.4,26.17 -49.7,37.72 -17.42,11.63 -35.38,22.43 -53.35,33.19 -17,10.16 -34.4,20.06 -49.75,32.67 -14.61,12 -27.88,26.81 -33.77,45.1 -5.11,15.85 -5.53,34.33 2.38,49.37 9.34,17.75 27.92,23.06 45.18,30.32 16.1,6.76 29.24,17.05 38.7,31.84 8.31,12.99 12.97,27.12 15.02,41.69 3.49,1.43 4.68,6.84 0.89,8.34 1.56,20.83 -1.69,42.31 -6.93,62.53 -1.13,4.35 -2.38,8.66 -3.63,12.97 9.63,-11.33 19.53,-22.44 29.39,-33.56 17.16,-19.35 34.53,-38.54 53.11,-56.55 17.23,-16.69 35.79,-31.38 59.46,-37.41 22.82,-5.82 46.75,-4.6 69.97,-2.41 43.33,4.08 86.99,9.92 128.71,22.73 20.2,6.2 39.88,14.24 58.3,24.44 -7.85,-13.55 -12.11,-29.46 -12.3,-45.03 -0.52,-43.99 23.97,-82.51 40.27,-121.8 1.54,-3.71 3.06,-7.56 4.54,-11.46 2.22,-11.77 4.57,-23.46 6.93,-35.03 0.31,-1.53 1.44,-2.37 2.73,-2.63 0.42,-4.38 0.62,-8.76 0.33,-13.1 -1.53,-23.46 -24.57,-31.33 -42.98,-39.64 z m 266.77,548.1 c 1.32,-28.18 3.13,-56.33 5.46,-84.43 1.15,-13.84 2.36,-27.69 3.83,-41.5 1.37,-12.85 3.1,-25.76 6.77,-38.18 13.54,-45.91 54.92,-72.18 87.64,-103.65 18.01,-17.33 33.35,-36.71 43.92,-59.46 10.25,-22.08 16.21,-45.95 20.67,-69.79 2.24,-12.01 4.1,-24.09 5.92,-36.16 2.01,-13.37 4.14,-26.76 5.17,-40.25 1.03,-13.6 1.06,-27.44 -1.7,-40.84 -2.44,-11.85 -6.97,-23.23 -13.22,-33.58 l -1.39,-2.1 c 0.45,7.18 0.34,14.43 0.06,21.55 -1.45,36.79 -7.18,73.95 -20.46,108.43 -12.57,32.62 -31.94,63.07 -59.48,85.03 -25.53,20.36 -56.68,34.09 -89.47,36.24 -15.75,1.04 -31.61,-0.9 -46.64,-5.72 -2.58,-0.83 -3.76,-3.19 -3.29,-5.78 0.25,-1.34 0.63,-2.57 0.98,-3.82 -6.52,3.97 -14.25,6.53 -20.9,9.32 -13.29,5.58 -26.71,10.87 -40.23,15.86 -27.05,9.97 -54.54,18.78 -82.35,26.37 -8.84,2.41 -17.73,4.63 -26.64,6.76 0.35,1.07 0.63,2.14 1.01,3.21 l -0.12,2.39 c 3.78,3.35 7.49,6.82 11.04,10.46 32.77,33.56 55.17,75.93 78.44,116.21 7.6,13.15 15.13,26.37 22.51,39.67 l -0.47,-1.91 c -0.49,-3.05 2.63,-6.55 5.76,-4.43 52.69,35.62 92.78,91.09 109.43,152.76 -1.16,-6.94 -2.17,-13.9 -2.62,-20.94 -0.9,-13.9 -0.28,-27.83 0.37,-41.72 z m -779.29,187.01 c -0.8,7.35 -1.49,14.72 -2.12,22.09 -0.79,9.19 -1.68,19.36 2.19,28.03 1.55,3.49 4.09,6.75 7.22,9.1 4.21,-1.01 8.45,-1.83 12.73,-2.48 -4.18,-5.4 -6.16,-12.51 -7.59,-19.01 -5.1,-23.1 -3.28,-47.31 5.26,-69.37 0.72,-1.84 3.19,-3.61 5.16,-2.09 12.58,9.67 15.78,24.78 17.96,39.71 1.42,9.73 3.16,19.19 6,28.34 0.37,-3.18 0.64,-6.38 0.87,-9.59 -1.32,-3.15 -2.55,-6.34 -3.57,-9.62 -4.92,-15.77 -5.5,-32.47 -1.55,-48.52 0.98,-3.97 2.26,-7.81 3.68,-11.6 -0.18,-2.3 -0.35,-4.6 -0.53,-6.9 -2.33,-18.56 -6.16,-36.9 -11.17,-54.92 -17.95,23.24 -26.35,52.03 -31.07,80.75 -1.35,8.2 -2.42,16.44 -3.33,24.7 z M 1940,3574.02 c 2.54,3.25 7.66,4.77 11.28,6.39 4.66,2.09 9.36,4.12 14.07,6.08 17.62,7.33 35.6,13.79 53.84,19.4 73.31,22.56 150.75,31.17 227.23,25.21 6.42,-0.51 12.83,-1.15 19.24,-1.87 -42.42,-4.25 -84.79,-9.31 -126.6,-17.7 -27.23,-5.47 -54.2,-12.37 -80.48,-21.39 -12.17,-4.17 -24.41,-8.6 -36.1,-14 -10.05,-4.63 -18.21,-12.02 -19.08,-23.65 -1.89,-25.46 24.13,-37.53 42.95,-47.32 25.04,-13.02 49.84,-26.5 74.39,-40.43 48.77,-27.66 96.57,-57.01 143.23,-88.09 23.49,-15.64 46.7,-31.71 69.61,-48.2 22.23,-16 43.48,-33.82 66.41,-48.79 10.28,-6.71 21.62,-12.34 33.85,-14.27 13.64,-2.15 27.12,0.71 40.43,3.58 2.69,0.58 5.37,1.21 8.06,1.8 2.43,0.49 4.86,1.03 7.28,1.63 23.43,5.31 46.73,11.17 69.85,17.67 27.84,7.83 55.5,16.43 82.76,26.08 25.16,8.91 50.07,19.02 73.17,32.48 48.08,28.02 84.48,72.11 122.22,112.09 20.74,21.97 41.9,43.61 62.23,65.95 9.84,10.83 21.98,27.79 20.17,43.45 14.42,-10.9 35.98,-14.03 53.28,-16 17.15,-1.96 33.76,-5.99 49.33,-13.58 12.84,-6.26 30.89,-15.66 34.25,-30.98 3.24,-14.75 -9.48,-27.25 -20.22,-35.24 -13.29,-9.87 -28.11,-17.99 -42.81,-25.53 -30.04,-15.4 -61.61,-27.45 -93.02,-39.7 -61.37,-23.95 -121.97,-50.12 -179.6,-82.16 -54.96,-30.56 -109.38,-66.17 -153.87,-110.98 -22.92,-23.09 -43.42,-49.46 -56.52,-79.42 -6.26,-14.32 -10.9,-29.3 -13.21,-44.78 -0.25,-1.74 -0.53,-3.48 -0.72,-5.2 -6.51,2.16 -12.59,5.82 -18.03,11.18 -10.35,10.21 -17.51,23.24 -24.54,35.81 -7.46,13.32 -14.95,26.44 -24.65,38.3 -10.29,12.56 -22.35,23.5 -35.26,33.32 -26.56,20.19 -56.65,35.13 -86.68,49.39 -76.7,36.42 -153.54,72.53 -230.31,108.8 -36.5,17.24 -72.74,35.62 -110.61,49.7 -16.96,6.31 -34.5,10.28 -51.61,16.01 -15.48,5.18 -30.22,14.95 -29.81,33.13 0.79,35.44 40.56,54.47 50.35,86.62 1.11,3.64 1.79,7.41 2.07,11.2 0.34,4.58 -0.82,10.18 2.18,14.01 z m 1283.88,-326.35 c -5.23,-33.38 -20.02,-64.31 -24.43,-97.91 -4.66,-35.51 -0.95,-71.39 3.59,-106.7 4.66,-36.19 9.17,-72.33 12.14,-108.71 11.66,-143.14 6.65,-286.76 3.95,-430.14 -2.46,-130.23 -4.48,-261.23 9.36,-390.94 -29.07,151.84 -52.83,304.68 -73.3,457.91 -25.48,190.68 -46.04,381.97 -66.01,573.3 -4.38,41.89 -14.03,86.73 -9.14,128.86 0.92,7.93 2.79,15.13 5.34,21.72 11.96,6.88 23.06,15.78 30.17,27.76 1.81,3.06 3.18,6.25 4.36,9.5 14.22,6.5 31.26,8.5 49.74,5.34 19.46,-3.32 37.8,-10.51 54.93,-20.37 2.26,-23.22 2.92,-46.57 -0.7,-69.62 z m 870.04,-2185.83 c 13.6,44.52 20.7,90.99 20.35,137.43 -0.36,48.93 -9.32,97.48 -26.86,143.16 -1.46,3.78 -6.08,4.51 -8.43,1.1 -6.64,-9.61 -12.91,-19.46 -18.87,-29.48 6.36,20.29 11.18,40.95 12.47,61.77 2.29,36.81 -11.28,70.02 -33.64,98.68 -22.16,28.4 -50.11,51.41 -75.89,76.33 -29.97,28.97 -56.73,61.07 -80.43,95.34 -48.08,69.48 -83.79,146.7 -114.18,225.29 -31.68,81.96 -58.58,165.81 -85.92,249.29 -30.04,91.73 -59.25,183.74 -87.59,276.02 -57,185.61 -109.97,372.37 -160.15,559.93 -35.53,132.75 -79.19,285.59 -201.62,364.77 l -0.63,0.38 c -3.08,31.44 -7.87,62.92 -13.23,94.01 -5.65,32.82 -13.15,65.51 -25.79,96.41 -12.64,30.87 -31.26,58.32 -48.49,86.71 -15.98,26.34 -29.3,53.98 -40.28,82.76 -41.71,109.32 -53.55,229.98 -112.09,332.8 -4.21,7.39 -8.74,14.59 -13.44,21.66 1.06,-0.25 2.16,-0.4 3.34,-0.37 7.04,0.16 13.97,4.94 19.32,9.1 5.86,4.54 10.87,9.95 15.36,15.83 10.04,13.12 17.7,28.08 25.49,42.59 8.74,16.3 17.05,32.86 24.53,49.78 30.23,68.36 41.87,143.09 50.78,216.82 4.2,34.81 3.73,70.07 -16.26,100.29 -9.09,13.74 -20.57,25.74 -32.41,37.13 -2.95,2.84 -6.06,5.52 -9.09,8.28 0.98,1.05 1.45,2.59 1.17,4.34 -6.88,42.72 -35.73,78.31 -67.55,105.89 -34.57,29.97 -74.37,54.47 -115.29,74.71 -84.27,41.67 -176.58,64.46 -269.89,73.61 -50.19,4.91 -102.03,7.59 -151.8,-2.24 -45.2,-8.94 -87.06,-29.9 -123.78,-57.39 -38.34,-28.71 -70.98,-64 -100.43,-101.61 -15.37,-19.63 -29.97,-39.85 -44.33,-60.25 -11.87,-16.87 -25.25,-33.71 -34.7,-52.28 -1.1,-1.14 -2.22,-2.27 -3.31,-3.43 -1.33,-1.44 -1.37,-3.14 -0.73,-4.53 -5.88,-6.8 -11.24,-14.06 -15.81,-21.95 -17.68,-30.52 -24.83,-66.57 -26.93,-101.44 -2.28,-37.63 1.98,-75.31 8.73,-112.29 3.45,-18.88 7.64,-37.61 12.11,-56.27 2.23,-9.29 4.53,-18.57 6.85,-27.84 1.79,-7.19 3.91,-14.13 7.72,-20.54 5.44,-9.15 14.37,-17 24.84,-14.52 -17.29,-26.03 -35.99,-51.24 -56.44,-74.84 -11.43,-13.19 -23.41,-25.89 -35.86,-38.11 -12.54,-12.31 -25.76,-23.87 -38.57,-35.88 -12.75,-11.96 -24.68,-24.59 -35.11,-38.65 -10.48,-14.13 -19.57,-29.22 -28.29,-44.47 -19.16,-33.53 -37.86,-67.32 -56.78,-100.99 -19.03,-33.88 -38.26,-67.68 -57.08,-101.69 -8.92,-16.12 -17.47,-32.45 -24.69,-49.42 -7.14,-16.8 -13.19,-34.04 -18.63,-51.46 -18.82,-60.18 -30.61,-128.33 -76.93,-174.75 -40.65,-40.74 -99.08,-57.79 -138.87,-99.59 -4.78,-5.02 -9.18,-10.39 -13.24,-16.01 -1.47,-2.05 0.48,-5.58 3.04,-5.29 l 0.68,0.08 c -15.95,-5.09 -31.72,-10.72 -47.21,-16.98 -35.42,-14.33 -69.62,-35.03 -84.66,-71.92 -10.79,-26.45 -11.91,-55.8 -10.38,-84.88 -4.91,-19.97 -8.2,-40.66 -12.66,-60.09 -33.27,-145.14 -66.54,-290.28 -99.81,-435.41 -66.54,-290.28 -133.03,-580.57 -199.65,-870.82 -16.38,-71.36 -32.38,-142.85 -51.6,-213.52 -17.73,-65.18 -41.59,-128.82 -56.49,-194.75 -13.03,-57.61 -18.89,-119.9 3.14,-176.13 11.36,-28.98 32.67,-52.94 43.28,-82.11 12.18,-33.49 -4.12,-57.59 -30.17,-77.07 -17.78,-13.29 -37.56,-25.479 -49.183,-45.05 -10.36,-17.441 -12.375,-37.738 -9.676,-57.539 6.359,-46.672 34.009,-88.519 36.499,-135.91 1.52,-28.801 -11.1,-50.129 -27.507,-72.66 -15.145,-20.801 -28.141,-42.621 -24.539,-69.379 7.351,-54.551 64.026,-90.852 105.936,-118.512 105.6,-69.679 226.68,-116.039 351.88,-134.359 11.07,-1.621 23.9,-4.891 34.09,1.348 9.2,5.64 13.43,16.851 17.17,26.461 l 0.79,2.25 c 11.31,13.312 19.38,28.57 25.11,44.941 0.68,-37.27 2.35,-75.289 10.14,-111.57 8.23,-38.36 26.56,-70.86 57.69,-95.11 31.82,-24.769 70.52,-40.73 108.06,-54.679 84.01,-31.243 172.98,-46.653 261.89,-55.481 91.74,-9.109 184.14,-12.25 276.25,-15.441 97.97,-3.391 196.01,-5.098 294.05,-4.559 193.62,1.07 387.37,11.008 579.55,35.188 94.31,11.871 188.2,27.121 281.29,46.382 66.79,13.829 141.12,34.43 161.96,108.079 5.99,21.171 9.14,43.531 11.18,66.031 122.73,12.781 225.43,89.039 319.74,163.269 96.85,76.231 197.03,157.91 226.48,283.68 17.47,74.621 12.78,152 8.13,227.8 -0.21,3.52 -4.57,5.78 -7.22,3.79" /></g></g></svg>