<?xml version="1.0" encoding="UTF-8" standalone="no"?>
<svg
   xmlns:dc="http://purl.org/dc/elements/1.1/"
   xmlns:cc="http://creativecommons.org/ns#"
   xmlns:rdf="http://www.w3.org/1999/02/22-rdf-syntax-ns#"
   xmlns:svg="http://www.w3.org/2000/svg"
   xmlns="http://www.w3.org/2000/svg"
   viewBox="0 0 666.66669 666.66669"
   height="666.66669"
   width="666.66669"
   xml:space="preserve"
   id="svg2"
   version="1.1"><metadata
     id="metadata8"><rdf:RDF><cc:Work
         rdf:about=""><dc:format>image/svg+xml</dc:format><dc:type
           rdf:resource="http://purl.org/dc/dcmitype/StillImage" /></cc:Work></rdf:RDF></metadata><defs
     id="defs6" /><g
     transform="matrix(1.3333333,0,0,-1.3333333,0,666.66667)"
     id="g10"><g
       transform="scale(0.1)"
       id="g12"><path
         id="path14"
         style="fill:#fff9cf;fill-opacity:1;fill-rule:nonzero;stroke:none"
         d="M 0,0 H 5000 V 5000 H 0 Z" /><path
         id="path16"
         style="fill:#feeba3;fill-opacity:1;fill-rule:nonzero;stroke:none"
         d="m 1789.07,467.512 c -140.74,0 -280.34,16.5 -415.08,57.738 -44.13,13.512 -88.24,30.02 -124.71,58.289 -55.06,42.68 -87.34,107.609 -117.8,170.262 -166.671,342.739 -334.957,690.189 -409.511,1063.949 -74.555,373.76 -46.098,783.03 159.644,1103.85 240.267,374.65 676.557,570.56 1099.287,709.83 l 250.51,109.82 c 125.26,113.05 296.6,156.56 460.59,196.3 228.12,55.27 459.82,110.9 693.74,110.9 25.31,0 50.66,-0.65 76.03,-2.02 259.74,-14.08 527.13,-115.13 682.71,-323.6 57.54,-77.1 97.72,-165.59 134.38,-254.53 82.3,-199.7 149.4,-406.67 183.02,-620.03 58.22,-369.55 14.75,-746.67 -28.79,-1118.23 -13.19,-112.48 -27.3,-228.01 -80.85,-327.8 C 4255.57,1222.1 4053.23,1130.2 3864.47,1051.68 3354.76,839.66 2838.34,634.172 2297.17,525.129 c -166.71,-33.59 -338.24,-57.617 -508.1,-57.617" /><path
         id="path18"
         style="fill:#fab44f;fill-opacity:1;fill-rule:nonzero;stroke:none"
         d="m 2235.92,3022.25 c -31.03,-54.49 -32.2,-120.34 -32.84,-183.05 -3.98,-391.55 -18.45,-783 -43.39,-1173.77 -2.7,-42.38 -2.01,-92.62 32.66,-117.13 15.41,-10.89 34.76,-14.21 53.41,-17.11 238.37,-37.09 479.96,-53.47 721.16,-48.9 19.49,0.37 41.44,1.98 54.13,16.79 8.25,9.62 10.64,22.8 12.72,35.3 79.65,478.48 159.51,965.65 94.45,1446.34 -8.6,63.57 -25.93,135.73 -82.98,165.06 -73.49,37.79 -158.49,-19.65 -219.54,-75.34 -42,-38.31 -83.4,-77.5 -129.19,-111.21 -32.41,-23.86 -70.97,-45.78 -110.7,-39.28 -113.72,18.62 -226.76,318.56 -349.89,102.3" /><path
         id="path20"
         style="fill:#bc9686;fill-opacity:1;fill-rule:nonzero;stroke:none"
         d="m 1278.13,2369.06 c -0.6,6.68 -1.26,13.36 -1.8,20.04 -2.75,-7.49 -5.46,-14.99 -8.18,-22.5 3.33,0.82 6.65,1.65 9.98,2.46" /><path
         id="path22"
         style="fill:#bc9686;fill-opacity:1;fill-rule:nonzero;stroke:none"
         d="m 1233.18,2045.73 c 28.89,2.87 57.82,5.18 86.77,7.13 -7.59,50.14 -15.28,100.27 -22.21,150.48 -6.84,49.5 -13.11,99.09 -18.09,148.81 -0.2,1.94 -0.34,3.87 -0.53,5.81 -5.15,-1.25 -10.3,-2.49 -15.45,-3.77 -37.52,-104.33 -72.23,-209.56 -100.23,-316.59 23.22,3.13 46.49,5.81 69.74,8.13" /><path
         id="path24"
         style="fill:#bc9686;fill-opacity:1;fill-rule:nonzero;stroke:none"
         d="m 1298.87,1427.3 c 23.54,-3.38 47,-6.14 70.51,-8.19 -4.74,155.73 -6.23,311.76 -25.66,466.37 -6.56,52.26 -14.26,104.38 -22.12,156.47 -39.59,-2.64 -79.13,-5.94 -118.58,-10.44 -14.17,-1.62 -28.35,-3.4 -42.52,-5.35 -8.56,-33.31 -16.48,-66.8 -23.59,-100.49 -32.95,-156.13 -48.34,-315.46 -47.46,-474.83 70.11,-0.58 140.36,-13.63 209.42,-23.54" /><path
         id="path26"
         style="fill:#bc9686;fill-opacity:1;fill-rule:nonzero;stroke:none"
         d="m 1271.47,910.582 c 42.33,-4.902 84.77,-8.691 127.27,-11.742 -0.48,13.879 -1.04,27.769 -1.76,41.652 -5.4,104.958 -13.96,209.728 -20.48,314.618 -3.15,50.77 -5.15,101.63 -6.76,152.54 -33.77,3.12 -67.39,8.02 -100.91,13.03 -58.87,8.81 -119.29,18.65 -179.29,19.18 1.76,-172 22.59,-343.97 61.09,-511.981 40.12,-7.008 80.48,-12.629 120.84,-17.297" /><path
         id="path28"
         style="fill:#bc9686;fill-opacity:1;fill-rule:nonzero;stroke:none"
         d="m 1421.41,469.68 c -0.39,3.25 -0.74,6.511 -1.12,9.769 -38.34,-4.008 -76.68,-8.129 -115.08,-11.789 34.31,-74.762 79.5,-151.269 140.29,-202.019 -1.04,17.769 -2.03,35.468 -3.55,52.91 -4.41,50.461 -14.49,100.789 -20.54,151.129" /><path
         id="path30"
         style="fill:#bc9686;fill-opacity:1;fill-rule:nonzero;stroke:none"
         d="m 1300.48,478.172 c 12.07,1.148 24.13,2.348 36.17,3.578 27.47,2.809 54.92,5.809 82.38,8.762 -5.12,44.847 -9.37,89.797 -12.31,134.847 -5.7,87.371 -4.96,174.961 -7.66,262.461 -57.65,4.141 -115.19,9.649 -172.47,17.379 -24.47,3.301 -48.93,6.981 -73.3,11.16 34.84,-148.73 83.54,-294.277 145.25,-433.89 0.63,-1.43 1.3,-2.867 1.94,-4.297" /><path
         id="path32"
         style="fill:#bc9686;fill-opacity:1;fill-rule:nonzero;stroke:none"
         d="m 1407.09,2669.18 c 29.03,5.21 58.13,10.04 87.29,14.54 -6.08,61.6 -11.22,123.55 -12.98,185.41 -40.46,-63.7 -71.89,-133.77 -100.39,-204.78 8.69,1.62 17.38,3.27 26.08,4.83" /><path
         id="path34"
         style="fill:#bc9686;fill-opacity:1;fill-rule:nonzero;stroke:none"
         d="m 1519.88,2418.17 c -3.73,47.84 -7.89,95.64 -12.83,143.4 -3.82,36.88 -7.86,74.01 -11.6,111.27 -39.86,-6.16 -79.61,-13.02 -119.24,-20.53 -8.82,-22.27 -17.4,-44.59 -25.9,-66.81 -21.88,-57.23 -43.77,-114.55 -65.04,-172.09 1.07,-13.93 2.3,-27.83 3.62,-41.72 76.43,18.16 153.55,33.26 230.99,46.48" /><path
         id="path36"
         style="fill:#bc9686;fill-opacity:1;fill-rule:nonzero;stroke:none"
         d="m 1543.45,2063.58 c -7.7,114.55 -13.95,229.19 -22.71,343.66 -77.35,-13.25 -154.39,-28.44 -230.73,-46.63 10.22,-102.81 26.53,-204.85 41.84,-307.01 70.46,4.51 141.06,7.02 211.6,9.98" /><path
         id="path38"
         style="fill:#bc9686;fill-opacity:1;fill-rule:nonzero;stroke:none"
         d="m 1377.3,1501.65 c 0.76,-27.81 1.67,-55.61 2.69,-83.4 22.64,-1.75 45.34,-2.82 68.22,-3.01 53.9,-0.45 107.73,-3.73 161.47,-7.78 5.77,-0.43 11.54,-0.9 17.32,-1.35 -30.59,177.23 -60.01,354.7 -74.52,534.09 -3.03,37.45 -5.74,74.92 -8.29,112.4 -1.6,-0.07 -3.21,-0.14 -4.82,-0.21 -68.63,-2.86 -137.34,-5.29 -205.91,-9.64 11.49,-77.12 22.28,-154.32 29.28,-231.98 9.27,-102.79 11.74,-206 14.56,-309.12" /><path
         id="path40"
         style="fill:#d7a793;fill-opacity:1;fill-rule:nonzero;stroke:none"
         d="m 1409.93,898.051 c 55.89,-3.832 111.87,-6.422 167.84,-8.309 43.83,-1.472 87.58,-2.844 131.36,-5.094 -17.38,143.842 -41.62,286.912 -66.25,429.632 -4.65,26.9 -9.31,53.79 -13.96,80.68 -18.75,1.47 -37.51,2.89 -56.27,4.15 -26.33,1.76 -52.69,3.22 -79.07,4.13 -26.27,0.91 -52.57,0.51 -78.83,1.42 -11.45,0.4 -22.87,1.12 -34.28,2.04 2.82,-73.76 6.56,-147.45 11.6,-221.15 6.54,-95.79 13.82,-191.562 17.86,-287.499" /><path
         id="path42"
         style="fill:#bc9686;fill-opacity:1;fill-rule:nonzero;stroke:none"
         d="m 1422.41,564.82 c 2.17,-24.422 4.7,-48.8 7.47,-73.16 21.85,2.328 43.71,4.621 65.59,6.699 53.56,5.102 107.13,7.532 160.85,10.282 25.59,1.308 51.17,2.718 76.76,4.129 0.12,55.472 -0.95,110.89 -4.55,166.539 -4.21,64.972 -10.45,129.722 -18.09,194.32 -10.08,0.59 -20.16,1.242 -30.25,1.801 -48.69,2.699 -97.56,2.961 -146.3,4.941 -41.19,1.668 -82.37,3.82 -123.5,6.641 0.16,-4.114 0.35,-8.223 0.5,-12.332 3.76,-103.469 2.34,-206.598 11.52,-309.86" /><path
         id="path44"
         style="fill:#bc9686;fill-opacity:1;fill-rule:nonzero;stroke:none"
         d="m 1731.2,383.492 c 0.91,39.52 1.66,78.906 1.86,118.278 -39.19,-2.141 -78.39,-4.321 -117.59,-6.122 -61.67,-2.828 -123.02,-8.718 -184.34,-15.078 3.07,-26.238 6.43,-52.449 10.05,-78.609 5.44,-39.281 11.59,-77.981 14.06,-117.551 0.58,-9.328 1.17,-18.66 1.81,-27.988 32.55,-24.59 69.36,-41.793 111.14,-47.731 45.46,-6.461 91.61,1.739 136.62,10.829 10.23,2.07 20.44,4.281 30.66,6.441 -5.12,52.187 -5.49,104.898 -4.27,157.531" /><path
         id="path46"
         style="fill:#bc9686;fill-opacity:1;fill-rule:nonzero;stroke:none"
         d="m 1740.37,2712.96 c 6.31,0.53 12.63,1 18.95,1.5 -9.15,68.57 -18.32,137.15 -23.71,206.13 -4.81,61.45 -7.19,124.09 -1.23,185.73 -6.64,-4.6 -13.02,-8.96 -19.05,-12.96 -54.21,-35.94 -107.55,-73.99 -152.97,-120.55 -26.31,-26.97 -49.49,-56.32 -70.35,-87.34 1.17,-66.72 6.48,-133.51 13.03,-200.16 78.11,11.8 156.62,21.08 235.33,27.65" /><path
         id="path48"
         style="fill:#bc9686;fill-opacity:1;fill-rule:nonzero;stroke:none"
         d="m 1770.25,2715.32 c 81.2,6.21 162.89,10 244.33,8.88 3.35,169.84 -5.84,345.12 50.56,507.25 l 0.36,0.61 c -16.41,5.61 -31.78,9.31 -45.09,10.52 -85.65,7.79 -196.29,-73.42 -274.15,-127.98 -8.61,-77.09 -3.71,-155.81 3.75,-232.66 5.41,-55.7 12.84,-111.16 20.24,-166.62" /><path
         id="path50"
         style="fill:#bc9686;fill-opacity:1;fill-rule:nonzero;stroke:none"
         d="m 1795.54,2458.92 c 51.22,6.74 102.47,13.24 153.71,19.77 16.95,2.16 33.91,4.33 50.87,6.52 5.18,63.49 10.68,126.96 13.11,190.57 0.47,12.42 0.83,24.88 1.12,37.37 -80.86,0.99 -161.94,-2.48 -242.66,-8.67 3.95,-29.68 7.86,-59.37 11.4,-89.1 6.19,-52.02 10.08,-104.2 12.45,-156.46" /><path
         id="path52"
         style="fill:#d7a793;fill-opacity:1;fill-rule:nonzero;stroke:none"
         d="m 1796.04,2081.1 c 37.83,4.23 75.61,8.89 113.48,12.71 24.3,2.46 48.62,4.76 72.93,7.01 1.56,86.26 4.28,172.49 8.77,258.65 1.99,38.24 4.9,76.43 8,114.62 -27.36,-3.52 -54.73,-7.01 -82.09,-10.49 -40.38,-5.14 -80.77,-10.31 -121.13,-15.62 1.75,-42.33 2.57,-84.71 2.7,-127.11 0.25,-79.93 -1.5,-159.85 -2.66,-239.77" /><path
         id="path54"
         style="fill:#bc9686;fill-opacity:1;fill-rule:nonzero;stroke:none"
         d="m 1569.84,2064.7 c 55.33,2.45 110.66,5.37 165.84,10.23 16.47,1.44 32.91,3.14 49.34,4.93 1.37,94.27 3.57,188.53 2.35,282.81 -0.36,28 -1.19,55.95 -2.41,83.86 -75.03,-9.94 -149.98,-20.5 -224.68,-32.67 -9.4,-1.53 -18.79,-3.14 -28.18,-4.72 9.01,-114.92 14.86,-230.07 22.39,-345.09 5.11,0.22 10.23,0.42 15.35,0.65" /><path
         id="path56"
         style="fill:#bc9686;fill-opacity:1;fill-rule:nonzero;stroke:none"
         d="m 1720.25,884.051 c 4.52,-0.25 9.05,-0.449 13.57,-0.719 53.71,-3.242 107.39,-6.941 161.05,-10.98 -0.22,1.609 -0.46,3.218 -0.68,4.839 -22.55,166.649 -38.23,334.929 -32.16,503.239 -42.96,1.52 -85.88,3.32 -128.79,6.42 -31.14,2.25 -62.26,4.8 -93.39,7.26 9.58,-54.44 19.21,-108.84 28.42,-163.24 19.5,-115.18 37.98,-230.76 51.98,-346.819" /><path
         id="path58"
         style="fill:#d7a793;fill-opacity:1;fill-rule:nonzero;stroke:none"
         d="m 1744.4,513.391 c 67.98,3.718 136,7.23 204.06,8.308 -17.63,113.121 -36.36,226.082 -52.02,339.512 -12.43,0.93 -24.85,1.937 -37.28,2.828 -45.85,3.301 -91.72,6.211 -137.61,8.93 10.39,-87.957 18.16,-176.188 21.73,-264.739 1.28,-31.648 1.42,-63.25 1.12,-94.839" /><path
         id="path60"
         style="fill:#bc9686;fill-opacity:1;fill-rule:nonzero;stroke:none"
         d="m 1950.18,510.66 c -68.68,-1.078 -137.28,-4.539 -205.87,-8.281 -0.77,-59.297 -3.03,-118.559 -2.8,-177.938 0.12,-32.32 1.69,-64.402 5,-96.16 79.36,17.059 158.11,37 236.05,59.688 -3.46,23.961 -6.79,47.929 -10.09,71.941 -6.93,50.32 -14.5,100.559 -22.29,150.75" /><path
         id="path62"
         style="fill:#bc9686;fill-opacity:1;fill-rule:nonzero;stroke:none"
         d="m 1637.88,1405.27 c 44.23,-3.49 88.44,-7.2 132.72,-9.94 30.58,-1.9 61.2,-3.05 91.83,-4.05 0.1,2.42 0.16,4.85 0.27,7.27 0.32,7.07 11.32,7.08 11,0 -0.11,-2.54 -0.17,-5.08 -0.27,-7.62 19.55,-0.62 39.11,-1.21 58.66,-1.89 19.71,-0.69 39.42,-1.42 59.13,-2.18 -11.28,213.61 -12.17,427.33 -9.85,641.2 0.22,20.59 0.57,41.17 0.92,61.75 -37.02,-3.42 -74.03,-7.01 -111,-10.97 -25.16,-2.7 -50.27,-5.65 -75.39,-8.48 -0.32,-22.79 -0.59,-45.58 -0.73,-68.37 -0.33,-52.69 1.53,-105.19 3.47,-157.84 1.95,-53.07 2.51,-106.24 -3.59,-159.08 -0.8,-6.97 -11.81,-7.02 -11,0 1.52,13.16 2.68,26.35 3.48,39.58 3.18,53.22 0.62,106.53 -1.48,159.74 -2.1,53.19 -2.12,106.3 -1.5,159.52 0.09,8.41 0.21,16.82 0.33,25.22 -27.12,-3 -54.26,-5.79 -81.51,-7.83 -49.31,-3.71 -98.72,-6.1 -148.13,-8.22 4.29,-64.65 9.13,-129.25 15.43,-193.75 14.89,-152.21 40.71,-303.29 67.21,-454.06" /><path
         id="path64"
         style="fill:#bc9686;fill-opacity:1;fill-rule:nonzero;stroke:none"
         d="m 1905.96,871.539 c 2.57,-0.187 5.15,-0.359 7.72,-0.559 40.97,-3.16 81.93,-6.64 122.86,-10.261 -19.74,167.141 -34.68,334.841 -44.16,502.881 -0.23,4.07 -0.39,8.14 -0.61,12.2 -32.31,1.25 -64.63,2.43 -96.95,3.5 -7.26,0.25 -14.52,0.5 -21.78,0.75 -3.27,-91.17 -0.24,-182.47 6.91,-273.4 6.19,-78.65 15.34,-156.97 26.01,-235.111" /><path
         id="path66"
         style="fill:#bc9686;fill-opacity:1;fill-rule:nonzero;stroke:none"
         d="m 1959.5,521.809 c 11.3,0.14 22.61,0.25 33.92,0.242 30.81,-0.051 61.6,-0.879 92.39,-1.801 -11.48,62.77 -21.51,125.742 -30.12,189.242 -6.33,46.668 -12.22,93.406 -17.8,140.18 -43.44,3.859 -86.9,7.367 -130.38,10.687 12.75,-91.988 27.51,-183.73 42.05,-275.429 3.33,-21.028 6.65,-42.071 9.94,-63.121" /><path
         id="path68"
         style="fill:#bc9686;fill-opacity:1;fill-rule:nonzero;stroke:none"
         d="m 2087.86,508.93 c -42.22,1.23 -84.43,2.371 -126.67,1.902 9.44,-60.832 18.54,-121.711 26.56,-182.742 1.62,-12.371 3.38,-24.711 5.2,-37.051 38.45,11.332 76.72,23.262 114.74,35.953 5.55,1.848 11.13,3.75 16.72,5.707 -3.95,17.91 -7.9,35.813 -11.81,53.723 -8.92,40.808 -17.14,81.617 -24.74,122.508" /><path
         id="path70"
         style="fill:#d7a793;fill-opacity:1;fill-rule:nonzero;stroke:none"
         d="m 1531.21,2420.09 c 21.43,3.6 42.87,7.11 64.33,10.46 62.85,9.79 125.86,18.56 188.92,26.91 -3.08,64.34 -8.46,128.47 -16.66,192.53 -2.28,17.88 -4.66,35.76 -7.04,53.63 -18.4,-1.46 -36.78,-3.02 -55.13,-4.73 -66.72,-6.25 -133.25,-14.44 -199.5,-24.47 6.44,-64.22 13.88,-128.29 19.75,-192.02 1.92,-20.76 3.66,-41.53 5.33,-62.31" /><path
         id="path72"
         style="fill:#bc9686;fill-opacity:1;fill-rule:nonzero;stroke:none"
         d="m 2049.12,2723.46 c 82.5,-2.6 164.84,-9.09 247.35,-10.99 -3.01,86.77 -6.71,173.52 -11.26,260.25 -2.25,42.77 -5.24,87.41 -27.08,124.25 -28.19,47.56 -112.66,104.96 -182.43,131.4 -7.45,-21.43 -13.81,-43.19 -19.08,-65.26 -34.32,-143.94 -27.49,-292.07 -30.69,-439.15 7.73,-0.15 15.47,-0.26 23.19,-0.5" /><path
         id="path74"
         style="fill:#bc9686;fill-opacity:1;fill-rule:nonzero;stroke:none"
         d="m 2301.72,2528.3 c -1.36,57.72 -2.9,115.44 -4.86,173.14 -90.48,2.01 -180.72,9.99 -271.2,11.59 -0.95,-37.52 -2.62,-74.97 -5.89,-112.25 -3.34,-38.05 -6.22,-76.11 -8.9,-114.18 97.14,12.56 194.2,25.75 290.85,41.7" /><path
         id="path76"
         style="fill:#bc9686;fill-opacity:1;fill-rule:nonzero;stroke:none"
         d="m 2297.11,2128.96 c 3.2,0.31 6.39,0.66 9.59,0.98 -0.34,129.17 -1.79,258.33 -4.74,387.45 -9.66,-1.65 -19.31,-3.32 -28.99,-4.85 -87.4,-13.89 -175.1,-25.72 -262.87,-37.05 -8.56,-124.43 -13.74,-248.95 -16.34,-373.63 101.1,9.25 202.31,17.23 303.35,27.1" /><path
         id="path78"
         style="fill:#bc9686;fill-opacity:1;fill-rule:nonzero;stroke:none"
         d="m 2259.37,1372.43 c 12.66,-0.94 25.32,-1.93 37.98,-2.95 6.06,249.88 9.88,499.78 9.36,749.61 -16.21,-1.7 -32.42,-3.35 -48.64,-4.86 -88.14,-8.23 -176.38,-15.33 -264.54,-23.39 -1.02,-52 -1.63,-104.02 -1.79,-156.08 -0.55,-183.05 1.48,-365.67 10.68,-548.34 85.72,-3.38 171.4,-7.63 256.95,-13.99" /><path
         id="path80"
         style="fill:#d7a793;fill-opacity:1;fill-rule:nonzero;stroke:none"
         d="m 2047.61,859.719 c 73.38,-6.578 146.69,-13.809 219.92,-21.879 4.71,-0.52 9.43,-0.93 14.16,-1.328 5.74,173.918 11.13,347.868 15.39,521.828 -25.76,2.12 -51.53,4.16 -77.31,5.89 -72.21,4.84 -144.5,8.26 -216.81,11.12 1.69,-32.54 3.54,-65.08 5.73,-97.63 9.39,-139.64 22.47,-279.009 38.92,-418.001" /><path
         id="path82"
         style="fill:#bc9686;fill-opacity:1;fill-rule:nonzero;stroke:none"
         d="m 2096.03,519.941 c 45.64,-1.382 91.26,-2.82 136.94,-2.121 12.51,0.192 25.03,0.52 37.54,1.02 0.77,11.398 1.23,22.808 1.62,34.051 3.12,90.89 6.19,181.789 9.2,272.699 -23.13,1.769 -46.19,4.789 -69.25,7.211 -54.32,5.711 -108.7,10.961 -163.11,15.847 9.4,-78.566 19.83,-157.007 31.32,-235.289 4.6,-31.257 9.95,-62.379 15.74,-93.418" /><path
         id="path84"
         style="fill:#bc9686;fill-opacity:1;fill-rule:nonzero;stroke:none"
         d="m 2206.6,506.609 c -36.17,-0.027 -72.33,0.973 -108.48,2.02 10.99,-57.649 23.55,-115.02 36.2,-172.359 38.99,14.41 76.85,33.082 101.44,65.871 22.6,30.14 30.54,67.55 33.9,105.66 -21.01,-0.86 -42.05,-1.172 -63.06,-1.192" /><path
         id="path86"
         style="fill:#bc9686;fill-opacity:1;fill-rule:nonzero;stroke:none"
         d="m 3021.25,2464.72 c 30.19,2.22 60.38,4.6 90.55,7.05 2.29,67.33 3.78,134.69 3.69,202.05 -0.17,126.06 -18.85,252.59 -21.28,378.78 -24.57,-24.6 -44.75,-53.45 -58.41,-84.84 -41.62,-95.62 -57.25,-200.26 -70.13,-303.74 -8.48,-68.12 -15.83,-136.34 -22.43,-204.63 26.01,1.65 52.02,3.41 78.01,5.33" /><path
         id="path88"
         style="fill:#bc9686;fill-opacity:1;fill-rule:nonzero;stroke:none"
         d="m 3030.73,2137 c 22.1,4.54 44.24,8.91 66.4,13.19 5.01,75.1 7.63,150.54 10.95,225.58 1.26,28.34 2.37,56.69 3.37,85.05 -42.84,-3.51 -85.69,-6.88 -128.57,-9.84 -13.57,-0.94 -27.14,-1.84 -40.71,-2.7 -10.64,-111.86 -18.98,-223.93 -25.75,-336.14 38.01,8.73 76.11,17.02 114.31,24.86" /><path
         id="path90"
         style="fill:#bc9686;fill-opacity:1;fill-rule:nonzero;stroke:none"
         d="m 3066.25,1803.42 c 6.72,92.98 17.2,185.84 25.57,278.34 1.72,19 3.17,38.04 4.5,57.1 -34.58,-6.71 -69.11,-13.67 -103.56,-21.03 -25.72,-5.49 -51.4,-11.21 -77.04,-17.12 -6.02,-101.38 -10.72,-202.86 -14.69,-304.38 54.97,4.16 110.09,6.38 165.22,7.09" /><path
         id="path92"
         style="fill:#bc9686;fill-opacity:1;fill-rule:nonzero;stroke:none"
         d="m 3096.05,1278.36 c -12.71,78 -25.39,156.37 -31.8,234.98 -7.58,92.99 -5.18,186.09 1.23,279.07 -55.02,-0.72 -110.02,-2.94 -164.87,-7.11 -5.66,-146.63 -9.81,-293.34 -13.88,-439.97 -0.75,-27.1 -1.49,-54.22 -2.14,-81.35 70.4,5.93 140.91,10.66 211.46,14.38" /><path
         id="path94"
         style="fill:#d7a793;fill-opacity:1;fill-rule:nonzero;stroke:none"
         d="m 2943.55,631.73 c 74.91,14.481 149.47,30.942 224.9,42.54 -1.69,81.46 -3.57,163.261 -11.59,244.191 -9.78,98.629 -25.42,196.549 -40.99,294.389 -2.31,14.52 -4.67,29.05 -7.04,43.59 -71.24,-3.74 -142.42,-8.51 -213.5,-14.5 -3.58,-155.86 -3.45,-312.018 19.02,-466.088 7.07,-48.5 16.42,-96.821 29.2,-144.122" /><path
         id="path96"
         style="fill:#bc9686;fill-opacity:1;fill-rule:nonzero;stroke:none"
         d="m 3157.68,674.309 c -3.22,-0.489 -6.44,-0.938 -9.66,-1.457 -71.24,-11.411 -141.73,-26.981 -212.55,-40.692 10.14,-36.012 22.32,-71.39 37.13,-105.758 17.3,-40.172 40.96,-81.601 81.03,-99.14 21.26,-9.313 45.05,-10.832 68.26,-10.973 13.66,-0.09 27.27,0.301 40.84,1.051 -1.36,72.16 -2.51,144.32 -4.18,216.48 -0.31,13.481 -0.59,26.981 -0.87,40.489" /><path
         id="path98"
         style="fill:#bc9686;fill-opacity:1;fill-rule:nonzero;stroke:none"
         d="m 3261.41,2484.41 c 47.98,4.15 95.97,8.26 143.97,12.23 -2.01,44.58 -3.96,89.16 -5.7,133.75 -6.17,158.8 -10.5,317.67 -12.87,476.57 -44.19,25.27 -92.03,32.32 -138.2,25.63 3.63,-93.13 6.32,-186.3 8.28,-279.48 2.58,-122.89 3.88,-245.79 4.52,-368.7" /><path
         id="path100"
         style="fill:#bc9686;fill-opacity:1;fill-rule:nonzero;stroke:none"
         d="m 3125.86,2593.29 c -0.61,-40.15 -1.51,-80.35 -2.62,-120.57 42.38,3.47 84.73,7.08 127.09,10.74 -0.13,24.62 -0.18,49.25 -0.36,73.87 -1.45,191.18 -4.91,382.35 -12.32,573.39 -48.61,-9.35 -94.88,-33.67 -132.42,-67.59 0.87,-63.05 5.97,-126.1 10.83,-188.9 7.27,-93.79 11.23,-186.86 9.8,-280.94" /><path
         id="path102"
         style="fill:#bc9686;fill-opacity:1;fill-rule:nonzero;stroke:none"
         d="m 3370.93,2197.69 c 16.52,2.59 33.05,5.12 49.58,7.67 -5.45,93.51 -10.39,187.04 -14.67,280.61 -29.49,-2.45 -58.98,-4.97 -88.46,-7.52 -18.64,-1.62 -37.28,-3.25 -55.92,-4.88 0.47,-97.88 0.54,-195.76 0.44,-293.64 36.31,6.13 72.65,12.05 109.03,17.76" /><path
         id="path104"
         style="fill:#bc9686;fill-opacity:1;fill-rule:nonzero;stroke:none"
         d="m 3250.84,2178.06 c 0.08,98.18 0.02,196.36 -0.46,294.54 -42.47,-3.7 -84.94,-7.34 -127.42,-10.84 -2.97,-103.2 -7.78,-206.51 -15.11,-309.49 47.57,9.1 95.24,17.66 142.99,25.79" /><path
         id="path106"
         style="fill:#d7a793;fill-opacity:1;fill-rule:nonzero;stroke:none"
         d="m 3448.58,1787.28 c -5.55,73.47 -10.9,146.96 -15.8,220.48 -4.15,62.24 -7.98,124.5 -11.64,186.77 -29.64,-4.61 -59.27,-9.29 -88.88,-14.06 -23.48,-3.79 -46.93,-7.68 -70.38,-11.65 -0.13,-109.55 -0.43,-219.1 -0.53,-328.66 -0.01,-13.42 -0.01,-26.82 0.04,-40.22 62.47,-2.88 124.88,-7.25 187.19,-12.66" /><path
         id="path108"
         style="fill:#bc9686;fill-opacity:1;fill-rule:nonzero;stroke:none"
         d="m 3107.65,1278.94 c 40.02,2.04 80.04,3.81 120.08,5.27 28,1.02 56,1.88 84,2.66 -1.9,12.86 -3.7,25.74 -5.23,38.65 -0.84,7.03 10.17,6.95 11,0 1.52,-12.81 3.35,-25.58 5.32,-38.33 55.94,1.49 111.88,2.52 167.84,3.24 -3.04,31.54 -6.03,63.1 -8.87,94.66 -11.72,130.29 -22.47,260.67 -32.37,391.1 -62.56,5.44 -125.23,9.83 -187.96,12.72 0.26,-37.78 1.09,-75.52 3.71,-113.3 3.81,-54.94 9.52,-109.73 13.01,-164.7 0.44,-7.08 -10.56,-7.03 -11.01,0 -3.89,61.52 -10.6,122.83 -14.27,184.36 -1.87,31.35 -2.51,62.73 -2.67,94.13 -54.03,2.33 -108.11,3.59 -162.2,3.3 -3.74,-0.02 -7.48,-0.11 -11.23,-0.14 -1.66,-24.42 -3.07,-48.86 -4.11,-73.32 -4.03,-94.98 -0.75,-188.76 11.49,-283.03 6.82,-52.48 15,-104.88 23.47,-157.27" /><path
         id="path110"
         style="fill:#bc9686;fill-opacity:1;fill-rule:nonzero;stroke:none"
         d="m 3168.22,686.879 c 5.64,0.82 11.25,1.75 16.89,2.519 53.94,7.321 108.36,11.582 162.37,18.524 56.16,7.207 112.21,15.328 168.12,24.277 10.03,1.61 20.06,3.27 30.08,4.93 -0.57,8.801 -1.24,17.582 -2.06,26.363 -16.13,172.078 -35.19,343.878 -51.89,515.908 -55.73,-0.71 -111.46,-1.78 -167.18,-3.25 1.05,-6.52 2.12,-13.04 3.22,-19.55 15.23,-90.52 34.49,-181.59 34.67,-273.772 0.02,-7.09 -10.98,-7.078 -11,0 -0.05,25.692 -1.71,51.352 -4.31,76.902 -7.38,72.62 -22.57,144.07 -33.7,216.12 -43.09,-1.19 -86.18,-2.55 -129.25,-4.34 -24.92,-1.04 -49.84,-2.22 -74.76,-3.49 22.25,-136.94 46.06,-273.891 52.67,-412.321 2.69,-56.25 4.61,-112.527 6.13,-168.82" /><path
         id="path112"
         style="fill:#bc9686;fill-opacity:1;fill-rule:nonzero;stroke:none"
         d="m 3546.3,726.148 c -22.36,-3.699 -44.73,-7.289 -67.13,-10.707 -54.97,-8.41 -110.06,-16 -165.26,-22.722 -48.43,-5.899 -97.11,-9.949 -145.41,-16.789 2.24,-85.961 3.6,-171.961 5.22,-257.95 132.47,9.411 260.24,56.801 379.57,118.989 l -0.14,1.633 c -4.65,62.398 -3.37,125.109 -6.85,187.546" /><path
         id="path114"
         style="fill:#bc9686;fill-opacity:1;fill-rule:nonzero;stroke:none"
         d="m 3129.23,1803.64 c 40.34,-0.33 80.67,-1.5 120.97,-3.24 -0.05,26.98 0.16,53.95 0.2,80.92 0.12,95.21 0.34,190.43 0.43,285.64 -48.02,-8.19 -95.96,-16.84 -143.8,-26.03 -3.3,-45.14 -7.03,-90.23 -11.4,-135.2 -6.54,-67.32 -13.21,-134.67 -18.02,-202.14 17.2,0.15 34.41,0.19 51.62,0.05" /><path
         id="path116"
         style="fill:#bc9686;fill-opacity:1;fill-rule:nonzero;stroke:none"
         d="m 3416.41,2497.55 c 63.54,5.22 127.11,10.12 190.74,14.17 0.13,16.41 0.26,32.83 0.55,49.24 1.81,101.39 6.97,202.96 18.05,303.82 -60.12,93.26 -137.2,179.92 -227.86,235.56 2.72,-179.14 7.98,-358.24 15.52,-537.24 0.92,-21.85 2.01,-43.7 3,-65.55" /><path
         id="path118"
         style="fill:#d7a793;fill-opacity:1;fill-rule:nonzero;stroke:none"
         d="m 3501.51,1290.59 c 30.32,0.37 60.64,0.65 90.96,0.85 17.89,0.12 35.77,0.17 53.66,0.25 -4.68,73.63 -8.44,147.32 -11.39,221.03 -3.28,81.87 -5.59,163.78 -7.83,245.68 -55.44,6.18 -110.93,11.92 -166.5,16.86 11.36,-149.67 23.97,-299.24 37.71,-448.71 1.1,-11.99 2.27,-23.97 3.39,-35.96" /><path
         id="path120"
         style="fill:#bc9686;fill-opacity:1;fill-rule:nonzero;stroke:none"
         d="m 3556.48,738.91 c 40.41,6.77 80.75,14 120.99,21.692 6.63,1.257 13.26,2.578 19.88,3.878 -7.81,64.879 -15.87,129.739 -22.94,194.7 -11.65,106.96 -20.6,214.19 -27.56,321.55 -32.04,-0.14 -64.08,-0.33 -96.12,-0.62 -16.06,-0.14 -32.12,-0.38 -48.18,-0.58 8.13,-86.94 16.53,-173.85 25.34,-260.72 9.44,-93.091 22.87,-186.478 28.59,-279.9" /><path
         id="path122"
         style="fill:#bc9686;fill-opacity:1;fill-rule:nonzero;stroke:none"
         d="m 3698.65,753.738 c -18.3,-3.636 -36.6,-7.258 -54.95,-10.629 -28.8,-5.289 -57.65,-10.339 -86.53,-15.168 3.35,-61.742 2.42,-123.691 6.77,-185.359 24.97,13.25 49.57,27.109 73.76,41.387 25.58,15.113 51.09,30.941 75.05,48.59 -1.93,16.589 -3.85,33.183 -5.74,49.781 -2.7,23.808 -5.51,47.609 -8.36,71.398" /><path
         id="path124"
         style="fill:#bc9686;fill-opacity:1;fill-rule:nonzero;stroke:none"
         d="m 3459.54,1786.32 c 13.71,-1.21 27.41,-2.46 41.11,-3.76 42.02,-4.01 84,-8.45 125.96,-13.12 -2.51,91.86 -4.96,183.72 -8.6,275.56 -2.34,59.05 -4.64,118.11 -6.53,177.19 -59.88,-8.05 -119.69,-16.78 -179.41,-26 4.92,-84.26 10.25,-168.5 16.08,-252.71 3.64,-52.4 7.44,-104.78 11.39,-157.16" /><path
         id="path126"
         style="fill:#d7a793;fill-opacity:1;fill-rule:nonzero;stroke:none"
         d="m 3611.15,2233.17 c -2.79,89.18 -4.62,178.37 -4.12,267.58 -63.43,-3.93 -126.8,-8.66 -190.13,-13.89 4.26,-93.3 9.12,-186.57 14.51,-279.82 59.84,9.18 119.74,18.02 179.74,26.13" /><path
         id="path128"
         style="fill:#bc9686;fill-opacity:1;fill-rule:nonzero;stroke:none"
         d="m 3691.65,2516.56 c 28.33,1.44 56.66,2.9 85,4.45 -21.41,72.01 -46.46,142.86 -77.96,211.01 -18.07,39.08 -39.34,78.99 -63.57,117.99 -11.72,-112.1 -16.15,-225.01 -16.99,-337.66 24.5,1.52 49,2.97 73.52,4.21" /><path
         id="path130"
         style="fill:#bc9686;fill-opacity:1;fill-rule:nonzero;stroke:none"
         d="m 3638.16,1768.16 c 78.78,-8.87 157.47,-18.61 236.15,-28.3 13.31,-1.64 26.62,-3.28 39.93,-4.91 -11.83,173.27 -35.41,345.74 -70.67,515.79 -58.99,-7 -118,-13.78 -176.94,-21.23 -14.74,-1.87 -29.46,-3.9 -44.19,-5.86 2.62,-81.63 6,-163.24 9.18,-244.84 2.75,-70.2 4.68,-140.42 6.54,-210.65" /><path
         id="path132"
         style="fill:#bc9686;fill-opacity:1;fill-rule:nonzero;stroke:none"
         d="m 3707.71,766.5 c 36.97,7.309 73.88,14.84 111.04,21.18 6.02,1.019 12.04,2 18.06,3 11.52,28.121 20.54,57.461 28.23,86.82 27.86,106.398 40.56,216.19 48.42,325.9 1.85,25.79 3.35,51.61 4.66,77.43 h -2.65 c -85.87,0.13 -171.74,0.24 -257.62,-0.07 8.29,-127.82 19.42,-255.46 34.5,-382.658 5.2,-43.852 10.28,-87.723 15.36,-131.602" /><path
         id="path134"
         style="fill:#bc9686;fill-opacity:1;fill-rule:nonzero;stroke:none"
         d="m 3791.18,771.73 c -27.47,-4.96 -54.84,-10.46 -82.22,-15.941 4.48,-38.617 8.95,-77.258 13.53,-115.867 23.15,17.91 44.61,37.73 62.88,60.617 19.02,23.84 34.04,50.34 46.36,78.223 -13.53,-2.274 -27.04,-4.602 -40.55,-7.032" /><path
         id="path136"
         style="fill:#bc9686;fill-opacity:1;fill-rule:nonzero;stroke:none"
         d="m 3657.13,1291.74 c 87.17,0.33 174.33,0.22 261.5,0.09 6.92,143.92 5.75,288.24 -3.65,432.03 -28.53,3.5 -57.05,7.02 -85.57,10.53 -63.62,7.82 -127.26,15.56 -190.96,22.73 2.73,-103.86 5.36,-207.72 10.19,-311.52 2.4,-51.31 5.24,-102.6 8.49,-153.86" /><path
         id="path138"
         style="fill:#bc9686;fill-opacity:1;fill-rule:nonzero;stroke:none"
         d="m 3698.46,2244.46 c 47.61,5.83 95.27,11.32 142.91,16.97 -10.35,49.2 -21.68,98.21 -33.98,146.96 -8.6,34.1 -17.7,68.13 -27.57,101.92 -41.67,-2.25 -83.35,-4.38 -125.02,-6.64 -12.26,-0.67 -24.5,-1.51 -36.76,-2.24 -0.01,-3.43 -0.06,-6.86 -0.08,-10.28 -0.3,-85.54 1.45,-171.03 4.11,-256.51 25.45,3.4 50.91,6.71 76.39,9.82" /><path
         id="path140"
         style="fill:#f9a678;fill-opacity:1;fill-rule:nonzero;stroke:none"
         d="m 2611.07,3742.86 c 19.52,-11.97 43,-15.85 65.9,-16.14 76.88,-0.96 186.24,38.65 187.23,129.3 0.63,58.34 -41.17,107.23 -95.26,124.38 -128.04,40.58 -297.34,-152.03 -157.87,-237.54" /><path
         id="path142"
         style="fill:#f9a678;fill-opacity:1;fill-rule:nonzero;stroke:none"
         d="m 2111.33,3812.81 c -12.08,-21.43 -12.26,-47.78 -7.13,-71.84 5.43,-25.44 16.99,-50.4 36.88,-67.17 19.88,-16.77 49,-23.88 72.83,-13.45 26.57,11.63 40.51,40.77 49.3,68.41 7.18,22.59 12.46,46.94 6.33,69.84 -16.07,60.01 -128.75,66.49 -158.21,14.21" /><path
         id="path144"
         style="fill:#f9a678;fill-opacity:1;fill-rule:nonzero;stroke:none"
         d="m 2511.53,3755.61 c -42.78,33.77 -107.59,22.55 -152.25,-8.68 -11.46,-8.01 -23.28,-21.59 -17.47,-34.3 12.08,-3.99 24.91,-5.71 37.62,-5.03" /><path
         id="path146"
         style="fill:#fef2c9;fill-opacity:1;fill-rule:nonzero;stroke:none"
         d="m 2901.02,2958.95 c -0.16,18.94 0.06,38.09 -3.11,56.82 -2.84,16.78 -8.93,33.65 -20.9,46.11 -10.5,10.91 -25.14,18.77 -40.47,19.27 -7.2,0.24 -14.22,-1.39 -20.65,-4.59 -4.16,-2.07 -0.51,-8.3 3.65,-6.23 13.03,6.47 28.13,3.53 40.18,-3.74 13.8,-8.33 22.68,-21.65 27.52,-36.82 5.48,-17.2 6.18,-35.44 6.48,-53.35 0.31,-18.99 0.5,-38 -0.08,-56.99 -1.18,-38.07 -5.9,-76.35 -20.48,-111.82 -13.12,-31.92 -32.61,-61.92 -55.64,-87.58 -41,-45.68 -98.62,-79.82 -161.7,-75.92 -55.24,3.42 -112.53,35.87 -128.05,91.89 -14.12,50.97 8.4,110.75 52.33,140.24 3.72,2.5 7.7,4.64 11.73,6.65 l -0.25,-0.67 c 2.48,-32.23 21.61,-61.42 47.85,-79.67 28.33,-19.7 63.53,-24.75 96.34,-14.09 32.96,10.7 61.13,34.77 77.66,65.12 15.01,27.55 20.96,59.78 18.09,90.94 -2.84,30.8 -14.17,62 -34.75,85.45 -2.58,2.93 -5.44,5.62 -8.34,8.23 -2.16,1.94 -5.15,-1.04 -3.19,-3.2 20.51,-22.55 34.28,-49.43 39.27,-79.6 4.85,-29.33 1.51,-60.4 -10.36,-87.73 -13.02,-29.97 -36.56,-54.6 -66.18,-68.56 -30.48,-14.36 -65.39,-14.83 -95.26,1.26 -30.85,16.63 -53.34,47.37 -58.17,82.25 l -1.23,0.99 c 1.28,0.61 2.54,1.29 3.83,1.87 1.74,0.77 0.49,3.8 -1.3,3.1 -52.62,-20.56 -83.89,-79.22 -78.13,-134.53 3.01,-28.85 16.46,-55.24 37.49,-75.17 21.61,-20.47 49.73,-33.54 78.86,-38.99 30.53,-5.71 61.85,-3.06 91.07,7.4 31.02,11.1 58.85,29.74 82.54,52.49 25.12,24.12 46.01,52.9 62,83.8 9.29,17.95 16.58,36.82 21.39,56.46 4.69,19.14 7.25,38.77 8.62,58.41 1.4,20.13 1.52,40.33 1.34,60.5" /><path
         id="path148"
         style="fill:#fef2c9;fill-opacity:1;fill-rule:nonzero;stroke:none"
         d="m 2520.6,2168.17 c -7.08,23.18 -21.23,42.89 -40.76,57.2 -18.61,13.63 -41.13,21.77 -64.09,23.69 -47.98,4.02 -95,-21.75 -123.32,-59.6 -3.55,-4.75 -6.76,-9.74 -9.73,-14.87 -1.2,-2.07 1.9,-3.85 3.19,-1.87 24.78,38.04 65.8,67.35 111.99,70.42 42.54,2.83 87.29,-18.43 108.19,-56.34 12.82,-23.26 15.69,-50.79 14.52,-76.93 -1.18,-26.51 -7.09,-52.62 -15.93,-77.59 -8.8,-24.85 -20.53,-48.63 -33.93,-71.3 -11.72,-19.84 -25.09,-38.77 -40.6,-55.82 -15.08,-16.58 -32.23,-31.46 -51.77,-42.55 -9.63,-5.46 -19.78,-9.94 -30.37,-13.18 -5.38,-1.64 -10.85,-2.96 -16.38,-3.94 -5.13,-0.91 -10.37,-1.97 -15.47,-0.39 -3.08,0.95 -9.45,3.89 -7.23,7.99 1.08,1.98 -1.52,4.12 -3.17,2.45 -8.3,-8.44 4.92,-16.07 12.31,-17.23 5.5,-0.86 11.33,0.43 16.74,1.43 5.85,1.08 11.63,2.55 17.29,4.37 22.34,7.19 42.56,19.75 60.31,34.95 38.81,33.22 67.29,78.83 87.8,125.17 11.38,25.73 20.16,52.73 24.25,80.63 4.03,27.45 4.33,56.55 -3.84,83.31" /><path
         id="path150"
         style="fill:#fef2c9;fill-opacity:1;fill-rule:nonzero;stroke:none"
         d="m 2394.41,2090.65 c -11.99,18.77 -31.15,35.02 -54.44,35.2 -2.52,0.02 -2.52,-3.87 0,-3.91 20.63,-0.33 37.11,-14.41 48.21,-30.73 10.45,-15.37 16.64,-33.49 19.38,-51.8 5.34,-35.77 -3.15,-73.4 -22.25,-103.99 -10.86,-17.38 -25.26,-32.19 -42.38,-43.45 -3.21,-2.12 -0.25,-7.29 3.04,-5.2 32.39,20.64 54.7,55.13 63.77,92.13 9.07,37.02 5.48,79.12 -15.33,111.75" /><path
         id="path152"
         style="fill:#040606;fill-opacity:1;fill-rule:nonzero;stroke:none"
         d="m 1790.46,1607.41 c 0.72,3.09 1.65,6.09 2.77,8.99 l -0.14,-2.24 c -0.49,-14.4 1.34,-29.22 6.29,-42.79 4.52,-12.39 11.58,-23.95 22.34,-31.84 11.37,-8.32 26.03,-10.76 39.6,-7.21 30.27,7.91 50.35,38.62 54.6,68.22 1.76,12.23 1.02,24.99 -3.05,36.66 5.65,-8.13 9.79,-17.42 10.57,-27.11 1.25,-15.35 -7.03,-29.18 -15.3,-41.44 -7.92,-11.72 -17.26,-22.84 -28.61,-31.39 -19.79,-14.91 -47.32,-20.95 -69.57,-7.48 -11.69,7.09 -17.89,18.77 -20.32,31.98 -2.69,14.67 -2.57,31.12 0.82,45.65 z m 15.21,28.43 c 1.74,1.76 3.58,3.44 5.62,4.97 9.76,7.32 21.73,11.78 33.95,12.19 6.17,0.21 12.03,-0.09 18.02,-1.7 2.85,-0.77 3.89,3.36 1.2,4.35 -16.24,5.96 -34.27,3.89 -49.25,-4.07 9.25,10.07 22.59,16.12 36.35,17.36 l 1.9,-0.42 c 27.62,3.09 50.14,-20 53.84,-46.09 3.91,-27.62 -8.97,-58.53 -32.3,-74.13 -10.38,-6.94 -23.05,-10.83 -35.43,-7.6 -11.07,2.89 -19.72,10.7 -25.58,20.3 -6.19,10.13 -9.67,21.89 -11.24,33.6 -1.81,13.46 -1.81,28.3 2.92,41.24 z m 59.38,-116.35 c 14.72,6.13 27.27,16.45 37.65,28.42 10.49,12.09 20.52,26.15 26.03,41.27 11.53,31.6 -11.38,65.24 -38.81,79.91 -4.31,2.31 -8.84,4.11 -13.46,5.48 l -2.25,0.85 c -6.27,2.01 -12.9,2.74 -19.45,2.13 -16.67,-0.32 -33.02,-6.58 -45.17,-19.26 -5.93,-6.19 -9.97,-13.44 -12.58,-21.24 -1.64,-1.9 -3.2,-3.87 -4.59,-5.97 -9.21,-13.9 -11.86,-31.17 -12.01,-47.53 -0.15,-16.32 1.32,-34.31 11.34,-47.88 16.49,-22.33 48.87,-26.35 73.3,-16.18" /><path
         id="path154"
         style="fill:#040606;fill-opacity:1;fill-rule:nonzero;stroke:none"
         d="m 1824.75,1009.61 c 10.47,-21.469 7.98,-49.36 -8.05,-67.52 -15.64,-17.731 -41.26,-23.649 -62.94,-15.121 7.13,-0.239 14.27,-0.449 21.41,-0.59 7.76,-0.16 15.38,0.703 21.41,6.062 5.41,4.821 8.9,11.93 12.22,18.25 7.55,14.411 12.62,30.047 10.51,46.469 -1.89,14.74 -8.92,28.71 -20.48,38.22 -10.66,8.77 -24.46,13.76 -38.3,11.27 -12.5,-2.24 -24.63,-11.15 -29.95,-22.77 -2.81,-6.13 -3.49,-12.22 -2.2,-18.82 0.8,-4.09 6.94,-2.96 7.05,0.95 0.3,10.73 6.42,21.05 15.43,26.77 9.64,6.13 21.32,6.63 31.69,1.93 10.66,-4.82 19.26,-13.93 23.81,-24.67 5.66,-13.341 5.12,-27.938 0.33,-41.411 -2.29,-6.469 -5.45,-12.598 -8.82,-18.559 -2.87,-5.07 -5.96,-11.238 -11.79,-13.34 -6.52,-2.359 -14.64,-0.992 -21.43,-0.808 -7.09,0.187 -14.24,0.148 -21.31,0.75 -2.22,0.187 -4.52,0.547 -6.78,1.047 -6.15,5.633 -11.01,12.531 -14.64,20.32 -1.74,3.762 -3.33,7.723 -4.72,11.781 -0.36,11.141 1.88,22.399 4.86,33.04 5.88,21.01 17.98,47.27 43.42,47.37 24.87,0.1 48.75,-19.03 59.27,-40.62 z m -81.51,43.37 c -14.67,-6.17 -26.92,-17.81 -33.51,-33.28 -6,-14.12 -6.08,-29.302 -2.29,-44.001 l 0.61,-2.219 c -0.01,-1.121 -0.05,-2.242 -0.03,-3.359 0.35,-15.172 4.47,-32.769 19.78,-39.281 2.19,-0.918 4.45,-1.551 6.75,-2.078 21.15,-16.653 51.2,-18.66 74.4,-4.121 24.79,15.531 35.38,46.781 28.49,74.73 -6.7,27.129 -29.7,49.599 -56.32,57.369 -12.94,3.78 -26.48,3.02 -37.88,-3.76" /><path
         id="path156"
         style="fill:#040606;fill-opacity:1;fill-rule:nonzero;stroke:none"
         d="m 3689.01,663.441 c -29.8,170.11 -55.29,341.069 -58.85,514.039 -0.07,3.4 -0.09,6.8 -0.15,10.2 2.3,-21.31 4.68,-42.6 7.26,-63.87 14,-115.39 31.69,-230.349 43.05,-346.06 3.73,-38.031 6.68,-76.141 8.69,-114.309 z m 242.74,633.439 c -17.32,-127.42 -48.65,-252.33 -81.87,-376.388 -33.69,-125.812 -71.69,-252.66 -141.8,-363.523 -2.45,13.543 -4.9,27.082 -7.34,40.633 -0.34,17.359 -0.86,34.718 -1.68,52.058 -5.63,119.36 -21.77,237.879 -37.55,356.22 -12.76,95.71 -23.93,191.49 -32.86,287.58 -0.24,14.02 -0.56,28.04 -1.04,42.06 -1.83,52.94 -6.3,105.73 -11.7,158.42 -2.97,28.89 -6.05,57.75 -9.09,86.61 -3.22,48.09 -6.38,96.18 -9.61,144.27 -4.06,60.68 -8.25,121.35 -12.4,182.02 -1.18,17.28 -2.54,34.59 -3.87,51.92 -1.31,70.69 -0.68,141.42 2.1,212.05 0.17,4.3 -6.61,5.28 -7.56,1.02 -12.28,-54.99 -9.2,-111.3 -5.54,-167.07 1.28,-19.47 2.55,-38.95 3.83,-58.42 0.67,-33.01 1.71,-66.02 3.23,-99.03 3.86,-83.66 11.37,-166.9 19.85,-250.12 2.76,-40.8 5.49,-81.6 8.37,-122.38 4.37,-61.71 9.12,-123.4 14.69,-185.01 0.39,-25.58 0.54,-51.18 0.82,-76.76 1.19,-106.51 9.06,-212.4 22.77,-318.02 12.98,-100.059 30.16,-199.481 47.99,-298.77 0.51,-26.121 0.63,-52.32 -0.49,-78.41 -0.66,-15.391 -3.63,-28.961 -16.92,-38.168 -10.39,-7.203 -22.96,-11.141 -34.72,-15.442 -102.49,-37.46 -211.26,-53.968 -319.87,-59.582 -109.12,-5.636 -218.58,-1 -327.61,4.434 -13.39,0.668 -27.44,1 -35.16,13.809 -7.06,11.718 -8.97,28.078 -12.18,41.16 -6.78,27.711 -13.22,55.5 -19.31,83.371 -12.18,55.738 -22.97,111.777 -32.34,168.058 -37.67,225.969 -52.78,455.82 -45.07,684.78 0.91,27.08 2.18,54.15 3.73,81.21 1.46,-0.8 3.53,-0.56 4.68,0.59 81.82,81.91 87.25,205.82 143.21,302.58 16.1,27.84 37.43,50.83 58.71,74.7 21.56,24.18 39.29,49.67 50.87,80.1 12.13,31.88 18.41,65.54 26.62,98.53 7.9,31.78 17.63,63.1 28.83,93.87 45.6,125.23 114.83,239.99 183.27,353.74 34.37,57.12 68.81,114.25 100.59,172.88 8.08,14.9 16.24,29.83 23.68,45.06 6.06,12.42 11.43,27.26 4.22,40.4 -6.91,12.6 -22.35,21.11 -33.59,29.35 -14.34,10.51 -28.89,20.71 -43.66,30.6 -29.52,19.79 -59.88,38.34 -90.98,55.56 -13.33,7.38 -34.26,14.37 -40.4,29.58 -3.33,8.26 -2.58,17.83 -2.67,26.56 -0.09,9.58 -0.18,19.16 -0.28,28.74 -0.38,38.9 -0.78,77.79 -1.18,116.68 -0.24,23.02 0.77,47.1 -2.61,70.24 9.99,-0.72 20,-1.31 29.96,-2.48 14.48,-1.69 28.85,-4.3 43.03,-7.67 28.31,-6.71 55.81,-16.55 82.06,-29.08 52.47,-25.03 99.7,-60.66 138.35,-104.07 38.62,-43.38 68.48,-94.75 85.27,-150.44 4.36,-14.45 7.68,-29.13 10.45,-43.95 3.17,-16.96 6.03,-34.11 11.92,-50.39 5.92,-16.36 15.12,-29.8 26.94,-42.45 10.89,-11.66 21.24,-23.14 26.64,-38.43 18.97,-53.72 -11,-113.19 11.14,-166.37 2.62,-6.28 5.91,-12.2 9.99,-17.66 1.12,-1.49 2.56,-2.19 4.43,-1.8 11.55,2.4 23.1,4.8 34.66,7.2 2.78,-19.33 4.71,-38.72 6.09,-58.15 -1.85,-0.91 -3.25,-2.78 -2.74,-5.35 1.36,-6.84 2.81,-13.65 4.3,-20.46 0.47,-9.65 0.85,-19.32 1.17,-29 0.1,-3.35 5.06,-3.34 5.2,0 l 0.03,1.2 c 26.28,-108.26 66.08,-212.84 94.74,-320.51 32.47,-121.94 52.79,-247.07 60.77,-373.01 8.05,-127.17 3.66,-255.2 -13.51,-381.48 z m -1088.93,319.1 c 0.45,45.76 2.25,91.52 5.4,137.18 6.27,90.99 17.86,181.6 34.74,271.22 16.92,89.86 40.4,178.19 61.72,267.05 21.01,87.58 37.77,175.69 47.92,265.22 11.54,101.76 18.42,204.65 20.44,307.05 6.37,1 12.69,2.35 18.8,4.42 12.31,4.15 23.32,11.48 30.13,21.86 2.09,-5.11 5.8,-9.63 10.23,-12.88 9.6,-7.03 21.86,-7.39 33.11,-4.89 20.3,4.51 40.17,16.03 56.76,28.25 64.56,47.55 100.61,132.32 86.22,211.7 -2.53,13.95 -6.63,27.41 -11.84,40.45 0.84,4.53 1.48,9.12 1.65,13.83 0.06,1.78 -0.01,3.55 -0.03,5.33 5.74,-9.59 9.22,-20.42 11.45,-31.62 l -2.16,-0.13 c -4.95,-0.47 -4.95,-7.21 0,-7.69 1.19,-0.12 2.39,-0.2 3.58,-0.3 1.77,-12.19 2.3,-24.6 2.52,-36.22 0.71,-36.96 0.74,-73.95 1.13,-110.91 0.2,-18.6 0.39,-37.2 0.59,-55.8 0.16,-14.86 -2.32,-33.22 4.92,-46.88 6.61,-12.47 20.24,-18.63 32.08,-25.02 15.64,-8.44 31.09,-17.22 46.36,-26.31 30.09,-17.93 59.42,-37.12 87.89,-57.5 6.8,-4.87 13.56,-9.81 20.26,-14.81 6.78,-5.07 15.26,-10.09 20.05,-17.28 10.51,-15.74 -4.84,-36.99 -12.22,-51.11 -30.42,-58.18 -63.85,-114.73 -97.63,-171.01 -66.67,-111.06 -135.36,-221.79 -184.89,-341.88 -12.45,-30.19 -23.63,-60.91 -33.15,-92.15 -9.57,-31.39 -16.43,-63.37 -24.36,-95.19 -8.08,-32.39 -18.3,-64.59 -37.38,-92.36 -18.62,-27.09 -43.27,-49.32 -63.23,-75.36 -68.76,-89.72 -71.72,-211.08 -136.24,-302.91 -6.9,-9.83 -14.57,-19.03 -22.85,-27.7 -15.64,38.65 -12.38,83.54 -11.97,124.35 z m 151.71,1253.72 c -12.93,-0.86 -26.99,-2.2 -37.18,7.39 -8.97,8.45 -14.39,21.15 -20.27,31.77 -6.62,11.94 -13.12,23.93 -19.23,36.13 -12.54,25.03 -23.45,51.02 -29.75,78.37 -11.79,51.22 -0.99,106.72 -22.44,155.84 -9.53,21.84 -25.28,40.15 -35.74,61.48 -5.59,11.41 -9.08,23.65 -8.73,36.43 0.38,14.29 4.9,28.08 8.76,41.72 15.1,53.35 9.91,107.99 8.23,162.62 -0.84,27.56 -0.68,55.44 4.44,82.62 4.69,24.85 13.95,48.27 25.99,70.45 22.75,41.95 53.53,78.83 77.4,120.09 11.82,20.42 24.48,43.63 28.06,67.24 1.74,11.43 0.36,22.57 -5.33,32.73 -6.09,10.85 -15.34,19.85 -23.6,29.03 -19.42,21.6 -39.01,43.04 -58.58,64.49 -1.37,1.51 -3.17,0.86 -4.06,-0.44 -11.06,7.75 -24.43,12.17 -37.03,16.91 l -1.23,1.74 c -7.62,9.69 -18.39,16.31 -30.82,17.18 -1.49,0.1 -3.44,-1.25 -3.67,-2.8 l -0.06,-0.4 c -27.88,14.02 -53.9,31.82 -75.36,54.55 -1.98,2.09 -3.79,4.3 -5.67,6.46 -0.38,2.52 -0.83,5.01 -1.35,7.44 -0.43,2 -0.86,4.03 -1.32,6.06 l 1.07,-1.53 c 1.32,-1.9 4.42,-0.17 3.15,1.84 -2.68,4.24 -5.41,8.43 -8.11,12.66 -0.83,1.89 -1.92,3.64 -3.29,5.14 -30.73,48.02 -62.35,95.45 -93.96,142.9 -10.2,15.31 -20.4,30.61 -30.58,45.93 -1.76,2.64 -5.94,1.67 -6.02,-1.63 l 0.02,-0.89 -1.73,0.1 c -20.25,-0.8 -21.28,-26.37 -21.91,-41.18 -0.75,-17.83 -0.9,-37.92 -14.89,-51.09 -5.52,-5.2 -12.94,-8.05 -20.54,-6.72 -8.14,1.42 -15.03,6.64 -20.75,12.33 -12.94,12.87 -23.02,29.3 -32.18,44.97 -9.33,15.93 -17.46,32.54 -24.72,49.51 -16.71,39.02 -28.96,79.87 -40.65,120.61 -1.03,3.59 -6.61,3.83 -7.51,0 -7.25,-30.61 -14.29,-61.27 -21.32,-91.92 -3.52,-15.33 -7.04,-30.66 -10.56,-45.99 -2.87,-12.5 -5.58,-25.11 -9.86,-37.22 -4.08,-11.53 -9.86,-22.4 -18.55,-30.99 -19.26,20.61 -18.04,51.56 -13.04,77.66 5.91,30.87 14.39,61.37 24.48,91.12 5.72,16.9 12.06,33.59 19.01,50.02 1.83,4.33 -2.8,8.39 -6.62,5.11 -34.32,-29.47 -68.63,-58.97 -103.34,-87.99 -34.76,-29.06 -69.93,-57.68 -105.88,-85.28 -9.92,-7.62 -19.84,-15.29 -29.99,-22.62 -7.03,-5.08 -14.85,-10.02 -23.36,-12.2 -1.9,2.81 -6.96,2.37 -7.81,-1.32 -2.54,-0.78 -2.62,-4.39 -0.2,-5.3 0,-4.57 0.01,-9.14 0.01,-13.71 -20.18,-54.83 -29.68,-112.29 -34.69,-170.39 -3.37,20.5 -6.73,41 -10.3,61.47 -0.53,3.03 -5.29,4.39 -7.23,1.91 -58.99,-75.08 -73.98,-169.83 -98.04,-260.25 -1.16,4.44 -2.33,8.87 -3.47,13.31 -7.48,29.12 -15.4,58.26 -20.91,87.84 -5.65,30.37 -7.91,61.3 -3.24,91.97 4.49,29.46 14.01,57.89 24.12,85.82 13.3,36.77 26.57,73.63 40.34,110.31 -2.16,-17.2 -4.11,-34.43 -5.8,-51.68 -1.86,-18.96 -3.49,-37.95 -4.73,-56.96 -0.98,-15.09 -1.36,-30.29 1.09,-45.26 2.25,-13.79 7.43,-26.56 16.25,-37.45 1.64,-2.02 4.81,-1.5 6.51,0 31.09,27.35 40.18,69.27 45.32,108.56 6.37,48.64 11.17,97.12 22.74,144.93 11.57,47.81 29.01,93.43 53.34,136.21 22.11,38.86 48.03,75.34 72.12,112.96 26.82,41.89 51.5,85.78 64.94,133.97 l 0.17,1.79 c 21.16,13.3 43.71,23.72 68.13,30.59 34.85,9.81 70.71,16.5 106.04,24.36 35.82,7.96 71.69,17.4 108.06,22.46 35.96,5 70.94,2.17 105.22,-9.91 31.32,-11.04 60.32,-27.67 88.8,-44.52 28.97,-17.14 58.53,-34.09 84.11,-56.16 24.01,-20.71 43.23,-45.99 59.26,-73.24 15.85,-26.94 28.73,-55.49 41.29,-84.08 14.76,-33.61 29.54,-67.22 43.55,-101.16 13.55,-32.83 26.36,-65.97 37.71,-99.64 10.03,-29.76 19.08,-59.84 28.58,-89.77 13.56,-42.76 28.39,-85.48 48.01,-125.88 -39.7,55.83 -83.12,109.02 -130,158.95 -33.69,35.88 -69.19,75.03 -115.87,93.71 -48.32,19.34 -101.96,12.72 -150.81,-0.98 -25.18,-7.06 -49.75,-16.1 -74.16,-25.43 -2.6,-1 -4.55,-4.09 -2.76,-6.78 52.21,-78.19 146.75,-107.28 229.84,-140.06 84.59,-33.36 171.78,-75.75 230.39,-147.63 32.42,-39.77 51.87,-87.26 60.39,-137.66 4.57,-27.06 6.16,-54.59 6.05,-82.01 -0.1,-26.08 1.24,-56.6 -13.63,-79.32 -13.77,-21.03 -39.46,-33.97 -59.97,-47.47 -20.96,-13.8 -41.94,-27.6 -62.12,-42.54 -38.46,-28.49 -74.49,-61.6 -98.08,-103.79 -48.67,-87.06 -40.63,-195.23 -4.29,-285.11 19.82,-49.02 47.38,-94.43 78.16,-137.3 15.58,-21.7 31.96,-42.8 48.7,-63.62 16.21,-20.18 37.22,-40.71 44.07,-66.42 6.86,-25.78 -9.91,-44.24 -33.47,-51.08 -10.26,-2.97 -20.93,-4.27 -31.56,-4.99 z m -136.55,1057.72 c -0.92,8.83 -2.7,17.65 -6.12,25.77 4.29,-1.63 8.56,-3.32 12.72,-5.24 7.89,-3.63 15.68,-8.03 21.5,-14.6 7.22,-8.15 8.68,-18.55 9.1,-29.06 1.93,-47.74 3.35,-98.77 -16.13,-143.4 -9.83,11.83 -18.63,24.5 -26.35,37.83 2.98,26.3 5.78,52.52 6.33,79.11 0.34,16.45 0.65,33.2 -1.05,49.59 z m -664.24,36.79 c -6.07,-1.85 -12.03,-4.03 -17.86,-6.55 7.55,4.11 15.67,7.13 24.13,8.94 -2.11,-0.74 -4.21,-1.5 -6.27,-2.39 z m 21.59,-3.17 c -1.55,-1.12 -3.02,-2.37 -4.33,-3.88 -5.91,-6.81 -8.67,-16.17 -7.66,-25.11 1.02,-8.94 5.59,-16.48 12.04,-22.02 1.3,-1.67 2.76,-3.2 4.34,-4.59 -23.69,1.67 -47.54,11 -68.35,22.33 11.55,9.02 23.03,18.54 35.84,25.64 9.12,3.37 18.53,5.95 28.12,7.63 z m 45.35,-43.61 c -1.43,-2.73 -3.36,-5.14 -5.63,-7.11 -1.24,-0.49 -2.51,-0.93 -3.81,-1.26 -9.91,-2.52 -21.61,-0.19 -29.81,6.2 -8.76,12 -4.41,30.34 7.88,38.47 4.34,2.88 9.79,4.69 15.37,5.27 1.67,-0.85 3.33,-1.73 4.93,-2.82 12.59,-8.59 18.43,-24.76 11.07,-38.75 z m 7.76,26.4 c -2.21,5.39 -5.65,9.92 -9.75,13.73 6.04,-2.06 11.15,-6.13 13.73,-12.63 3.17,-7.97 1.87,-15.79 -2.1,-22.17 1.38,7.03 0.8,14.52 -1.88,21.07 z m -7.11,45.4 c 10.2,-2.17 19.97,-5.87 28.7,-11.89 1.91,-1.32 3.72,-2.76 5.47,-4.27 -3.66,1.85 -7.33,3.7 -10.99,5.55 -7.57,3.81 -15.22,7.65 -23.18,10.61 z m 16.36,-15.95 c 6.62,-3.24 13.22,-6.49 19.83,-9.74 l -1.7,0.11 c -22.49,7.34 -46.51,9.62 -70.05,7.09 -1.6,0.07 -3.19,0.18 -4.77,0.11 -6.03,-0.26 -11.84,-1.33 -17.46,-3 1.08,0.96 1.58,2.6 1.23,3.95 -0.97,3.79 -2.13,7.52 -3.38,11.22 3.54,0.61 7.07,1.28 10.63,1.79 11.35,1.61 23.09,2.79 34.41,0.46 11.02,-2.27 21.23,-7.08 31.26,-11.99 z m 6.53,59.63 c 4.62,-1.93 9.09,-4.16 13.45,-6.59 -40.3,3.53 -80.8,4.77 -121.24,3.68 l -1.94,2.42 c 34.36,14.92 75.26,14.87 109.73,0.49 z m -84.85,15.78 c -11.43,-2.37 -22.43,-6.39 -32.92,-11.47 -2.39,-1.15 -2.27,-4.31 -0.78,-6.04 l 1.19,-1.48 c -5.35,-0.19 -10.7,-0.39 -16.05,-0.66 -10.81,-0.56 -21.61,-1.34 -32.4,-2.23 18.14,13.17 39.37,21.85 61.58,25.24 14.12,2.16 28.03,1.53 41.81,-0.48 -7.55,-0.4 -15.06,-1.36 -22.43,-2.88 z m 616.51,-80.44 c 7.16,-3.39 14.39,-6.62 21.74,-9.59 1.23,-0.49 2.47,-0.96 3.71,-1.44 0.61,-0.99 1.23,-1.97 1.76,-2.99 7.15,-13.55 7.88,-29.58 8.23,-44.58 0.78,-33.2 -0.93,-66.47 -4.92,-99.44 -18.51,35.71 -29.48,75.4 -31.56,115.5 -0.73,14.18 -0.39,28.41 1.04,42.54 z m -157.46,51.05 c -13.4,6.65 -27.48,9.9 -42.43,10.18 -14.79,0.29 -29.82,-1.48 -44.4,-3.87 -12.54,-2.06 -25.1,-5.36 -36.36,-11.35 11.47,10.09 25.81,17.06 40.75,20.6 15.98,3.78 32.56,4.14 48.86,2.74 8.15,-0.7 16.25,-1.85 24.3,-3.27 6.65,-1.17 13.62,-2.33 19.73,-5.34 6.9,-3.39 10.72,-8.91 13.47,-15.92 1.14,-2.91 2.23,-5.8 3.43,-8.62 -9.28,4.6 -18.06,10.23 -27.35,14.85 z m -22.96,-20.53 c 0.34,7.59 -3.7,12.27 -9.33,15 2.69,0.03 5.39,-0.03 8.08,-0.2 9.7,-0.63 19.36,-3.04 27.74,-8.07 l 0.21,-0.14 c -8.12,-14.22 -21.19,-25.21 -36.33,-31.32 5.49,7.19 9.25,16.11 9.63,24.73 z m -64.23,13.53 c -14.91,-4.57 -29.39,-10.41 -43.38,-17.25 -2.16,-0.38 -4.33,-0.66 -6.51,-0.87 12.5,13.82 32.4,20.52 50.49,23.61 13.41,2.3 27.38,4.1 41.14,3.85 -14.19,-1.59 -28.27,-5.21 -41.74,-9.34 z m 14.73,-13.56 6.06,1.12 c 3.43,0.63 3.07,4.93 0.63,6.4 8.68,3.26 18.56,4.03 27.46,1.51 2.23,-0.63 4.65,-1.54 6.12,-3.43 1.82,-2.34 1.54,-5.59 0.99,-8.33 -1.01,-4.95 -2.97,-9.72 -5.59,-14.03 -3.08,-5.06 -7.45,-9.65 -12.69,-12.52 -6.05,-0.93 -12.2,-1.2 -18.32,-0.54 -1.77,0.19 -3.92,0.49 -6.16,0.96 -3.97,2.36 -7.07,5.9 -7.97,10.67 -1.34,7.11 2.79,15.45 9.47,18.19 z m -180.07,-386.58 c -5.72,-9.46 -17.94,-13.58 -27.36,-18.29 -6.59,-3.3 -13.19,-6.61 -19.78,-9.91 -11.19,-2.48 -22.35,-5.11 -33.47,-7.9 12.35,13.81 25.34,27.05 39.02,39.55 11.86,10.83 32.16,29.66 49.37,19.77 -2.34,-7.78 -3.52,-16.19 -7.78,-23.22 z m 148.88,-12.93 c -7.05,-3.21 -12.96,-7.16 -17.91,-13.58 -5.83,-7.55 -10.02,-16.21 -15.99,-23.68 -5.73,-7.17 -12.46,-13.64 -19.91,-19.03 -30.74,-22.25 -71.3,-26.75 -105.59,-9.97 -17.63,8.62 -32.64,21.93 -43.05,38.53 3.6,1.8 7.2,3.6 10.8,5.4 25.88,5.69 51.95,10.44 78.23,13.75 21.04,2.66 42.17,4.56 63.37,5.36 16.6,0.62 33.64,0.13 50.05,3.22 z m -51.37,4.91 c -37.71,-1.5 -75.19,-6.43 -112.26,-13.43 4.99,2.47 9.88,5.15 14.16,8.53 6.68,5.3 10.32,12.67 12.72,20.69 2.38,7.96 3.59,16.57 8.09,23.72 8.87,14.09 28.38,15.14 43.22,13.41 21.12,-2.47 41.12,-10.61 61.73,-15.44 21.28,-4.98 43.11,-7.42 64.96,-7.57 -4.36,-7.95 -11.37,-14.11 -19.34,-18.59 l -1.98,-1.12 c -3.65,-1.88 -7.45,-3.43 -11.28,-4.61 -19.35,-5.96 -40.03,-4.8 -60.02,-5.59 z m -131.91,119.8 c -1.12,-0.37 -2.24,-0.73 -3.34,-1.1 -7.8,-2.61 -15.91,-4.72 -24.2,-4.33 -3.55,0.17 -7.18,0.9 -10.33,2.58 -1.59,0.84 -3.07,1.86 -4.34,3.15 -1.53,1.55 -1.36,1.49 0.78,2.2 4.21,1.42 9.44,1.18 13.83,1.21 5.41,0.04 10.84,-0.3 16.19,-1.13 3.91,-0.6 7.68,-1.53 11.41,-2.58 z m 115.15,18.78 c -8.46,-1.58 -17.23,-1.78 -25.7,-1.21 -2.49,0.17 -6.46,0.14 -8.38,2.01 -2.28,2.23 2.75,2.95 4.29,3.14 4.3,0.54 8.72,0.6 13.05,0.88 4.14,0.28 9.4,1.48 13.49,0.29 2.59,-0.75 3.47,-2.73 3.25,-5.11 z m 134.85,446.34 c -11.53,16.07 -21.21,33.16 -25,52.05 1.98,-4.53 3.92,-9.07 5.96,-13.58 5.92,-13.06 12.3,-25.86 19.04,-38.47 z m -100.3,-107.31 c 36.23,24.49 77.66,41.5 122.13,33.22 2.32,-0.43 4.6,-1.06 6.89,-1.64 -12.22,0.21 -24.74,-1.63 -35.42,-3.18 -30.48,-4.44 -60.22,-13.26 -88.29,-25.88 -1.79,-0.81 -3.54,-1.68 -5.31,-2.52 z m 42.86,9.28 c 13.95,4.4 28.2,7.87 42.61,10.37 13.71,2.38 27.78,4.23 41.71,4.17 11.11,-0.05 22.73,-1.76 31.77,-8.17 -30.24,-3.97 -60.4,-8.44 -90.4,-13.94 -16.74,-3.07 -33.42,-6.42 -50.07,-9.92 -10.96,-2.3 -21.98,-4.49 -32.93,-6.91 18.27,9.92 37.46,18.14 57.31,24.4 z m 127.28,6.42 -2.05,2.11 -0.62,1.58 c -1.5,1.25 -3.13,2.3 -4.7,3.44 -8.15,12.75 -16.4,25.42 -25.5,37.47 -15.64,24.06 -29.76,49.15 -42.21,74.96 26.27,-39.56 52.52,-79.14 79.36,-118.32 7.74,-11.31 15.57,-22.55 23.4,-33.8 0.26,-0.91 0.5,-1.83 0.71,-2.74 1.07,-4.5 1.95,-9.07 2.72,-13.63 -11.29,13.94 -21.15,28.96 -30.85,44.12 1.02,1.31 1.11,3.21 -0.26,4.81 z m -584.78,-48.34 c 1.82,12.19 2.99,24.53 1.55,36.52 -0.47,3.89 -1.27,7.65 -2.42,11.22 -0.22,17.09 -0.36,34.18 -0.44,51.26 -0.01,2.46 -0.01,4.91 -0.02,7.36 2.38,11.76 4.89,23.5 7.65,35.19 0.22,0.91 0,1.68 -0.43,2.27 4.23,1.44 8.32,3.4 12.26,5.79 9.41,5.7 18.12,12.64 26.92,19.23 18.47,13.81 36.72,27.91 54.81,42.21 36.34,28.75 71.86,58.55 107.16,88.56 15.4,13.08 30.7,26.28 46.01,39.46 -9.99,-25.25 -18.73,-50.97 -25.91,-77.18 -4.41,-16.12 -8.4,-32.42 -11.57,-48.84 -3.07,-15.88 -5,-32.14 -2.58,-48.24 2.32,-15.4 8.93,-30.38 20.49,-41.04 1.74,-1.61 4.11,-1.52 5.88,0 19.24,16.52 26.07,42.12 31.55,65.88 7.18,31.17 14.3,62.36 21.38,93.55 2.96,13.04 5.91,26.09 8.85,39.14 20.31,-67.2 41.84,-135.43 84.82,-191.98 9.75,-12.83 22.79,-26.99 40.16,-27.32 16.13,-0.31 28.35,12.43 34.17,26.39 7.79,18.67 3.51,39.06 7.62,58.36 0.85,4.01 2.21,8.26 5.26,11.16 2.21,2.12 5.68,3.63 8.83,2.97 2.8,-35.62 26.61,-65.33 48.3,-92.42 3.19,-3.98 6.33,-8 9.43,-12.03 7.08,-11.18 14.49,-22.17 22.21,-32.95 -18.86,8.62 -40.42,11.23 -61.1,9.33 -30.56,-2.8 -59.12,-15.3 -84.66,-31.87 -14.36,-9.31 -27.85,-19.9 -40.91,-30.95 -9.36,-3.25 -18.21,-7.84 -25.21,-15.05 -9.17,-9.46 -14.69,-22.05 -17.21,-34.87 -3.06,-15.58 -1.85,-31.49 0.12,-47.12 2.08,-16.52 4.31,-32.99 5.76,-49.59 3.28,-37.63 3.79,-75.47 1.7,-113.19 -0.08,-1.47 1.18,-3.24 2.68,-3.51 18,-3.28 35.53,-8.93 51.93,-17.06 3.84,-1.91 7.63,-3.94 11.34,-6.1 3.46,-2 8.86,-4.19 7.73,-9.07 -1.61,-6.92 -10.1,-12.6 -15.94,-15.74 -3.28,-1.76 -6.72,-3.15 -10.25,-4.24 -0.12,1.42 -0.4,2.82 -0.98,4.15 -3.95,9.04 -15,7.27 -22.95,6.76 -4.84,-0.31 -9.73,-0.42 -14.54,-0.99 -3.72,-0.43 -7.67,-1.48 -10.17,-4.47 -2.92,-3.5 -2.56,-7.01 -0.61,-9.86 -4.31,-0.17 -8.52,-1.14 -12.65,-3.27 -6.05,-3.11 -11.14,-7.74 -16.97,-11.2 l -1.09,-0.58 c -0.97,0.94 -2.22,1.47 -3.66,2.05 -4.5,1.8 -9.4,2.49 -14.23,2.33 -3.69,-0.12 -7.3,-0.73 -10.88,-1.52 -5.43,2.13 -10.88,4.12 -16.71,5.41 -8.84,1.95 -17.95,2.88 -27,2.66 -6.65,-0.17 -17.6,0.23 -21.45,-6.62 -4.28,-7.6 5.48,-14.39 11.42,-16.86 7.55,-3.13 15.9,-2.94 23.82,-1.61 9.06,1.51 18.78,5.97 28.5,8.62 1.72,-0.68 3.45,-1.36 5.18,-2.08 4.73,-1.99 9.42,-3.24 14.14,-3.37 -3.76,-5.7 -2.74,-13.28 -1.53,-19.76 3.12,-16.68 6.45,-33.32 9.7,-49.98 -17.08,5.56 -35.91,-8.07 -48.25,-19 -18.71,-16.58 -36.23,-34.45 -52.47,-53.44 -2.5,-2.93 -0.16,-7.7 3.88,-6.65 9.14,2.37 18.32,4.65 27.52,6.84 l 0.36,-1.08 c 19.74,-34.75 58.81,-57.57 98.91,-56.69 20.01,0.45 39.85,6.57 56.83,17.13 8.54,5.32 16.46,11.77 23.29,19.16 7,7.58 12.15,16.2 17.73,24.8 3.02,4.66 6.4,9.33 10.98,12.58 3.83,2.71 8.31,4.42 12.59,6.27 7,3.03 13.29,6.57 16.08,13.2 12.06,6.47 22.16,16.29 27.05,29.43 0.93,2.52 -1.48,5.24 -3.96,5.2 -21.94,-0.3 -43.84,1.82 -65.27,6.53 -20.68,4.56 -40.58,12.48 -61.54,15.78 -16.66,2.62 -35.81,2.65 -49.54,-8.63 -3.01,-2.46 -5.36,-5.42 -7.29,-8.65 -2.45,12.19 -4.87,24.38 -7.36,36.56 -1.41,6.88 -3.79,14.21 -3.59,21.28 0.08,2.93 0.69,5.7 2.73,7.79 1.85,-3.11 6.99,-1.77 7.23,1.81 l 0.67,-0.28 c 2.15,-1.38 4.84,1.95 2.78,3.61 l -1.48,0.97 c 4.98,3.01 9.53,6.75 14.52,9.77 3.1,1.87 6.43,3.44 10.08,3.81 5.5,0.56 10.95,-1.4 16.12,-2.98 8.5,-2.59 18.82,-4.99 26.86,0.27 2.38,1.56 4.29,3.86 5.57,6.47 3.81,1.01 7.56,2.28 11.19,3.91 8.23,3.7 16.96,9.66 21.63,17.58 2.43,4.1 3.65,9.33 1.28,13.75 -2.34,4.37 -7.24,6.75 -11.37,9.1 -18.98,10.85 -39.73,18.48 -61.18,22.67 1.57,31.35 1.37,62.77 -0.64,94.09 -1.03,16.15 -2.55,32.27 -4.56,48.33 -2,16.01 -4.7,32.09 -4.14,48.29 0.47,13.38 3.5,26.92 10.82,38.3 6.33,9.84 15.64,16.06 26.23,20.11 l 1.56,0.46 0.45,0.28 c 1.27,0.45 2.55,0.89 3.85,1.29 14.46,4.34 29.55,6.92 44.31,10.06 16.02,3.42 32.05,6.74 48.14,9.81 34.53,6.61 69.3,12.19 104.23,16.26 8.55,-13.58 17.2,-27.1 26.85,-39.93 4,-5.33 8.26,-10.38 12.64,-15.31 0.47,-7.27 0,-14.59 -2.67,-21.37 -3.06,-7.77 -9.88,-15.04 -17.91,-17.73 -1.58,-0.53 -3.12,-0.78 -4.64,-0.91 0.2,1.23 -0.05,2.55 -0.91,3.54 -4.6,5.29 -6.42,12.33 -9.1,18.66 -2.78,6.53 -6.62,12.1 -12.62,16.06 -5.79,3.82 -12.72,5.7 -19.46,7.06 -8.2,1.64 -16.5,2.89 -24.81,3.83 -31.51,3.6 -64.94,0.91 -91.83,-17.38 -12.53,-8.53 -23.11,-20.06 -29.36,-33.95 -2.65,-3.78 -4.92,-7.83 -6.63,-12.21 -1.33,-3.41 3.1,-6.16 5.91,-4.54 8.29,4.76 16.83,9.07 25.51,13.07 5.53,1.02 11.06,2.04 16.59,3.06 l 12.99,2.4 c -2.12,-3.16 -3.71,-6.64 -4.18,-10.41 -0.78,-6.34 2.08,-12.05 7.02,-15.92 4.12,-3.22 9.13,-5.22 14.41,-6.44 l 1.95,-1.01 c 8.76,-3.74 18.37,-3.3 26.72,0.59 23.69,3.97 45.39,18.29 57.44,39.19 5.39,-4.12 10.52,-8.59 16.86,-11.29 18.08,-7.71 35.47,6.11 41.52,22.82 1.95,5.41 2.68,11.14 2.68,16.91 22.55,-23.78 49.4,-42.85 78.97,-57.64 -7.24,-60.87 5.53,-123.14 35.96,-176.43 -3.44,-27.35 -6.6,-54.57 -2.83,-82.18 2.15,-15.76 5.67,-31.36 6.67,-47.26 0.95,-15.1 -1.01,-29.75 -6.31,-43.93 -10.05,-26.85 -29.39,-49.49 -48.84,-70.04 -20.58,-21.75 -43.07,-41.62 -66.49,-60.24 -23.62,-18.78 -48.23,-36.27 -73.07,-53.38 -24.33,-16.75 -49.07,-33.11 -75.61,-46.18 -26.41,-13.01 -54.8,-22.45 -84.32,-24.32 -30.06,-1.9 -60.6,2.38 -89.92,8.84 -49.22,10.84 -97.79,30.44 -137.25,62.34 -19.54,15.79 -36.7,34.52 -49.92,55.92 -16.15,26.16 -26.04,55.46 -35.94,84.38 -20.89,61.07 -38.34,122.83 -49.67,186.42 -11.18,62.79 -17.39,126.36 -20.91,190 -1.13,20.41 -1.93,40.83 -2.6,61.25 21.98,2.03 44.03,3.4 66.09,4.06 5.71,-7.94 10.65,-16.39 14.69,-25.27 -1.9,-0.41 -3.8,-0.77 -5.69,-1.24 -14.57,-3.66 -28.66,-9.54 -40.85,-18.39 -3.57,-2.58 -1.63,-9.4 3.24,-7.7 15.95,5.58 32.26,10.04 48.82,13.32 0.91,-2.67 1.74,-5.38 2.5,-8.11 -23.53,-5.43 -44.39,-19.51 -58.24,-39.35 -2.1,-3 0.59,-5.69 3.46,-5.8 -0.59,-1.54 -0.32,-3.31 1.41,-4.32 21.54,-12.52 44.68,-22.83 69.62,-25.83 7.35,-0.89 14.83,-0.98 22.26,-0.38 5.81,-1.22 11.98,-0.84 17.78,1.62 1.9,0.81 3.64,1.82 5.26,2.98 7.35,2.42 14.41,5.7 20.89,10.07 3.01,2.02 1.73,6.12 -0.79,7.1 2.88,5.1 4.46,10.98 4.19,17.41 -0.34,7.99 -3.5,15.37 -9.06,20.83 5.14,-0.32 10.27,-0.66 15.4,-1.02 8.83,-2.65 17.43,-6.02 25.64,-10.22 3.15,-1.61 7.8,1.11 6.45,4.96 -0.56,1.6 -1.2,3.15 -1.88,4.67 1.24,1.69 1.19,4.46 -0.94,5.54 -0.92,0.46 -1.83,0.92 -2.75,1.38 -10.52,17.05 -29.02,28.4 -48.4,33.34 -14.07,3.59 -28.74,4.22 -43.19,3.53 -9.2,-0.45 -18.42,-1.38 -27.52,-2.92 -3.72,8.37 -8.14,16.42 -13.22,24.06 28.68,0.62 57.39,0.11 86.04,-1.61 15.57,-0.93 31.12,-2.22 46.63,-3.83 4.86,-0.51 5.34,5.97 2.24,8.25 l -2.51,1.73 -0.96,1.66 c -11.1,9.65 -24.44,15.58 -38.33,20.05 -15.35,4.94 -31.14,9.18 -47,12.15 -29.32,5.48 -59.07,2.65 -86.59,-9.01 -12.67,-5.38 -24.41,-12.57 -35.07,-21.2 -0.2,6.57 -0.45,13.13 -0.6,19.7 z M 2792.49,3032.7 c -13.95,-19.52 -28,-39.05 -42.81,-57.93 -14.5,-18.47 -30.15,-36.21 -48.41,-51.07 -35.07,-28.55 -82.13,-44.86 -126.18,-28.39 -20.2,7.55 -37.92,20.64 -53.88,34.9 -17.44,15.57 -33.34,32.83 -49.57,49.62 -37.26,38.56 -74.32,77.31 -112.14,115.32 l -2.62,2.52 c -15.63,37.1 -36.68,73.34 -44,111.75 -8.34,43.71 12.63,89.72 -6.17,131.74 -8.51,19.03 -23.11,34.6 -37.37,49.47 -15.62,16.29 -30.75,32.92 -44.73,50.65 -28.63,36.28 -53.28,76.18 -72.33,118.3 -10.31,22.8 -17.87,46.53 -20.55,71.48 -2.62,24.44 -2.01,49.09 -4.42,73.55 -4.84,48.95 -21.23,95.51 -33.81,142.78 -2.93,11.04 -5.63,22.13 -8.18,33.26 -0.96,16.45 -1.57,32.93 -1.76,49.41 l 0.01,1.21 c 2.01,8.4 4.03,16.8 5.89,25.23 3.35,15.22 6.33,30.52 9.12,45.85 0.07,-1.9 0.1,-3.8 0.18,-5.7 2.51,-65.76 7.45,-131.48 17.07,-196.61 9.66,-65.3 24.72,-129.35 45.19,-192.1 9.99,-30.62 19.77,-61.74 33.18,-91.07 11.45,-25.06 26.9,-47.86 46.38,-67.38 36.89,-36.96 85.09,-61.13 134.88,-75.52 27.06,-7.81 55.09,-13.02 83.17,-15.25 31.51,-2.49 62.46,1.3 92.25,11.95 28.39,10.14 54.76,25.09 79.99,41.43 25.84,16.74 51.09,34.54 75.79,52.91 24.76,18.44 48.86,37.85 71.3,59.08 21.61,20.42 42.89,42.53 58.76,67.83 7.55,12.04 13.78,25.13 17.25,38.96 3.79,15.07 3.74,30.46 1.78,45.79 -2.07,16.18 -5.81,32.13 -7.19,48.4 -1.44,16.94 -0.29,33.96 1.57,50.81 0.31,2.86 0.64,5.72 0.96,8.58 7.76,-12.23 16.45,-23.86 25.99,-34.77 1.76,-2.01 5.67,-1.55 6.85,0.89 19.79,40.9 21.51,86.91 20.47,131.53 -0.31,13.65 0.47,28.6 -3.69,41.67 14.11,-16.05 28.19,-32.11 42.41,-48.05 8.8,-9.88 19.6,-20.08 23.28,-33.22 3.98,-14.22 -0.83,-29.04 -6.02,-42.29 -18,-45.98 -49.47,-84.97 -76.47,-125.79 -13.21,-19.96 -25.57,-40.58 -34.92,-62.67 -10.03,-23.7 -15.7,-48.6 -17.94,-74.21 -4.88,-55.81 4.99,-111.75 0.12,-167.57 -1.22,-14 -3.48,-27.88 -7.05,-41.47 -3.56,-13.53 -8.18,-26.8 -10.16,-40.69 -3.56,-24.95 5.12,-46.64 18.02,-67.53 12.77,-20.68 26.16,-39.93 32.75,-63.46 -18.15,-44.55 -44.38,-85.12 -72.24,-124.13 z m -428.41,-32.89 c -3.88,-19.65 -13.02,-37.62 -24.62,-53.8 -12.17,-16.96 -26.97,-31.92 -42.18,-46.14 -7.11,-6.65 -14.21,-13.51 -21.79,-19.64 -2.02,-1.63 -4.22,-3.17 -6.55,-4.43 -1.39,2.34 -2.86,4.64 -4.41,6.92 -2.07,3.02 -8.32,2.38 -7.76,-2.11 0.3,-2.43 0.54,-4.86 0.83,-7.29 -5.65,0.5 -11.13,2.96 -16.28,5.1 -80.15,33.31 -160.08,75.67 -218.58,141.29 -28.66,32.14 -51.76,69.92 -65.28,110.91 -3.11,9.41 -5.61,18.86 -7.54,28.34 1.11,1.13 1.11,3.24 -0.69,3.9 -4.94,26.43 -5.52,53.12 -1.99,80.06 1.78,-0.49 3.6,-0.91 5.48,-1.26 27.25,-5.17 55.54,2.61 81.05,11.83 11.6,4.19 26.06,8.1 34.23,17.98 9.49,11.49 5.74,28.6 4.5,42.13 -6.37,69.78 -20.08,140.94 -7.6,210.84 5.92,33.14 19.03,64.15 28.93,96.17 10.01,32.36 13.76,64.52 10.74,98.31 -3.2,35.73 -10.7,70.97 -14.64,106.62 -0.24,2.15 -0.41,4.3 -0.64,6.45 5.19,-18.64 10.74,-37.18 15.72,-55.88 6.37,-23.88 11.87,-48.11 14.14,-72.77 2.26,-24.46 1.6,-49.11 4.28,-73.54 5.03,-45.94 25.89,-88.28 49.03,-127.68 22.55,-38.41 49.44,-74.35 79.99,-106.77 14.49,-15.39 30.26,-30.11 41.16,-48.41 12.28,-20.61 13.43,-43.09 11.31,-66.46 -1.97,-21.72 -5.13,-43.12 -2.1,-64.92 2.62,-18.96 8.64,-37.2 15.86,-54.86 7.25,-17.75 15.83,-35.06 23.74,-52.63 l 0.31,-1.62 0.79,-0.89 c 7.21,-16.19 13.78,-32.62 18.09,-49.85 4.57,-18.24 6.14,-37.35 2.47,-55.9 z m -80.39,-238.32 c -0.52,-24 -1.67,-48 -2.98,-71.99 -2.27,57.36 -6.07,114.66 -13.17,171.59 14.79,-30.56 16.88,-65.71 16.15,-99.6 z m 9.87,-987.52 c 1.18,-52.38 2.36,-104.75 3.54,-157.13 0.58,-25.9 1.2,-51.8 1.73,-77.7 0.12,-5.55 0.35,-11.13 0.54,-16.71 -1.97,-12.79 -3.93,-25.58 -5.9,-38.37 l 0.03,1.17 -0.4,1.62 c -0.75,78.85 -4.42,157.71 -10.91,236.27 -7.96,96.28 -21.05,192.23 -23.12,288.92 -2.09,97.66 5.06,195.45 9.94,292.94 2.89,57.63 5.77,115.26 8.66,172.89 1.09,-49.3 2.16,-98.61 3.27,-147.91 4.17,-185.33 8.45,-370.66 12.62,-555.99 z m 10.77,-125.07 c -0.06,2.9 -0.13,5.79 -0.19,8.69 0.06,-2.9 0.14,-5.79 0.19,-8.69 z m -119.11,121.25 c -24.24,44.93 -53.11,87.16 -77.97,131.73 -25.51,45.73 -45.61,94.11 -65.11,142.64 -76.83,191.23 -145.41,385.66 -222.6,576.74 -42.31,104.74 -87.28,208.44 -137.33,309.73 60.72,3.22 121.62,0.56 181.78,-8.33 2.14,-0.31 4.76,0.5 5.24,2.98 9.33,47.57 18.08,95.27 27.34,142.87 3.88,19.98 6.12,41.24 13.92,60.18 5.44,13.23 14.93,28.95 29.83,30.15 l 0.09,-0.51 c 8.68,-41.49 27.32,-80.81 51.95,-115.18 50.98,-71.13 126.86,-119.2 205.19,-155.4 10.24,-4.73 20.56,-9.28 30.94,-13.7 9.19,-3.9 18.88,-9.2 28.99,-9.92 l 1.17,0.01 c 9.84,-85.92 13.86,-172.19 16.04,-258.63 0.17,-6.75 0.31,-13.51 0.47,-20.26 -4.22,-84.25 -8.44,-168.49 -12.67,-252.74 -4.84,-96.44 -11.75,-193.09 -11.68,-289.7 0.08,-96.78 11.94,-192.76 20.76,-288.99 7.71,-84.19 11.92,-168.57 13.04,-253.05 -22.66,92.85 -54.04,185.33 -99.39,269.38 z m -130.27,2090.92 -0.07,-2.23 c -0.38,-1.31 -0.72,-2.63 -1.1,-3.93 -18.46,-64.02 -39.68,-127.18 -60.42,-190.48 -4.49,9.97 -8.22,20.42 -12.03,30.54 -5.33,14.15 -10.21,28.47 -14.77,42.88 -5.72,18.09 -10.9,36.34 -15.84,54.65 7.39,26.06 13.79,52.44 20.33,78.75 13.45,54.03 27.87,108.8 55.69,157.5 5.47,9.57 11.45,18.85 17.92,27.76 4.95,-28.04 9.63,-56.13 14.52,-84.18 -2.22,-37.16 -3.12,-74.41 -4.23,-111.26 z m -55.53,-208.72 c 17.84,54.75 36.15,109.35 52.84,164.47 0.46,1.49 0.88,3 1.33,4.5 -0.6,-15.25 -1.3,-30.49 -2.26,-45.72 -1.66,-26.47 -2.79,-53.81 -8.78,-79.73 -2.7,-11.7 -6.69,-23.36 -13.63,-33.27 -3.12,-4.44 -6.84,-8.55 -11.09,-11.93 -3.25,-2.58 -7.92,-5.84 -12.32,-4.28 -2.71,0.97 -4.61,3.46 -6.09,5.96 z m 74.72,241.41 c 1.43,-6.7 2.93,-13.39 4.49,-20.06 1.65,-27.32 4.29,-54.59 8.03,-81.71 4.75,-34.45 11.8,-68.92 11.06,-103.85 -0.71,-33.32 -11.16,-64.53 -22.01,-95.69 -10.75,-30.87 -19.77,-61.57 -22.74,-94.26 -3.05,-33.59 -1.1,-67.38 2.12,-100.87 3.24,-33.66 8.22,-67.24 10.24,-101.01 0.47,-7.9 0.23,-15.84 -6.03,-21.54 -5.29,-4.81 -12.59,-7.22 -19.14,-9.74 -12.98,-4.99 -26.19,-9.51 -39.77,-12.62 -16.94,-3.88 -35.3,-5.36 -51.75,-0.73 0.4,2.44 0.71,4.87 1.17,7.31 4.33,22.86 9.91,45.61 11.27,68.91 1.38,23.53 -3.7,45.89 -8.98,68.65 -5.8,25.03 -8.15,49.39 -4.45,74.95 3.51,24.18 10.5,47.71 17.39,71.1 9.87,33.53 20.45,66.85 31.24,100.09 1.18,-1.11 2.44,-2.11 3.83,-2.92 11.01,-6.36 22.74,3.14 29.91,11.06 15.7,17.33 21.11,41.14 24.09,63.68 3.82,28.92 5.52,58.2 6.91,87.33 0.82,17.03 1.4,34.12 1.94,51.24 3.88,13.52 7.58,27.08 11.18,40.68 z m -5.4,26.18 c 0.37,-1.87 0.76,-3.73 1.13,-5.59 -1.88,-7.39 -3.75,-14.79 -5.73,-22.15 0.45,14.64 0.96,29.29 1.59,43.93 1,-5.4 1.96,-10.8 3.01,-16.19 z m 21.47,187.52 c -8.82,-54.66 -13.38,-109.99 -13.57,-165.35 -0.73,-3.07 -1.42,-6.14 -2.16,-9.2 -2.42,12.81 -4.7,25.65 -6.9,38.5 2.92,46.75 8.11,93.21 18.67,138.79 1.46,-0.79 2.78,-1.7 3.96,-2.74 z m 6.44,-9.33 c 0.13,-16.78 0.36,-33.56 0.69,-50.33 -2.37,-17.23 -5.72,-34.43 -8.97,-51.4 -1.32,-6.89 -2.82,-13.74 -4.26,-20.6 1.35,41.75 5.21,83.4 11.42,124.71 z m -5.05,18.04 c -1.07,0.68 -2.26,1.26 -3.45,1.83 2.49,10.14 5.16,20.25 8.25,30.29 0,-1.92 0.01,-3.84 0.02,-5.76 -1.73,-8.77 -3.32,-17.56 -4.82,-26.36 z m -169.85,-848.66 c -10.51,10.85 -17.32,24.93 -23.72,38.44 -6.7,14.16 -12.53,28.72 -17.51,43.57 -19.09,56.99 -25.54,117.94 -19.29,177.7 3.13,30 9.64,59.69 19.31,88.26 10.77,31.83 26.56,61.45 40.25,92.04 10.08,22.53 18.17,45.72 25.28,69.21 1.82,-6.49 3.66,-12.98 5.57,-19.45 8.57,-29 18.18,-57.73 29.83,-85.65 2.36,-5.65 4.66,-12.87 7.94,-19.25 -8.29,-25.4 -16.48,-50.84 -24.33,-76.39 -14.1,-45.84 -32.13,-94.63 -28.8,-143.32 1.62,-23.73 9.26,-46.36 13.26,-69.68 4.26,-24.75 1.26,-49.25 -3.47,-73.69 -2.2,-11.41 -4.62,-22.8 -6.63,-34.24 -6.4,2.92 -12.38,6.97 -17.69,12.45 z m 72.55,947.88 c 0.94,7.01 1.91,14.04 2.9,21.08 18.19,46.81 37.51,93.14 59.19,138.37 42.98,89.64 96.55,175.59 169.83,243.68 4.87,4.53 9.84,8.95 14.86,13.3 -26.47,-79.24 -80.92,-144.99 -123.36,-216.05 -24.33,-40.75 -43.41,-83.75 -56.29,-129.48 -13.36,-47.49 -20.73,-96.38 -26.05,-145.35 -4.64,-42.69 -9.62,-91.45 -41.8,-122.99 -16.93,24.58 -13.05,58.22 -10.93,86.39 2.8,37.12 6.67,74.16 11.65,111.05 z m 45.31,196.54 c 12.93,30.77 30.38,59.17 51.68,84.85 21.41,25.81 45.71,49.01 70.22,71.82 9.11,8.47 18.24,16.96 27.46,25.36 -51.44,-55.62 -92.85,-120.22 -127.22,-187.8 -21.72,-42.71 -40.82,-86.61 -58.68,-131.04 7.73,46.77 18.23,93.27 36.54,136.81 z m 1106.78,-502 c -1.21,-1.29 -1.68,-3.17 -0.39,-5.13 41.12,-62.12 43.81,-136.25 35.92,-208.66 -13.18,-47.04 -37.06,-90.28 -63.23,-131.33 -26.29,-41.23 -62.17,-82.85 -70.49,-132.51 -3.69,-22.04 -0.37,-44.3 12,-63.19 13.89,-21.22 34.31,-38.26 51.4,-56.83 35.33,-38.39 70.24,-79.16 96.8,-124.25 6.97,-11.85 13.08,-24.06 18.12,-36.59 -1.2,-6.53 -3.01,-13.07 -5.61,-19.62 -9.35,-23.55 -21.79,-46.34 -33.54,-68.78 -11.17,-21.32 -23.08,-42.29 -36.63,-62.2 -13.31,-19.57 -28.32,-38.05 -45.59,-54.29 -9.01,-8.47 -18.68,-15.92 -28.65,-23.23 -2.63,-1.92 -5.23,-3.99 -7.57,-6.27 -1.28,20.35 -14.69,39.15 -26.89,54.56 -34.27,43.3 -69.01,86.01 -98.3,132.97 -55.2,88.53 -92.25,194.12 -69.23,299.12 10.99,50.16 36.47,94 73.06,129.84 36.29,35.55 79.69,62.67 121.87,90.55 20.02,13.23 43.18,26.36 54.79,48.33 12.16,23.03 11.67,51.03 11.87,76.39 0.42,54.06 -5.84,109.17 -27,159.35 -36.73,87.07 -115.82,144.73 -198.21,185.18 -42.21,20.73 -86.18,36.98 -129.9,54.11 -44.18,17.3 -88.99,36.48 -126.46,66.17 -16.46,13.04 -31.08,28.17 -43.24,45.27 46.53,17.79 95.05,35.04 145.3,36.12 25.87,0.56 51.96,-3.66 75.56,-14.58 22.5,-10.41 42.1,-25.87 60.13,-42.7 37.2,-34.72 71.4,-73.18 103.94,-112.24 33.31,-39.97 64.52,-81.69 93.49,-124.9 19.7,-29.4 39.24,-59.54 56.68,-90.66 z m 85.73,-773.97 c 7.88,-24.45 11.49,-50.01 9.18,-76.46 -3.5,-40.16 -19.3,-79.25 -43.8,-111.17 -12.26,-15.98 -26.9,-30.34 -43.36,-41.96 -8.23,-5.81 -16.91,-10.98 -25.95,-15.41 -10.91,-5.34 -23.28,-10.95 -35.65,-10.72 -11.73,0.23 -28.74,11.1 -21.3,24.84 5.03,9.29 17.24,15.01 25.3,21.48 17.76,14.23 33.39,30.9 47.32,48.86 28.49,36.71 49.81,78.24 70.22,119.79 6.55,13.35 13.34,26.74 18.04,40.75 z m -62.63,476.87 c -9.54,-55.34 -19.35,-111.51 -15.96,-167.88 3.25,-54.13 22.14,-103.65 41.86,-153.56 9.8,-24.83 19.42,-49.8 26.29,-75.62 4.03,-15.11 6.66,-29.99 6.6,-44.8 -12.86,26.19 -29.81,50.6 -47.43,73.5 -16.5,21.44 -33.81,42.26 -51.85,62.42 -9.56,10.69 -19.33,21.2 -29.3,31.51 -8.78,9.08 -18.04,17.82 -25.93,27.7 -36.15,45.23 -8.68,100.16 18.56,142.15 29.88,46.05 61.37,90.98 82.89,141.79 l 0.74,1.81 c -2.05,-13.19 -4.26,-26.23 -6.47,-39.02 z M 1517.54,1012.98 c 2.82,97.36 9.53,194.41 18.22,291.3 2.06,-16.3 5.03,-32.51 9.15,-48.6 -11.76,-126.53 -21.49,-253.26 -28.07,-380.149 -0.74,45.778 -0.63,91.578 0.7,137.449 z m 27.67,389.79 c -0.41,-33.34 -0.59,-66.68 -0.51,-100.02 -2.44,18.16 -3.67,36.43 -3.98,54.75 1.46,15.09 2.95,30.18 4.49,45.27 z m 11.23,106.03 c 2.7,24.68 5.45,49.36 8.21,74.03 3.17,19.91 6.35,39.81 9.4,59.7 18.51,120.81 36.97,241.62 55.56,362.41 -23.91,-193.47 -47.49,-386.99 -67.95,-580.85 -2.74,-25.97 -5.39,-51.95 -8,-77.94 0.3,54.23 1.22,108.45 2.78,162.65 z m 36.1,537.29 c 5.67,53.64 11.95,107.22 18.89,160.7 -6.29,-197.3 -28.39,-393.39 -50.61,-589.5 -0.18,-1.19 -0.37,-2.38 -0.56,-3.57 6.32,144.4 17.07,288.61 32.28,432.37 z m 2364.87,-417.05 c -4.8,126.31 -21.88,252.2 -51.12,375.17 -29.87,125.64 -77.47,246.14 -107.71,371.63 -3.3,13.68 -6.3,27.42 -9.11,41.2 -1.11,24.13 -3.63,48.22 -7,72.09 -0.3,2.11 -2.85,2.98 -4.63,2.62 -12.02,-2.39 -24.05,-4.79 -36.07,-7.19 -15.45,22.81 -16.4,50.76 -15.04,77.54 1.47,28.76 5.82,57.98 0.62,86.61 -2.57,14.12 -7.92,27.71 -16.56,39.23 -10.44,13.9 -24.29,24.93 -33.07,40.1 -16.82,29.07 -17.84,64.51 -25.95,96.45 -14.46,56.95 -42.39,110.01 -79.27,155.59 -37.01,45.74 -83.39,84.06 -135.22,111.89 -51.78,27.81 -109.37,44.97 -168.12,48.44 -3.38,0.2 -6.69,0.25 -10,0.21 -0.91,4.43 -1.96,8.81 -3.29,13.13 -3.83,12.33 -10.29,23.02 -18.63,32.72 -2.22,19.55 -8.13,38.9 -14.24,57.31 -16.27,49.01 -39.63,95.63 -51.87,145.97 -13.29,54.67 -9.58,111.2 -1.45,166.34 6.83,46.34 16.67,93.68 21.82,141.05 9.23,34.65 12.68,70.76 7.03,106.37 -8.3,52.29 -37.32,99.3 -64.34,143.84 -2.17,3.56 -4.44,7.06 -6.63,10.61 0.99,0.71 1.57,2 0.71,3.13 -39.29,51.54 -64.06,111.87 -84.25,172.98 -21.21,64.24 -39.51,129.22 -64.21,192.29 -13.39,34.17 -27.8,67.93 -42.4,101.6 -13.3,30.68 -26.27,61.59 -41.53,91.36 -14.31,27.88 -30.92,54.81 -51.92,78.2 -22.9,25.5 -51.14,45.03 -80.22,62.81 -56.45,34.52 -117.23,73.37 -185.51,75.05 -36.9,0.91 -73.18,-7.92 -108.95,-15.86 -37.09,-8.24 -74.19,-16.46 -111.27,-24.72 -34.29,-7.63 -67.57,-16.67 -98.12,-34.52 -28.06,-16.4 -53.05,-37.56 -77.05,-59.33 -49.28,-44.72 -101.06,-90.52 -134.09,-149.16 -33.37,-59.27 -47.06,-127.02 -57.49,-193.52 -1.11,-7.05 -2.14,-14.11 -3.17,-21.17 -15.49,-40.21 -30.25,-80.72 -45.11,-121.11 -10.42,-28.33 -21.2,-56.64 -28.25,-86.04 -7.31,-30.48 -9.44,-61.34 -5.89,-92.5 3.49,-30.57 11.08,-60.42 18.65,-90.18 4.59,-18.03 9.22,-36.04 14.06,-54 -4.49,-15.88 -9.35,-31.58 -14.9,-46.96 -11.49,-31.85 -27.39,-61.65 -40.95,-92.6 -12.65,-28.87 -22.21,-58.9 -28.1,-89.88 -11.45,-60.16 -9.91,-122.74 4.56,-182.26 7.13,-29.35 17.45,-57.94 30.8,-85.04 10.53,-21.39 23.84,-40.87 45.03,-50.28 -1.31,-8.53 -2.3,-17.1 -2.72,-25.75 -0.93,-18.9 0.65,-37.87 4.12,-56.46 -30.83,-1.18 -40.31,-50.2 -45.06,-73.68 -10.72,-52.98 -21.92,-105.87 -32.57,-158.86 -61.79,9.09 -124.24,11.95 -186.6,8.18 -3.53,-0.22 -5.46,-3.64 -3.9,-6.79 91.97,-185.19 166.31,-378.32 239.34,-571.55 36.43,-96.4 72.59,-192.91 110.59,-288.71 18.76,-47.29 37.38,-94.81 59.9,-140.46 22.43,-45.46 50.24,-87.75 76.11,-131.25 59.65,-100.29 98.12,-212.47 124.93,-325.67 0.34,-1.47 1.46,-2.36 2.76,-2.79 0.06,-12.42 0.03,-24.85 -0.03,-37.29 -9.3,-250.63 -2.96,-501.85 17.13,-751.83 5.38,-66.918 11.78,-133.738 19.18,-200.461 3.36,-30.289 7.84,-60.559 10.12,-90.949 2.1,-27.918 1.92,-57.879 -10.8,-83.52 -13.58,-27.359 -39.79,-43.711 -66.35,-56.699 -28.03,-13.711 -57.48,-24.441 -87.48,-32.93 -59.95,-16.949 -122.06,-24.73 -184.11,-28.609 -130.34,-8.141 -264.1,-3.981 -393.11,17.207 -32.49,5.34 -54.09,20.242 -62.26,53.019 -7.02,28.153 -5.84,58.75 -6.84,87.551 -2.36,67.371 -3.38,134.789 -3.23,202.203 l 0.01,1.84 c 8.86,62.899 6.82,127.078 3.96,190.348 -0.1,2.301 -0.19,4.601 -0.29,6.902 6.82,201.289 22.55,402.258 42.54,602.638 26.64,267.17 60.21,533.63 92.29,800.19 3.94,32.75 7.88,65.5 11.81,98.24 0.51,4.18 -6.76,5.2 -7.4,1.01 -20.22,-132.18 -40.71,-264.31 -61.21,-396.44 -4.37,-28.18 -8.89,-56.36 -13.45,-84.54 12.98,121.81 24.4,243.75 30.5,366.14 2.25,45.2 3.74,90.43 4.37,135.68 0.05,4 -6.59,5.14 -7.18,0.97 -34.87,-246.12 -57.06,-493.66 -65.06,-742.09 -3.16,-22.33 -6.22,-44.67 -9.03,-67.03 -4.64,-36.87 -7.57,-74.07 -6.72,-111.08 -5.5,-56.39 -10.43,-112.82 -14.41,-169.33 -6.34,-90.1 -10.22,-180.39 -10.1,-270.721 0.07,-48.43 2.31,-96.77 4.31,-145.109 -2.16,-58.43 -3.63,-116.891 -4.19,-175.372 -0.16,-16.218 -0.24,-32.429 -0.26,-48.636 -4.28,-26.832 -10.78,-53.211 -20.56,-78.641 -12.71,-33.051 -31.35,-63.98 -55.99,-89.531 -27.25,-28.25 -75.17,-54.649 -107.62,-18.551 -12.27,13.66 -19.34,31.551 -26.78,48.051 -10.08,22.379 -19.89,44.879 -29.41,67.512 -17.1,40.66 -33.27,81.707 -48.52,123.097 -30.5,82.793 -57.31,166.942 -80.31,252.11 -10.78,39.941 -25.84,82.66 -24.48,124.48 0.69,21.172 7.56,38.401 18.97,55.971 8.4,12.94 17.71,26.35 18.04,42.4 0.31,15.53 -7.87,29.22 -14.53,42.64 -10.05,20.24 -17.58,41.46 -23.05,63.37 -10.25,41.07 -13.42,83.51 -14.87,125.69 -12.21,355.7 66.5,707.59 170.68,1045.54 26.23,85.1 54.19,169.65 83.02,253.9 28.18,82.35 55.57,165.33 86.85,246.57 14.98,38.92 32.61,77.27 57.67,110.84 25.97,34.81 59.45,63.39 94.25,89.01 67.25,49.52 140,91.95 215.69,127.17 39.31,18.29 79.53,34.46 120.47,48.75 5.37,1.87 3.06,10.47 -2.37,8.57 -81.24,-28.34 -159.69,-64.4 -233.83,-108.1 -71.19,-41.97 -146.74,-89.71 -198.05,-155.75 -51.22,-65.94 -74.49,-150.22 -101.78,-227.81 -30.14,-85.73 -59.84,-171.63 -88.21,-257.97 -113.89,-346.6 -208.08,-705.17 -214.14,-1072.09 -1.41,-84.75 -3.99,-175.27 21.75,-257.03 5.4,-17.13 12.37,-33.42 20.41,-49.46 5.31,-10.59 11.42,-21.59 11.09,-33.84 -0.34,-12.78 -7.61,-23.72 -14.32,-34.06 -8.97,-13.84 -17.04,-27.15 -20.38,-43.58 -3.84,-18.872 -2.58,-38.2 0.48,-57.079 6.78,-41.8 19.58,-83.121 31.06,-123.82 12.5,-44.301 26.03,-88.312 40.61,-131.98 28.67,-85.871 61.31,-170.422 97.74,-253.309 13.35,-30.391 26.04,-73.852 57.91,-90.281 28.62,-14.762 61.72,-1.059 85.16,17.187 46.34,36.082 73.29,92.813 87.46,149.313 0.23,-39.629 0.82,-79.262 1.91,-118.879 0.91,-32.902 1.02,-66.16 4,-98.961 1.9,-20.891 5.94,-43.063 19.13,-60.039 16.48,-21.223 42.44,-25.543 67.52,-29.102 32.62,-4.629 65.36,-8.379 98.18,-11.3 67.71,-6.032 135.76,-8.461 203.73,-7.231 122.04,2.211 250.27,12.391 360.99,68.281 22.12,11.16 43.84,25.09 58.17,45.801 14.42,20.848 19.45,46.301 20.07,71.258 0.73,30.152 -4.23,60.269 -7.71,90.133 -3.95,33.84 -7.63,67.707 -11.05,101.609 -27.8,275.391 -36.96,551.799 -31.89,828.469 0.25,13.84 0.6,27.69 0.95,41.53 0.66,0.49 1.18,1.19 1.34,2.24 2.66,17.49 5.32,34.97 7.97,52.46 3.38,4.77 5.24,11.14 6.03,16.79 1.12,8.04 0.58,16.32 0.23,24.47 1.95,12.82 3.88,25.63 5.84,38.45 0.4,2.62 -1.46,4.43 -3.46,4.89 0.35,8.55 0.54,17.11 0.74,25.66 0.43,18.21 0.45,36.42 0.26,54.62 -0.4,36.41 -1.8,72.81 -4.19,109.14 -0.65,9.99 -1.34,19.99 -2.2,29.96 -0.44,4.99 -0.84,9.99 -1.46,14.97 -0.51,4.17 -0.77,8.4 -2.01,12.38 -1.32,60.29 -2.66,120.58 -3.93,180.88 -4.03,191.61 -8.42,383.21 -12.69,574.81 -0.21,9.52 -0.43,19.04 -0.65,28.56 0.07,1.46 0.15,2.91 0.22,4.37 2.66,53.09 6.36,106.25 7.74,159.4 0.97,37.1 -1.36,75.9 -18.25,109.26 3.66,1.99 7.08,4.53 10.3,7.27 7.69,6.55 15.1,13.49 22.44,20.43 28.58,26.99 56.74,58.47 65.95,97.79 7.53,32.17 1.15,62.15 -9.91,91.4 11.98,-13.08 24.24,-25.9 36.52,-38.71 19.11,-19.92 38.23,-39.85 57.34,-59.78 17.21,-17.95 34.1,-36.33 52.13,-53.48 16.01,-15.23 33.44,-29.62 53.44,-39.33 20.13,-9.78 42.26,-14.06 64.54,-11.35 22.94,2.8 44.8,11.78 64.07,24.38 40.61,26.55 68.91,67.78 97.02,106.38 29.28,40.21 57.83,81.5 78.26,127.05 0.76,1.7 1.42,3.43 2.16,5.14 4.77,-24.51 4.73,-49.73 6.24,-74.59 1.63,-26.89 6.13,-52.98 15.03,-78.46 8.95,-25.62 21.06,-50 33.96,-73.83 6.37,-11.78 12.55,-23.86 19.74,-35.17 5.8,-9.12 13.24,-17.23 23.94,-20.31 11.04,-3.18 23.6,-1.63 34.87,-0.56 2.44,0.24 4.89,0.51 7.32,0.83 -7.23,-91.6 -10.42,-183.42 -19.79,-274.88 -9.52,-92.93 -25.26,-184.57 -46.69,-275.48 -20.96,-88.92 -44.97,-177.12 -62.71,-266.78 -17.62,-89.05 -30.06,-179.14 -37.27,-269.63 -4.11,-51.67 -6.51,-103.49 -7.17,-155.32 -0.56,-43.55 -3.8,-90.77 12.7,-132.03 -1.4,-0.32 -2.66,-1.34 -2.77,-3.17 -14.53,-233.44 -5.06,-468.03 28.26,-699.541 16.61,-115.488 39.09,-230.207 67.56,-343.367 5.5,-21.832 13.19,-38.762 37.67,-41.684 27.54,-3.277 55.93,-3.089 83.63,-4.347 55.59,-2.551 111.24,-4.211 166.89,-3.961 109.25,0.492 219.3,8.629 325.52,35.41 27.2,6.859 54.11,14.93 80.53,24.34 19.2,6.84 44.03,13.25 56.46,30.832 6.44,9.09 8.19,20.109 8.86,30.988 0.58,9.52 0.74,19.102 0.8,28.672 l 0.01,-0.062 c 0.77,-4.258 6.56,-4.211 8.6,-1.122 65.85,100.133 104.66,214.543 136.7,329.204 34.96,125.109 67.79,251.618 88.28,379.998 19.94,124.85 27.53,251.61 22.74,377.94" /><path
         id="path158"
         style="fill:#040606;fill-opacity:1;fill-rule:nonzero;stroke:none"
         d="m 3238.06,1460.93 c -5.56,10.84 -9.65,23.05 -10.95,35.19 -0.79,7.32 -0.18,14.49 2.57,21.36 2.5,6.21 6.2,11.99 9.71,17.68 12.77,20.69 31.12,42.82 57.73,43.01 2.33,0.02 4.61,-0.24 6.86,-0.64 -11.13,-0.68 -22.14,-4.48 -31.44,-11.2 -21.32,-15.42 -32.89,-41.23 -32.57,-67.28 0.32,-25.68 11.59,-51.57 31.72,-67.85 11.26,-9.1 25.25,-15.05 39.35,-16.05 -7.89,-0.59 -15.89,0.18 -23.37,2.23 -22.16,6.07 -39.35,23.53 -49.61,43.55 z m 87.13,105.24 c 11.02,-4.22 18.91,-12.41 23.67,-23.1 5.75,-12.94 10.19,-27.04 13.3,-40.84 4.23,-18.7 4.63,-40.19 -4.12,-57.45 -1.84,1.39 -4.65,1.53 -6.13,-1.05 -12.63,-22.07 -41.51,-25 -62.58,-14.18 -21.15,10.87 -35.1,31.97 -39.55,55.02 -4.31,22.37 0.9,46.66 15.86,64.14 14.76,17.24 37.69,25.84 59.55,17.46 z m 14.16,-151.32 c 24.76,12.84 35.08,40.36 33.72,67.12 -0.82,16.21 -5.35,31.88 -10.61,47.13 -4.63,13.44 -9.07,27.44 -20.54,36.69 -7.55,6.08 -16.34,9.76 -25.47,11.19 -10.85,6.85 -24.84,7.87 -36.96,4.08 -13.41,-4.19 -24.38,-13.24 -33.24,-23.92 -4.55,-5.5 -8.64,-11.37 -12.48,-17.38 -3.99,-6.24 -8.02,-12.57 -10.91,-19.41 -6.01,-14.26 -3.66,-29.88 0.74,-44.27 7.51,-24.61 23.24,-47.66 46.17,-60.16 21.2,-11.54 48.06,-12.24 69.58,-1.07" /><path
         id="path160"
         style="fill:#040606;fill-opacity:1;fill-rule:nonzero;stroke:none"
         d="m 3412.1,873.91 c -2.17,1.231 -5.6,0.711 -6.17,-2.219 -4.18,-21.793 -17.11,-41.64 -37.69,-51.089 -11.56,-5.301 -24.83,-6.282 -36.06,0.32 -10.31,6.07 -17.79,16.367 -23.13,26.867 -11.06,21.781 -12.01,48.313 1.29,69.34 13.28,20.992 39.62,29.851 63.62,29.23 12.08,-0.32 23.28,-4.828 30.68,-14.66 7.52,-10.019 10.2,-22.449 10.04,-34.789 -0.09,-7.648 -1.07,-15.39 -2.58,-23 z m -52.97,-65.961 c -1.51,-0.199 -3.04,-0.32 -4.57,-0.379 12.73,1.371 24.35,7.211 33.92,15.621 -7.97,-7.953 -18.06,-13.8 -29.35,-15.242 z m -35.27,6.153 c -20,9.468 -35.34,27.66 -39.73,49.527 -4.5,22.453 2.81,46.68 19.36,62.551 2.17,2.082 4.49,3.992 6.89,5.761 -17.95,-19.211 -22.89,-47.32 -15.66,-72.3 5.67,-19.551 19.2,-41.25 38.71,-49.211 -3.29,1 -6.51,2.222 -9.57,3.672 z m 67.02,138.187 c -11.59,4.281 -24.49,3.652 -36.56,1.422 -15.66,-1.481 -30.99,-5.82 -44.38,-14.332 -21.81,-13.867 -34.6,-37.938 -34.45,-63.758 0.16,-25.402 13.47,-48.441 34.37,-62.551 21.71,-14.648 51.76,-19.031 74.29,-3.789 23.99,16.219 33.64,45.461 37.42,72.899 2,14.531 1.89,29.711 -3.87,43.429 -5.12,12.192 -14.28,22.063 -26.82,26.68" /></g></g></svg>